<?xml version="1.0" encoding="UTF-8" standalone="no"?>
<svg
   width="470"
   height="399.00299"
   viewBox="0 0 470 399.00299"
   fill="none"
   version="1.1"
   id="svg620"
   sodipodi:docname="social-media-icons.svg"
   inkscape:version="1.1.2 (0a00cf5339, 2022-02-04)"
   xmlns:inkscape="http://www.inkscape.org/namespaces/inkscape"
   xmlns:sodipodi="http://sodipodi.sourceforge.net/DTD/sodipodi-0.dtd"
   xmlns="http://www.w3.org/2000/svg"
   xmlns:svg="http://www.w3.org/2000/svg">
  <defs
     id="defs624" />
  <sodipodi:namedview
     id="namedview622"
     pagecolor="#ffffff"
     bordercolor="#666666"
     borderopacity="1.0"
     inkscape:pageshadow="2"
     inkscape:pageopacity="0.0"
     inkscape:pagecheckerboard="0"
     showgrid="false"
     showguides="true"
     inkscape:guide-bbox="true"
     lock-margins="true"
     fit-margin-top="0"
     fit-margin-left="0"
     fit-margin-right="0"
     fit-margin-bottom="0"
     inkscape:zoom="1.3103345"
     inkscape:cx="159.50126"
     inkscape:cy="354.87123"
     inkscape:window-width="2516"
     inkscape:window-height="1330"
     inkscape:window-x="26"
     inkscape:window-y="23"
     inkscape:window-maximized="0"
     inkscape:current-layer="layer2" />
  <g
     inkscape:groupmode="layer"
     id="layer1"
     inkscape:label="bg"
     style="display:inline"
     sodipodi:insensitive="true">
    <rect
       width="470"
       height="399.00299"
       fill="#ffffff"
       id="rect4"
       x="0"
       y="0"
       style="stroke-width:0.717063" />
    <path
       d="m 39.824389,37.836947 c -0.155863,-1.458572 -0.812784,-2.594258 -1.970736,-3.407042 -1.146811,-0.812828 -2.638791,-1.219207 -4.475931,-1.219207 -1.291584,0 -2.399416,0.194851 -3.323566,0.584543 -0.924123,0.389701 -1.631165,0.91857 -2.121054,1.586633 -0.48989,0.668054 -0.740441,1.430726 -0.751574,2.288077 0,0.71256 0.161451,1.330528 0.484345,1.853817 0.334027,0.523333 0.784973,0.968691 1.352794,1.336117 0.567857,0.356302 1.196932,0.656895 1.887261,0.901857 0.69032,0.244963 1.386193,0.450946 2.087647,0.617933 l 3.206655,0.801695 c 1.29155,0.300593 2.533013,0.707007 3.724392,1.219163 1.202485,0.5122 2.276917,1.157987 3.223333,1.937372 0.957514,0.779393 1.714641,1.720229 2.271364,2.822508 0.556732,1.102287 0.835059,2.393828 0.835059,3.874674 0,2.004171 -0.512165,3.768924 -1.536512,5.294303 -1.024356,1.514281 -2.505194,2.699974 -4.442531,3.557545 -1.926204,0.846192 -4.258822,1.269098 -6.997845,1.269098 -2.661066,0 -4.971409,-0.411888 -6.931012,-1.236033 C 24.398007,61.096233 22.872629,59.893642 21.77035,58.312712 20.679187,56.731633 20.089073,54.805429 20,52.534065 h 6.095962 c 0.08906,1.191343 0.456491,2.182299 1.102287,2.972817 0.645788,0.790518 1.486391,1.380649 2.521872,1.770341 1.046622,0.389693 2.215707,0.584543 3.507292,0.584543 1.347241,0 2.52746,-0.20043 3.540639,-0.601255 1.024355,-0.411968 1.826006,-0.979789 2.404996,-1.703508 0.578998,-0.734861 0.874037,-1.592213 0.88517,-2.572001 -0.01109,-0.890751 -0.272773,-1.625603 -0.784973,-2.204566 -0.512156,-0.590123 -1.23033,-1.080012 -2.154445,-1.469705 -0.913025,-0.400834 -1.981869,-0.757127 -3.206656,-1.068888 l -3.891387,-1.00209 c -2.816963,-0.723719 -5.043795,-1.820418 -6.680505,-3.290123 -1.625602,-1.480846 -2.438386,-3.446038 -2.438386,-5.895566 0,-2.015269 0.545572,-3.780057 1.636736,-5.294303 1.102287,-1.514246 2.599802,-2.688911 4.492616,-3.52397 1.892832,-0.846183 4.036152,-1.269274 6.42998,-1.269274 2.427263,0 4.553906,0.423091 6.379904,1.269274 1.837139,0.835059 3.279007,1.998591 4.32562,3.490571 1.046622,1.480838 1.586633,3.184381 1.620032,5.110585 z m 22.876528,25.30255 c -2.505123,0 -4.676246,-0.551144 -6.513394,-1.653423 -1.83721,-1.102287 -3.262383,-2.644379 -4.27557,-4.626389 -1.002081,-1.981869 -1.50314,-4.297775 -1.50314,-6.947733 0,-2.649924 0.501059,-4.971409 1.50314,-6.964411 1.013187,-1.993038 2.43836,-3.540683 4.27557,-4.642962 1.837148,-1.102287 4.008271,-1.653431 6.513394,-1.653431 2.505124,0 4.676264,0.551144 6.513395,1.653431 1.83714,1.102279 3.256882,2.649924 4.258857,4.642962 1.013364,1.993002 1.520055,4.314487 1.520055,6.964411 0,2.649958 -0.506691,4.965864 -1.520055,6.947733 -1.001975,1.98201 -2.421717,3.524102 -4.258857,4.626389 -1.837131,1.102279 -4.008271,1.653423 -6.513395,1.653423 z m 0.03344,-4.843506 c 1.358374,0 2.494095,-0.37298 3.407156,-1.118965 0.913061,-0.757127 1.592063,-1.770342 2.037394,-3.03966 0.456711,-1.269274 0.684881,-2.683323 0.684881,-4.242092 0,-1.56992 -0.22817,-2.989548 -0.684881,-4.258822 -0.445331,-1.280452 -1.124333,-2.299219 -2.037394,-3.056338 -0.913061,-0.757127 -2.048782,-1.135686 -3.407156,-1.135686 -1.391818,0 -2.549586,0.378559 -3.474034,1.135686 -0.912691,0.757119 -1.597572,1.775886 -2.053922,3.056338 -0.445692,1.269274 -0.668345,2.688902 -0.668345,4.258822 0,1.558769 0.222653,2.972818 0.668345,4.242092 0.45635,1.269318 1.141231,2.282533 2.053922,3.03966 0.924448,0.745985 2.082216,1.118965 3.474034,1.118965 z m 28.580006,4.843506 c -2.560972,0 -4.759667,-0.562532 -6.596807,-1.686857 -1.826112,-1.124694 -3.234466,-2.677813 -4.225414,-4.659762 -0.97993,-1.993003 -1.469705,-4.286668 -1.469705,-6.880926 0,-2.605392 0.500794,-4.904575 1.502769,-6.897613 1.002346,-2.004136 2.416209,-3.562949 4.24233,-4.67636 1.83714,-1.124554 4.008262,-1.686831 6.513388,-1.686831 2.082213,0 3.924863,0.384148 5.528317,1.1524 1.61448,0.757127 2.90048,1.83156 3.857999,3.223333 0.95751,1.380649 1.50315,2.995092 1.63652,4.843365 h -5.778539 c -0.23368,-1.235884 -0.790704,-2.265784 -1.670327,-3.089736 -0.868232,-0.835059 -2.031875,-1.252562 -3.490564,-1.252562 -1.235658,0 -2.321409,0.333992 -3.256506,1.002046 -0.935477,0.656921 -1.66445,1.603345 -2.188038,2.839229 -0.512191,1.235875 -0.768296,2.716722 -0.768296,4.442531 0,1.748067 0.256105,3.251179 0.768296,4.509329 0.5122,1.247053 1.230515,2.210155 2.154594,2.889342 0.935107,0.668054 2.031876,1.002046 3.28995,1.002046 0.891012,0 1.686863,-0.166996 2.388284,-0.501023 0.71281,-0.34516 1.308405,-0.840639 1.787168,-1.486391 0.478756,-0.645788 0.807239,-1.430761 0.985439,-2.354876 h 5.778539 c -0.14477,1.814865 -0.67901,3.42372 -1.60309,4.82675 -0.924449,1.391808 -2.182519,2.482707 -3.774589,3.27341 -1.59243,0.779314 -3.462633,1.169156 -5.611718,1.169156 z M 107.26845,62.638333 V 36.985175 h 6.04565 v 25.653158 z m 3.03936,-29.294029 c -0.95752,0 -1.78129,-0.317314 -2.47169,-0.951969 -0.69039,-0.645788 -1.03541,-1.419602 -1.03541,-2.321485 0,-0.91299 0.34502,-1.686822 1.03541,-2.321485 0.6904,-0.645753 1.51417,-0.968647 2.47169,-0.968647 0.9689,0 1.79268,0.322894 2.47205,0.968647 0.69003,0.634663 1.03542,1.408495 1.03542,2.321485 0,0.901883 -0.34539,1.675697 -1.03542,2.321485 -0.67937,0.634655 -1.50315,0.951969 -2.47205,0.951969 z m 16.60516,29.811729 c -1.6255,0 -3.08969,-0.289538 -4.39223,-0.868598 -1.2915,-0.590088 -2.31589,-1.458325 -3.07316,-2.605066 -0.74588,-1.146995 -1.11883,-2.561044 -1.11883,-4.242285 0,-1.447439 0.26713,-2.644371 0.80173,-3.59076 0.53425,-0.946424 1.26359,-1.703543 2.18767,-2.271399 0.92408,-0.567822 1.96537,-0.996502 3.12314,-1.285996 1.16915,-0.300602 2.37725,-0.51771 3.62431,-0.651342 1.50314,-0.155862 2.72227,-0.295048 3.65737,-0.417511 0.93548,-0.133632 1.61448,-0.334027 2.03775,-0.601256 0.43431,-0.278362 0.65146,-0.707042 0.65146,-1.286005 v -0.100189 c 0,-1.258185 -0.37331,-2.23242 -1.11918,-2.92274 -0.74588,-0.690329 -1.82025,-1.035489 -3.22345,-1.035489 -1.48074,0 -2.65541,0.322894 -3.52401,0.96869 -0.8572,0.645788 -1.43627,1.40846 -1.73683,2.288077 l -5.64479,-0.80165 c 0.44532,-1.558813 1.18018,-2.861496 2.20456,-3.908109 1.02403,-1.057746 2.27696,-1.848273 3.7577,-2.371597 1.48073,-0.534431 3.11762,-0.80166 4.90993,-0.80166 1.23603,0 2.46654,0.144765 3.69118,0.434225 1.22464,0.289503 2.34382,0.768295 3.35682,1.436314 1.01337,0.65693 1.82612,1.553225 2.43862,2.688911 0.62352,1.135678 0.9351,2.555315 0.9351,4.258823 v 17.168912 h -5.81197 v -3.524005 h -0.20061 c -0.36743,0.712445 -0.88514,1.38079 -1.55312,2.004311 -0.65696,0.612143 -1.48625,1.107797 -2.48859,1.486251 -0.99096,0.367426 -2.15423,0.551143 -3.49057,0.551143 z m 1.57002,-4.442575 c 1.21361,0 2.26593,-0.239303 3.15657,-0.718095 0.89065,-0.48989 1.57553,-1.135678 2.0543,-1.937337 0.48978,-0.80166 0.73485,-1.675697 0.73485,-2.622113 V 50.41301 c -0.18923,0.155863 -0.51219,0.300628 -0.96854,0.434233 -0.44532,0.133588 -0.9465,0.250507 -1.50315,0.350705 -0.55665,0.100232 -1.10779,0.189297 -1.65342,0.267228 -0.54563,0.07789 -1.01888,0.14473 -1.41975,0.200431 -0.90166,0.122463 -1.7089,0.322894 -2.42171,0.60122 -0.71244,0.278371 -1.27497,0.668063 -1.68686,1.169086 -0.41189,0.489925 -0.61801,1.124588 -0.61801,1.903973 0,1.113421 0.40674,1.954015 1.21949,2.52188 0.81274,0.567857 1.84816,0.851692 3.10623,0.851692 z M 152.58294,28.43414 V 62.638333 H 146.5373 V 28.43414 Z m 18.15021,0 h 7.58224 l 10.1546,24.784656 h 0.40049 L 199.02509,28.43414 h 7.58224 v 34.204193 h -5.94572 V 39.139664 h -0.31709 l -9.45318,23.398357 h -4.44219 l -9.45318,-23.448469 h -0.3171 v 23.548781 h -5.94571 z m 53.71133,34.705357 c -2.572,0 -4.79346,-0.534607 -6.66404,-1.603451 -1.85918,-1.079872 -3.28995,-2.605427 -4.29229,-4.576137 -1.00198,-1.981905 -1.50279,-4.314514 -1.50279,-6.997837 0,-2.638799 0.50081,-4.954695 1.50279,-6.947733 1.01336,-2.004136 2.4276,-3.562949 4.24232,-4.67636 1.81472,-1.124554 3.94691,-1.686831 6.39655,-1.686831 1.58104,0 3.07317,0.256096 4.47601,0.768261 1.41386,0.501058 2.66091,1.280442 3.74114,2.338198 1.0909,1.057746 1.94847,2.40496 2.572,4.041705 0.62353,1.625576 0.9351,3.562905 0.9351,5.812047 v 1.853817 h -21.02678 v -4.075104 h 15.23135 c -0.011,-1.157944 -0.2616,-2.187845 -0.75139,-3.089737 -0.48977,-0.91299 -1.17466,-1.631156 -2.05429,-2.154454 -0.86859,-0.523324 -1.88159,-0.784964 -3.03973,-0.784964 -1.23566,0 -2.32141,0.300628 -3.25651,0.901883 -0.93547,0.590088 -1.66481,1.369481 -2.18803,2.338163 -0.51219,0.957522 -0.77381,2.009724 -0.78483,3.156535 v 3.55736 c 0,1.49198 0.27264,2.772431 0.81826,3.841319 0.54564,1.057747 1.30841,1.870539 2.28798,2.438361 0.97992,0.556723 2.12667,0.835085 3.44059,0.835085 0.87962,0 1.67584,-0.122499 2.38828,-0.367427 0.71244,-0.256095 1.33046,-0.62911 1.85367,-1.119 0.52359,-0.489889 0.91857,-1.096698 1.18606,-1.820418 l 5.64479,0.63462 c -0.35603,1.491971 -1.03541,2.794688 -2.03738,3.908074 -0.99096,1.102278 -2.26042,1.959488 -3.80803,2.571992 -1.5476,0.601114 -3.31787,0.902033 -5.31079,0.902033 z m 26.04144,-0.05034 c -2.01534,0 -3.81904,-0.517701 -5.41148,-1.553119 -1.59206,-1.03541 -2.85013,-2.538549 -3.77421,-4.50933 -0.92445,-1.970771 -1.38631,-4.364599 -1.38631,-7.181554 0,-2.850362 0.46774,-5.255323 1.40284,-7.214927 0.94649,-1.970771 2.22147,-3.457162 3.82455,-4.459252 1.60346,-1.013214 3.39026,-1.519826 5.36115,-1.519826 1.50315,0 2.73917,0.256096 3.70771,0.768252 0.96854,0.501067 1.73684,1.107867 2.30488,1.820462 0.56767,0.701453 1.00748,1.363927 1.31943,1.987449 h 0.25022 V 28.43414 h 6.06255 v 34.204184 h -5.94534 v -4.041705 h -0.36743 c -0.31195,0.623521 -0.76278,1.285996 -1.35287,1.987414 -0.59009,0.690399 -1.3694,1.280486 -2.33832,1.770271 -0.96853,0.490145 -2.18766,0.734852 -3.65737,0.734853 z m 1.68687,-4.960161 c 1.28011,0 2.37137,-0.34516 3.27341,-1.035489 0.90166,-0.701453 1.58655,-1.675688 2.05429,-2.922741 0.46737,-1.247008 0.70142,-2.7 0.70142,-4.35902 0,-1.658966 -0.23405,-3.100869 -0.70142,-4.325611 -0.45671,-1.224787 -1.13572,-2.176756 -2.03776,-2.855908 -0.89064,-0.679187 -1.98742,-1.018802 -3.28994,-1.018802 -1.34737,0 -2.47206,0.350748 -3.37373,1.052202 -0.90204,0.701453 -1.58104,1.670108 -2.03775,2.906027 -0.45635,1.235876 -0.68452,2.649924 -0.68452,4.242092 0,1.603311 0.22817,3.034072 0.68452,4.292222 0.46774,1.247052 1.15262,2.23242 2.05429,2.95614 0.91305,0.712595 2.03188,1.068888 3.35719,1.068888 z m 18.41732,4.509329 v -25.65315 h 6.04565 v 25.653149 z m 3.03936,-29.294029 c -0.95752,0 -1.78129,-0.317305 -2.47169,-0.951969 -0.6904,-0.645788 -1.03541,-1.419593 -1.03541,-2.321476 0,-0.91299 0.34501,-1.686822 1.03541,-2.321485 0.6904,-0.645753 1.51417,-0.968656 2.47169,-0.968656 0.96891,0 1.79268,0.322903 2.47206,0.968656 0.69003,0.634663 1.03541,1.408495 1.03541,2.321485 0,0.901883 -0.34538,1.675688 -1.03541,2.321476 -0.67938,0.634664 -1.50315,0.951969 -2.47206,0.951969 z m 16.60516,29.811738 c -1.62549,0 -3.0897,-0.289538 -4.39223,-0.868607 -1.29151,-0.590087 -2.3159,-1.458316 -3.07317,-2.605057 -0.74587,-1.147004 -1.11881,-2.561052 -1.11881,-4.242285 0,-1.447448 0.26712,-2.644379 0.80172,-3.59076 0.53425,-0.946424 1.26359,-1.703552 2.18767,-2.271408 0.92408,-0.567821 1.96537,-0.996501 3.12314,-1.285996 1.16915,-0.300593 2.37725,-0.517701 3.6243,-0.651333 1.50315,-0.155862 2.72228,-0.295048 3.65738,-0.417511 0.93547,-0.133632 1.61448,-0.334027 2.03775,-0.601265 0.4343,-0.278361 0.65146,-0.707041 0.65146,-1.285996 v -0.100197 c 0,-1.258177 -0.37331,-2.232412 -1.11919,-2.922741 -0.74588,-0.69032 -1.82024,-1.03548 -3.22345,-1.03548 -1.48073,0 -2.65539,0.322894 -3.52399,0.968682 -0.85721,0.645788 -1.43628,1.408468 -1.73683,2.288085 l -5.6448,-0.80165 c 0.44533,-1.558822 1.18018,-2.861496 2.20457,-3.908118 1.02402,-1.057746 2.27694,-1.848264 3.75768,-2.371597 1.48074,-0.534422 3.11763,-0.801651 4.90994,-0.801651 1.23602,0 2.46654,0.144765 3.69118,0.434225 1.22463,0.289495 2.34382,0.768295 3.35682,1.436314 1.01336,0.656921 1.82611,1.553225 2.43862,2.688911 0.62352,1.135678 0.9351,2.555306 0.9351,4.258814 v 17.168912 h -5.81197 V 59.11432 h -0.20061 c -0.36744,0.712445 -0.88514,1.380799 -1.55313,2.00432 -0.65695,0.612134 -1.48624,1.107797 -2.48859,1.486251 -0.99094,0.367426 -2.15422,0.551143 -3.49056,0.551143 z m 1.57002,-4.442575 c 1.21362,0 2.26593,-0.239303 3.15657,-0.718104 0.89064,-0.48989 1.57553,-1.135678 2.05429,-1.937328 0.48979,-0.80166 0.73486,-1.675697 0.73486,-2.622113 V 50.41301 c -0.18922,0.155863 -0.5122,0.300628 -0.96854,0.434224 -0.44533,0.133597 -0.94649,0.250516 -1.50315,0.350714 -0.55665,0.100232 -1.10779,0.189297 -1.65343,0.267228 -0.54562,0.07789 -1.01887,0.14473 -1.41973,0.200431 -0.90167,0.122463 -1.70891,0.322894 -2.42172,0.60122 -0.71244,0.278371 -1.27498,0.668054 -1.68686,1.169086 -0.41189,0.489925 -0.61802,1.12458 -0.61802,1.903973 0,1.113421 0.40674,1.954015 1.2195,2.52188 0.81275,0.567857 1.84816,0.851692 3.10623,0.851693 z M 327.98784,28.43414 V 62.638324 H 321.7919 V 28.43414 Z m 17.63249,34.705357 c -2.56097,0 -4.75966,-0.562532 -6.59679,-1.686866 -1.82612,-1.124694 -3.23448,-2.677813 -4.22543,-4.659753 -0.97992,-1.993003 -1.46971,-4.286668 -1.46971,-6.880926 0,-2.6054 0.50081,-4.904584 1.50278,-6.897622 1.00235,-2.004127 2.41621,-3.56294 4.24232,-4.67636 1.83714,-1.124545 4.00827,-1.686822 6.5134,-1.686822 2.0822,0 3.92486,0.384139 5.52831,1.1524 1.61448,0.757127 2.90048,1.83156 3.858,3.223333 0.95751,1.380649 1.50314,2.995092 1.63652,4.843356 h -5.77854 c -0.23368,-1.235875 -0.7907,-2.265775 -1.67033,-3.089727 -0.86823,-0.835059 -2.03187,-1.252571 -3.49056,-1.252571 -1.23566,0 -2.3214,0.334001 -3.25651,1.002055 -0.93547,0.656921 -1.66445,1.603336 -2.18803,2.839229 -0.5122,1.235875 -0.7683,2.716722 -0.7683,4.442522 0,1.748076 0.2561,3.251188 0.7683,4.509338 0.51219,1.247053 1.23051,2.210155 2.15459,2.889342 0.9351,0.668054 2.03188,1.002046 3.28995,1.002046 0.89102,0 1.68687,-0.166996 2.38828,-0.501023 0.71281,-0.345169 1.30842,-0.840639 1.78717,-1.486391 0.47876,-0.645788 0.80724,-1.43077 0.98544,-2.354884 h 5.77854 c -0.14477,1.814873 -0.67901,3.423728 -1.60309,4.826749 -0.92444,1.391817 -2.18252,2.482716 -3.77458,3.273419 -1.59243,0.779314 -3.46264,1.169156 -5.61173,1.169156 z m 27.14373,0 c -2.50512,0 -4.67626,-0.551144 -6.51339,-1.653423 -1.83714,-1.102287 -3.2624,-2.644379 -4.27576,-4.626398 -1.00198,-1.981869 -1.50278,-4.297766 -1.50278,-6.947724 0,-2.649933 0.5008,-4.971409 1.50278,-6.964411 1.01336,-1.993038 2.43862,-3.540683 4.27576,-4.64297 1.83713,-1.102279 4.00827,-1.653423 6.51339,-1.653423 2.50512,0 4.67625,0.551144 6.51339,1.653423 1.83714,1.102287 3.25689,2.649932 4.25886,4.64297 1.01337,1.993002 1.52005,4.314478 1.52005,6.964411 0,2.649958 -0.50668,4.965855 -1.52005,6.947724 -1.00197,1.982019 -2.42172,3.524111 -4.25886,4.626398 -1.83714,1.102279 -4.00827,1.653423 -6.51339,1.653423 z m 0.0334,-4.843506 c 1.35839,0 2.49411,-0.37298 3.40716,-1.118965 0.91306,-0.757127 1.59207,-1.770342 2.03738,-3.03966 0.45672,-1.269274 0.68489,-2.683323 0.68489,-4.242101 0,-1.569911 -0.22817,-2.989539 -0.68489,-4.258822 -0.44531,-1.280443 -1.12432,-2.299219 -2.03738,-3.056329 -0.91305,-0.757127 -2.04877,-1.135686 -3.40716,-1.135686 -1.39181,0 -2.54957,0.378559 -3.47402,1.135686 -0.91269,0.75711 -1.59757,1.775886 -2.05392,3.056329 -0.4457,1.269283 -0.66836,2.688911 -0.66836,4.258822 0,1.558778 0.22266,2.972827 0.66836,4.242101 0.45635,1.269318 1.14123,2.282533 2.05392,3.03966 0.92445,0.745985 2.08221,1.118965 3.47402,1.118965 z m 23.43455,-10.688803 v 15.031136 h -6.04419 V 36.985175 h 5.77964 v 4.359055 h 0.30129 c 0.58789,-1.436314 1.5285,-2.57758 2.82185,-3.423763 1.30069,-0.846227 2.91003,-1.269319 4.82433,-1.269319 1.771,0 3.31419,0.37856 4.62591,1.135678 1.32641,0.757127 2.35154,1.853861 3.07538,3.290176 0.73485,1.436305 1.09493,3.178801 1.08391,5.227504 v 16.333818 h -6.0442 V 47.239753 c 0,-1.714667 -0.44458,-3.056337 -1.33743,-4.024984 -0.87815,-0.96869 -2.09801,-1.453036 -3.65591,-1.453036 -1.05818,0 -1.9988,0.233839 -2.82185,0.701462 -0.81568,0.456491 -1.455,1.119 -1.92164,1.987458 -0.45561,0.868449 -0.68709,1.920651 -0.68709,3.156535 z m 42.88985,-3.841284 -5.51142,0.601229 c -0.15432,-0.556697 -0.42989,-1.080012 -0.81936,-1.569911 -0.37845,-0.48989 -0.88918,-0.88517 -1.53585,-1.185798 -0.64667,-0.300628 -1.43665,-0.450911 -2.36991,-0.450911 -1.26028,0 -2.31847,0.272782 -3.17457,0.818337 -0.84509,0.54559 -1.26396,1.252597 -1.25293,2.12109 -0.011,0.745985 0.26087,1.352794 0.81936,1.820418 0.56952,0.467624 1.50277,0.851772 2.80715,1.152399 l 4.37606,0.935257 c 2.42503,0.523324 4.2291,1.352794 5.40854,2.488472 1.19046,1.135721 1.79305,2.622113 1.80407,4.459252 -0.011,1.614444 -0.485,3.039616 -1.41828,4.27543 -0.92591,1.224997 -2.21191,2.18252 -3.85798,2.872549 -1.64976,0.6904 -3.54201,1.03578 -5.68043,1.03578 -3.13785,0 -5.66575,-0.656965 -7.58004,-1.970886 -1.91798,-1.32494 -3.057,-3.167668 -3.42443,-5.528132 l 5.89355,-0.567822 c 0.26821,1.157944 0.83773,2.031982 1.70485,2.622113 0.86714,0.590088 1.99881,0.885127 3.39136,0.885127 1.43665,0 2.5867,-0.295039 3.4575,-0.885127 0.87815,-0.590131 1.31907,-1.319439 1.31907,-2.187888 0,-0.734852 -0.28292,-1.341661 -0.85244,-1.820427 -0.55849,-0.478792 -1.42562,-0.846218 -2.60506,-1.102278 l -4.37606,-0.91857 c -2.46177,-0.512192 -4.28054,-1.375096 -5.45998,-2.588714 -1.18312,-1.224742 -1.76733,-2.772387 -1.7563,-4.642961 -0.011,-1.581044 0.41886,-2.95056 1.28599,-4.108504 0.88183,-1.169086 2.10169,-2.070934 3.65959,-2.705598 1.5689,-0.645788 3.37666,-0.968682 5.4269,-0.968682 3.00557,0 5.3718,0.640244 7.0987,1.920651 1.73794,1.280417 2.81083,3.011814 3.22235,5.194105 z"
       fill="#000000"
       id="path1441"
       style="display:inline;stroke-width:0.367428"
       transform="translate(1.827499,-0.66998035)" />
    <path
       d="M 21.415457,95.706832 V 82.880287 h 1.478057 v 4.734674 h 0.125262 c 0.108558,-0.166811 0.258868,-0.379914 0.450937,-0.638588 0.196241,-0.263075 0.475976,-0.497133 0.83924,-0.701418 0.367434,-0.209064 0.864268,-0.313416 1.490589,-0.313416 0.809994,0 1.523979,0.202455 2.141921,0.607724 0.617977,0.404901 1.100219,0.97883 1.446743,1.72214 0.34656,0.743301 0.51984,1.619987 0.51984,2.630412 0,1.018874 -0.17328,1.90181 -0.51984,2.64952 -0.346524,0.74294 -0.826715,1.31907 -1.440459,1.728388 -0.613797,0.4049 -1.32149,0.607354 -2.123149,0.607354 -0.617942,0 -1.112717,-0.102142 -1.484332,-0.306806 -0.371615,-0.208694 -0.657625,-0.444583 -0.858029,-0.707666 -0.200413,-0.267123 -0.354903,-0.488306 -0.463461,-0.663935 h -0.175357 v 1.478162 z m 1.45301,-4.810003 c 0,0.726405 0.106472,1.367564 0.319408,1.922747 0.212937,0.551144 0.52402,0.983239 0.93318,1.296293 0.409168,0.308998 0.910235,0.46369 1.503112,0.46369 0.617942,0 1.133592,-0.162771 1.546941,-0.488675 0.417547,-0.329583 0.730707,-0.772335 0.939481,-1.327519 0.212919,-0.559592 0.3194,-1.181653 0.3194,-1.866536 0,-0.676432 -0.104387,-1.285996 -0.313152,-1.828691 -0.204584,-0.547095 -0.515649,-0.979199 -0.933196,-1.296645 -0.413358,-0.321503 -0.933162,-0.482066 -1.559474,-0.482066 -0.60122,0 -1.106432,0.152475 -1.515645,0.457081 -0.40916,0.300557 -0.718139,0.722355 -0.926913,1.26505 -0.208765,0.538646 -0.313142,1.167316 -0.313142,1.885271 z m 12.131391,5.035595 c -0.609598,0 -1.162837,-0.115001 -1.659706,-0.344641 -0.496869,-0.233689 -0.891419,-0.569881 -1.183712,-1.008224 -0.29225,-0.442752 -0.438414,-0.97699 -0.438414,-1.603451 0,-0.551144 0.108576,-0.997936 0.325693,-1.340376 0.217116,-0.346489 0.507306,-0.617652 0.870552,-0.81386 0.363263,-0.196575 0.764098,-0.34244 1.202511,-0.438704 0.442568,-0.09994 0.88723,-0.179308 1.333987,-0.237728 0.584543,-0.07533 1.058451,-0.131537 1.421723,-0.169381 0.367426,-0.04154 0.634619,-0.1106 0.801651,-0.206494 0.171185,-0.0959 0.256755,-0.263084 0.256755,-0.501173 v -0.04999 c 0,-0.618013 -0.169081,-1.098239 -0.507271,-1.44068 -0.334027,-0.342071 -0.841325,-0.5133 -1.52192,-0.5133 -0.705608,0 -1.258837,0.154323 -1.659671,0.463329 -0.400826,0.309006 -0.682672,0.638958 -0.845523,0.989487 l -1.402915,-0.500812 c 0.250551,-0.584569 0.584578,-1.039819 1.00209,-1.365362 0.421692,-0.329943 0.880981,-0.559583 1.37785,-0.688921 0.501067,-0.133746 0.993747,-0.200615 1.478057,-0.200615 0.309006,0 0.663908,0.03784 1.064734,0.112792 0.404979,0.07094 0.795367,0.219361 1.171171,0.444592 0.379959,0.225601 0.695179,0.565841 0.945686,1.021082 0.250551,0.45488 0.375813,1.064444 0.375813,1.828691 v 6.338127 H 37.930898 V 94.40428 h -0.07516 c -0.100197,0.208703 -0.267229,0.432094 -0.501023,0.669823 -0.233829,0.238097 -0.544895,0.440543 -0.933197,0.607733 -0.388293,0.166811 -0.8622,0.250577 -1.421687,0.250577 z m 0.22546,-1.327879 c 0.584534,0 1.077214,-0.11464 1.478048,-0.344641 0.405015,-0.22928 0.709797,-0.525797 0.914416,-0.889184 0.208738,-0.363387 0.313116,-0.745141 0.313116,-1.14601 v -1.352867 c -0.06257,0.07498 -0.200386,0.144037 -0.413349,0.206496 -0.208738,0.05844 -0.450911,0.110961 -0.726482,0.156893 -0.271418,0.04154 -0.536552,0.07903 -0.795403,0.112431 -0.254705,0.02939 -0.461384,0.05439 -0.620036,0.07533 -0.384148,0.0499 -0.743196,0.131537 -1.077223,0.244337 -0.329882,0.108392 -0.597075,0.273363 -0.801659,0.494563 -0.200431,0.217144 -0.300628,0.513661 -0.300628,0.889536 0,0.5133 0.189957,0.901673 0.569916,1.164747 0.384147,0.259035 0.870552,0.388372 1.459284,0.388372 z m 13.695539,-6.363122 -1.327739,0.375883 c -0.08352,-0.221561 -0.206679,-0.436504 -0.369529,-0.645198 -0.158644,-0.213112 -0.375761,-0.388372 -0.651333,-0.526167 -0.275572,-0.137777 -0.62838,-0.206485 -1.05845,-0.206485 -0.588732,0 -1.079326,0.135577 -1.471808,0.40674 -0.388293,0.267483 -0.582449,0.607724 -0.582449,1.021082 0,0.367426 0.133597,0.657695 0.400835,0.870438 0.267228,0.213103 0.684766,0.390572 1.252596,0.532398 l 1.427972,0.350898 c 0.860114,0.208694 1.501018,0.527988 1.92271,0.958254 0.421736,0.425847 0.63256,0.974781 0.63256,1.647183 0,0.551135 -0.158653,1.043489 -0.475967,1.477792 -0.313151,0.434295 -0.751565,0.776736 -1.315241,1.027322 -0.563667,0.250587 -1.219198,0.375514 -1.966582,0.375514 -0.98118,0 -1.793268,-0.212742 -2.436266,-0.638588 -0.642998,-0.425855 -1.050107,-1.047907 -1.221292,-1.866535 l 1.402915,-0.350528 c 0.133597,0.517709 0.386198,0.906081 0.757814,1.164746 0.375769,0.259036 0.866354,0.388373 1.471808,0.388373 0.688929,0 1.235884,-0.146235 1.640898,-0.438344 0.409169,-0.296509 0.613744,-0.651447 0.613744,-1.064804 0,-0.333992 -0.11691,-0.613603 -0.350704,-0.839204 -0.233838,-0.229649 -0.592913,-0.400861 -1.077232,-0.51367 l -1.603336,-0.375505 c -0.880982,-0.209064 -1.528169,-0.5324 -1.941527,-0.971113 -0.409168,-0.442383 -0.613752,-0.995727 -0.613752,-1.659671 0,-0.542695 0.152412,-1.022921 0.457185,-1.440318 0.308971,-0.417398 0.728613,-0.745141 1.258846,-0.983239 0.534466,-0.238089 1.139876,-0.357138 1.816273,-0.357138 0.951969,0 1.699354,0.208694 2.242154,0.626461 0.546955,0.417398 0.935248,0.968541 1.164897,1.653423 z m 6.43365,7.665654 c -0.926905,0 -1.726505,-0.204285 -2.398713,-0.613603 -0.668054,-0.413358 -1.183704,-0.989487 -1.546941,-1.728748 -0.359091,-0.742941 -0.538646,-1.6075 -0.538646,-2.592571 0,-0.985447 0.179555,-1.854037 0.538646,-2.605435 0.363237,-0.755798 0.86845,-1.344416 1.515637,-1.766222 0.651341,-0.425847 1.411258,-0.638959 2.279707,-0.638959 0.501023,0 0.995806,0.08378 1.484226,0.250586 0.488676,0.167181 0.933268,0.438335 1.334128,0.814219 0.400861,0.371466 0.720155,0.864189 0.958253,1.478162 0.238089,0.613612 0.357138,1.369402 0.357138,2.267034 v 0.626463 h -7.415533 v -1.277918 h 5.912385 c 0,-0.542686 -0.108752,-1.026961 -0.325904,-1.452807 -0.212742,-0.425855 -0.517709,-0.762047 -0.91431,-1.008224 -0.392482,-0.246538 -0.855961,-0.369627 -1.390383,-0.369627 -0.588732,0 -1.098098,0.146235 -1.528168,0.438344 -0.425882,0.28806 -0.753634,0.663935 -0.983274,1.127264 -0.22964,0.463698 -0.344465,0.960453 -0.344465,1.49065 v 0.851703 c 0,0.726773 0.125262,1.342577 0.37577,1.847798 0.254705,0.500794 0.607504,0.882926 1.05845,1.146001 0.450937,0.259035 0.97493,0.388372 1.571997,0.388372 0.388302,0 0.73905,-0.05439 1.052175,-0.162771 0.317385,-0.112801 0.590748,-0.279981 0.820388,-0.501173 0.22964,-0.225601 0.407109,-0.505212 0.532407,-0.839204 l 1.427821,0.40087 c -0.150274,0.484266 -0.4027,0.910112 -0.757638,1.277547 -0.354929,0.363378 -0.793272,0.647037 -1.315391,0.851692 -0.521784,0.200615 -1.108421,0.300557 -1.759762,0.300557 z m 9.86412,0 c -0.80173,0 -1.509397,-0.202454 -2.123,-0.607354 -0.613973,-0.409318 -1.09383,-0.985448 -1.440688,-1.728388 -0.346481,-0.74771 -0.51954,-1.630646 -0.51954,-2.64952 0,-1.010425 0.173059,-1.887111 0.51954,-2.630412 0.346858,-0.74331 0.828924,-1.317239 1.446937,-1.72214 0.618012,-0.405269 1.331918,-0.607724 2.141736,-0.607724 0.626462,0 1.121385,0.104352 1.484411,0.313416 0.367426,0.204285 0.647407,0.438343 0.839204,0.701418 0.196206,0.258674 0.348681,0.471777 0.457441,0.638588 h 0.124928 v -4.734674 h 1.478163 V 95.706832 H 68.199937 V 94.22867 h -0.175269 c -0.10876,0.175629 -0.263074,0.396812 -0.463689,0.663935 -0.200246,0.263083 -0.486476,0.498972 -0.85795,0.707666 -0.371466,0.204664 -0.86639,0.306806 -1.484402,0.306806 z m 0.200615,-1.327518 c 0.592657,0 1.09383,-0.154692 1.503148,-0.46369 0.408948,-0.313054 0.720155,-0.745149 0.932897,-1.296293 0.213104,-0.555183 0.319664,-1.196342 0.319664,-1.922747 0,-0.717955 -0.104351,-1.346625 -0.313415,-1.885271 -0.208703,-0.542695 -0.517709,-0.964493 -0.926658,-1.26505 -0.409309,-0.304606 -0.914521,-0.457081 -1.515636,-0.457081 -0.62647,0 -1.14821,0.160563 -1.565977,0.482066 -0.413358,0.317446 -0.724195,0.74955 -0.932898,1.296645 -0.204663,0.542695 -0.307167,1.152259 -0.307167,1.828691 0,0.684883 0.104343,1.306944 0.313407,1.866536 0.212743,0.555184 0.525797,0.997936 0.939146,1.327519 0.417767,0.325904 0.935476,0.488675 1.553489,0.488675 z m 15.989362,1.327518 c -0.868607,0 -1.630645,-0.206494 -2.286141,-0.619851 -0.651447,-0.413358 -1.160707,-0.991688 -1.528133,-1.734989 -0.363387,-0.74294 -0.544895,-1.611548 -0.544895,-2.605437 0,-1.001975 0.181508,-1.876822 0.544895,-2.624163 0.367426,-0.74735 0.876686,-1.327527 1.528133,-1.740876 0.655496,-0.413358 1.417534,-0.620222 2.286141,-0.620222 0.868229,0 1.628437,0.206864 2.279514,0.620222 0.655495,0.413349 1.165117,0.993526 1.528133,1.740876 0.367427,0.747341 0.551144,1.622188 0.551144,2.624163 0,0.993889 -0.183717,1.862497 -0.551144,2.605437 -0.363016,0.743301 -0.872638,1.321631 -1.528133,1.734989 -0.651077,0.413357 -1.411285,0.619851 -2.279514,0.619851 z m 0,-1.327518 c 0.659526,0 1.202221,-0.16902 1.628437,-0.507412 0.425846,-0.33804 0.741101,-0.782993 0.945386,-1.334137 0.204663,-0.551144 0.307175,-1.14821 0.307175,-1.79121 0,-0.642998 -0.102512,-1.241904 -0.307175,-1.797457 -0.204285,-0.555183 -0.51954,-1.004184 -0.945386,-1.346255 -0.426216,-0.34244 -0.968911,-0.513661 -1.628437,-0.513661 -0.659904,0 -1.20259,0.171221 -1.628445,0.513661 -0.425846,0.342071 -0.741101,0.791072 -0.945756,1.346255 -0.204663,0.555553 -0.306806,1.154459 -0.306806,1.797457 0,0.643 0.102143,1.240066 0.306806,1.79121 0.204655,0.551144 0.51991,0.996097 0.945756,1.334137 0.425855,0.338392 0.968541,0.507412 1.628445,0.507412 z m 8.09333,-4.65972 v 5.786993 h -1.478171 v -9.620004 h 1.42783 v 1.503148 h 0.125298 c 0.225592,-0.488306 0.568041,-0.881087 1.027321,-1.177235 0.45929,-0.300928 1.051947,-0.451202 1.77872,-0.451202 0.65108,0 1.220962,0.133738 1.709644,0.400861 0.488676,0.263083 0.868598,0.663944 1.13976,1.20259 0.271526,0.534246 0.40711,1.210679 0.40711,2.029306 v 6.112536 h -1.478164 v -6.012593 c 0,-0.755429 -0.196205,-1.344416 -0.588621,-1.765853 -0.392411,-0.426225 -0.931059,-0.638959 -1.615945,-0.638959 -0.471777,0 -0.893214,0.102143 -1.265058,0.306797 -0.367427,0.204655 -0.657326,0.503012 -0.87043,0.895794 -0.213112,0.392403 -0.319294,0.868229 -0.319294,1.427821 z M 103.5013,82.880287 h 1.85367 l 4.35916,10.646956 h 0.15028 l 4.3588,-10.646956 h 1.85404 v 12.826545 h -1.45318 v -9.745293 h -0.12529 l -4.00827,9.745293 h -1.40285 l -4.00826,-9.745293 h -0.1253 v 9.745293 h -1.4528 z m 18.32068,13.052137 c -0.60956,0 -1.1629,-0.115001 -1.65967,-0.344641 -0.49713,-0.233689 -0.89138,-0.569881 -1.18385,-1.008224 -0.29211,-0.442752 -0.43834,-0.97699 -0.43834,-1.603451 0,-0.551144 0.10839,-0.997936 0.32554,-1.340376 0.21715,-0.346489 0.50741,-0.617652 0.87081,-0.81386 0.36301,-0.196575 0.76387,-0.34244 1.20222,-0.438704 0.44275,-0.09994 0.88733,-0.179308 1.33413,-0.237728 0.58457,-0.07533 1.05856,-0.131537 1.42158,-0.169381 0.36742,-0.04154 0.63491,-0.1106 0.80172,-0.206494 0.17122,-0.0959 0.25683,-0.263084 0.25683,-0.501173 v -0.04999 c 0,-0.618013 -0.16902,-1.098239 -0.50741,-1.44068 -0.334,-0.342071 -0.84104,-0.5133 -1.52188,-0.5133 -0.70547,0 -1.25881,0.154323 -1.65968,0.463329 -0.40086,0.309006 -0.68268,0.638958 -0.84545,0.989487 l -1.40284,-0.500812 c 0.25058,-0.584569 0.58458,-1.039819 1.00197,-1.365362 0.42181,-0.329943 0.8811,-0.559583 1.37785,-0.688921 0.50118,-0.133746 0.9939,-0.200615 1.47817,-0.200615 0.309,0 0.66394,0.03784 1.06481,0.112792 0.4049,0.07094 0.79511,0.219361 1.171,0.444592 0.37991,0.225601 0.69516,0.565841 0.94575,1.021082 0.25058,0.45488 0.37588,1.064444 0.37588,1.828691 v 6.338127 h -1.47817 V 94.40428 h -0.0753 c -0.0999,0.208703 -0.26712,0.432094 -0.5008,0.669823 -0.23405,0.238097 -0.5449,0.440543 -0.93327,0.607733 -0.38837,0.166811 -0.86235,0.250577 -1.42158,0.250577 z m 0.22524,-1.327879 c 0.58457,0 1.0773,-0.11464 1.47816,-0.344641 0.40491,-0.22928 0.70986,-0.525797 0.91452,-0.889184 0.2087,-0.363387 0.31305,-0.745141 0.31305,-1.14601 v -1.352867 c -0.0625,0.07498 -0.20024,0.144037 -0.41335,0.206496 -0.2087,0.05844 -0.45084,0.110961 -0.72641,0.156893 -0.27153,0.04154 -0.53644,0.07903 -0.79548,0.112431 -0.25463,0.02939 -0.46149,0.05439 -0.62022,0.07533 -0.38395,0.0499 -0.74293,0.131537 -1.07693,0.244337 -0.32995,0.108392 -0.59707,0.273363 -0.80172,0.494563 -0.20062,0.217144 -0.30056,0.513661 -0.30056,0.889536 0,0.5133 0.18996,0.901673 0.56988,1.164747 0.38396,0.259035 0.87044,0.388372 1.45906,0.388372 z m 11.06509,-8.517717 v 1.25257 h -4.98526 v -1.25257 z m -3.53209,-2.304869 h 1.47816 v 9.169155 c 0,0.417406 0.0603,0.730821 0.18151,0.939515 0.12529,0.204664 0.28402,0.34245 0.47582,0.413358 0.19621,0.06689 0.40307,0.100312 0.62022,0.100312 0.16277,0 0.29651,-0.0088 0.40086,-0.02535 0.10435,-0.02059 0.18776,-0.03749 0.25059,-0.0499 l 0.30056,1.327879 c -0.10032,0.03749 -0.2403,0.07498 -0.41961,0.112431 -0.17967,0.04189 -0.40711,0.06284 -0.68268,0.06284 -0.41777,0 -0.82671,-0.08966 -1.22758,-0.269332 -0.39682,-0.179669 -0.7264,-0.453041 -0.98948,-0.820467 -0.25903,-0.367426 -0.38837,-0.830755 -0.38837,-1.390348 z m 9.68576,12.125118 c -0.92701,0 -1.72654,-0.204285 -2.39894,-0.613603 -0.66797,-0.413358 -1.18347,-0.989487 -1.54686,-1.728748 -0.35898,-0.742941 -0.53865,-1.6075 -0.53865,-2.592571 0,-0.985447 0.17967,-1.854037 0.53865,-2.605435 0.36339,-0.755798 0.86859,-1.344416 1.51564,-1.766222 0.65144,-0.425847 1.41129,-0.638959 2.27952,-0.638959 0.50117,0 0.9961,0.08378 1.48441,0.250586 0.48868,0.167181 0.93326,0.438335 1.33413,0.814219 0.40086,0.371466 0.72015,0.864189 0.95824,1.478162 0.2381,0.613612 0.35678,1.369402 0.35678,2.267034 v 0.626463 h -7.41506 v -1.277918 h 5.91228 c 0,-0.542686 -0.10876,-1.026961 -0.3259,-1.452807 -0.21274,-0.425855 -0.51771,-0.762047 -0.91416,-1.008224 -0.39278,-0.246538 -0.85611,-0.369627 -1.39072,-0.369627 -0.58862,0 -1.09788,0.146235 -1.52813,0.438344 -0.42585,0.28806 -0.75359,0.663935 -0.98324,1.127264 -0.22964,0.463698 -0.34428,0.960453 -0.34428,1.49065 v 0.851703 c 0,0.726773 0.1253,1.342577 0.37551,1.847798 0.255,0.500794 0.60773,0.882926 1.05856,1.146001 0.45083,0.259035 0.97516,0.388372 1.57222,0.388372 0.38801,0 0.7389,-0.05439 1.05195,-0.162771 0.31746,-0.112801 0.59083,-0.279981 0.82047,-0.501173 0.22964,-0.225601 0.40711,-0.505212 0.5324,-0.839204 l 1.42783,0.40087 c -0.15029,0.484266 -0.4027,0.910112 -0.75764,1.277547 -0.35494,0.363378 -0.79327,0.647037 -1.31539,0.851692 -0.52175,0.200615 -1.10853,0.300557 -1.75962,0.300557 z m 6.23158,-0.200245 v -9.620004 h 1.42783 v 1.453185 h 0.1003 c 0.17527,-0.476186 0.49272,-0.862358 0.95201,-1.158867 0.45929,-0.296518 0.97699,-0.444592 1.55311,-0.444592 0.10877,0 0.24434,0.0026 0.40711,0.0062 0.16278,0.0044 0.28586,0.01065 0.36963,0.01875 v 1.503148 c -0.0503,-0.0125 -0.16497,-0.03124 -0.34464,-0.05615 -0.17527,-0.02939 -0.36118,-0.04409 -0.55738,-0.04409 -0.46774,0 -0.88514,0.09809 -1.25257,0.29467 -0.36339,0.191797 -0.65145,0.459289 -0.86418,0.80136 -0.20871,0.338401 -0.31306,0.724573 -0.31306,1.158877 v 6.087541 z m 6.56189,0 v -9.620004 h 1.47817 v 9.620004 z m 0.75176,-11.223086 c -0.28807,0 -0.53681,-0.0981 -0.74551,-0.294678 -0.20465,-0.196206 -0.3068,-0.432095 -0.3068,-0.707667 0,-0.275571 0.10215,-0.51146 0.3068,-0.707666 0.2087,-0.196206 0.45744,-0.294309 0.74551,-0.294309 0.28806,0 0.53424,0.0981 0.73889,0.294309 0.20871,0.196206 0.31306,0.432095 0.31306,0.707666 0,0.275572 -0.10435,0.511461 -0.31306,0.707667 -0.20465,0.196576 -0.45083,0.294678 -0.73889,0.294678 z m 6.26428,11.448678 c -0.60956,0 -1.16255,-0.115001 -1.65967,-0.344641 -0.49677,-0.233689 -0.89138,-0.569881 -1.18349,-1.008224 -0.29247,-0.442752 -0.43835,-0.97699 -0.43835,-1.603451 0,-0.551144 0.1084,-0.997936 0.32555,-1.340376 0.21715,-0.346489 0.50742,-0.617652 0.87044,-0.81386 0.36338,-0.196575 0.76424,-0.34244 1.20259,-0.438704 0.44275,-0.09994 0.88734,-0.179308 1.33413,-0.237728 0.58458,-0.07533 1.05819,-0.131537 1.42158,-0.169381 0.36742,-0.04154 0.63454,-0.1106 0.80173,-0.206494 0.17122,-0.0959 0.25682,-0.263084 0.25682,-0.501173 v -0.04999 c 0,-0.618013 -0.16938,-1.098239 -0.50741,-1.44068 -0.33399,-0.342071 -0.84141,-0.5133 -1.52189,-0.5133 -0.70583,0 -1.25881,0.154323 -1.65968,0.463329 -0.40085,0.309006 -0.68267,0.638958 -0.84544,0.989487 l -1.40284,-0.500812 c 0.25021,-0.584569 0.58421,-1.039819 1.00197,-1.365362 0.42182,-0.329943 0.8811,-0.559583 1.37786,-0.688921 0.5008,-0.133746 0.99353,-0.200615 1.47816,-0.200615 0.30864,0 0.66358,0.03784 1.06444,0.112792 0.40528,0.07094 0.79548,0.219361 1.17136,0.444592 0.37993,0.225601 0.69517,0.565841 0.94576,1.021082 0.25022,0.45488 0.37551,1.064444 0.37551,1.828691 v 6.338127 h -1.4778 V 94.40428 h -0.0753 c -0.10031,0.208703 -0.26712,0.432094 -0.50118,0.669823 -0.23368,0.238097 -0.54452,0.440543 -0.93289,0.607733 -0.38838,0.166811 -0.86235,0.250577 -1.42195,0.250577 z m 0.22559,-1.327879 c 0.58459,0 1.0773,-0.11464 1.47817,-0.344641 0.4049,-0.22928 0.70987,-0.525797 0.91416,-0.889184 0.20907,-0.363387 0.31341,-0.745141 0.31341,-1.14601 v -1.352867 c -0.0628,0.07498 -0.20061,0.144037 -0.41335,0.206496 -0.20906,0.05844 -0.45121,0.110961 -0.72677,0.156893 -0.27116,0.04154 -0.53645,0.07903 -0.79511,0.112431 -0.255,0.02939 -0.46149,0.05439 -0.62022,0.07533 -0.38397,0.0499 -0.74331,0.131537 -1.07731,0.244337 -0.32958,0.108392 -0.59706,0.273363 -0.80172,0.494563 -0.20025,0.217144 -0.30055,0.513661 -0.30055,0.889536 0,0.5133 0.18995,0.901673 0.56987,1.164747 0.38433,0.259035 0.87081,0.388372 1.45942,0.388372 z m 8.35936,-11.724258 v 12.826545 h -1.4778 V 82.880287 Z m 11.82639,12.826545 h -3.9583 V 82.880287 h 4.13357 c 1.24411,0 2.30891,0.256834 3.19405,0.770495 0.88513,0.509261 1.56377,1.241904 2.03555,2.197957 0.47178,0.952004 0.70767,2.092135 0.70767,3.419653 0,1.336337 -0.2381,2.486389 -0.71393,3.450881 -0.47618,0.960453 -1.16914,1.699354 -2.07926,2.217054 -0.91049,0.51367 -2.01681,0.770505 -3.31935,0.770505 z m -2.40518,-1.377859 h 2.30488 c 1.0604,0 1.93928,-0.204655 2.63666,-0.613603 0.69738,-0.40931 1.21692,-0.991688 1.55936,-1.747486 0.34245,-0.755798 0.51367,-1.655633 0.51367,-2.699492 0,-1.035418 -0.16902,-1.926793 -0.50742,-2.674143 -0.33803,-0.751759 -0.84325,-1.327879 -1.51565,-1.728749 -0.67201,-0.4049 -1.50938,-0.607354 -2.51136,-0.607354 h -2.48014 z m 14.95615,1.578104 c -0.92702,0 -1.72654,-0.204285 -2.39894,-0.613603 -0.66798,-0.413358 -1.18348,-0.989487 -1.54687,-1.728748 -0.35897,-0.742941 -0.53865,-1.6075 -0.53865,-2.592571 0,-0.985447 0.17968,-1.854037 0.53865,-2.605435 0.36339,-0.755798 0.8686,-1.344416 1.51564,-1.766222 0.65145,-0.425847 1.41129,-0.638959 2.27989,-0.638959 0.50081,0 0.99573,0.08378 1.48404,0.250586 0.48868,0.167181 0.93327,0.438335 1.33413,0.814219 0.40086,0.371466 0.72016,0.864189 0.95825,1.478162 0.23809,0.613612 0.35714,1.369402 0.35714,2.267034 v 0.626463 h -7.41542 v -1.277918 h 5.91228 c 0,-0.542686 -0.10876,-1.026961 -0.32591,-1.452807 -0.21274,-0.425855 -0.51771,-0.762047 -0.91416,-1.008224 -0.39278,-0.246538 -0.85611,-0.369627 -1.39035,-0.369627 -0.58898,0 -1.09824,0.146235 -1.5285,0.438344 -0.42585,0.28806 -0.75359,0.663935 -0.98324,1.127264 -0.22964,0.463698 -0.34427,0.960453 -0.34427,1.49065 v 0.851703 c 0,0.726773 0.12529,1.342577 0.37588,1.847798 0.25462,0.500794 0.60735,0.882926 1.05819,1.146001 0.45083,0.259035 0.97515,0.388372 1.57222,0.388372 0.38801,0 0.7389,-0.05439 1.05194,-0.162771 0.31746,-0.112801 0.59083,-0.279981 0.82047,-0.501173 0.22964,-0.225601 0.40711,-0.505212 0.53241,-0.839204 l 1.42782,0.40087 c -0.15028,0.484266 -0.4027,0.910112 -0.75764,1.277547 -0.35494,0.363378 -0.79327,0.647037 -1.31539,0.851692 -0.52175,0.200615 -1.10853,0.300557 -1.75961,0.300557 z m 13.04552,-7.665654 -1.32752,0.375883 c -0.0838,-0.221561 -0.20685,-0.436504 -0.36962,-0.645198 -0.15873,-0.213112 -0.37588,-0.388372 -0.65145,-0.526167 -0.27557,-0.137777 -0.62831,-0.206485 -1.05819,-0.206485 -0.58899,0 -1.07951,0.135577 -1.47193,0.40674 -0.38837,0.267483 -0.58237,0.607724 -0.58237,1.021082 0,0.367426 0.13338,0.657695 0.40087,0.870438 0.26712,0.213103 0.68452,0.390572 1.25256,0.532398 l 1.42783,0.350898 c 0.86014,0.208694 1.50094,0.527988 1.92274,0.958254 0.42181,0.425847 0.63271,0.974781 0.63271,1.647183 0,0.551135 -0.15872,1.043489 -0.47618,1.477792 -0.31305,0.434295 -0.75139,0.776736 -1.31503,1.027322 -0.564,0.250587 -1.21949,0.375514 -1.96684,0.375514 -0.98103,0 -1.79304,-0.212742 -2.43605,-0.638588 -0.643,-0.425855 -1.0501,-1.047907 -1.22132,-1.866535 l 1.40284,-0.350528 c 0.13374,0.517709 0.38616,0.906081 0.75763,1.164746 0.37588,0.259036 0.8664,0.388373 1.47192,0.388373 0.68892,0 1.23603,-0.146235 1.64093,-0.438344 0.40931,-0.296509 0.6136,-0.651447 0.6136,-1.064804 0,-0.333992 -0.11683,-0.613603 -0.35052,-0.839204 -0.23369,-0.229649 -0.59303,-0.400861 -1.0773,-0.51367 l -1.60345,-0.375505 c -0.88073,-0.209064 -1.52814,-0.5324 -1.94149,-0.971113 -0.40894,-0.442383 -0.61361,-0.995727 -0.61361,-1.659671 0,-0.542695 0.15249,-1.022921 0.45708,-1.440318 0.30901,-0.417398 0.72862,-0.745141 1.25881,-0.983239 0.53461,-0.238089 1.14013,-0.357138 1.81657,-0.357138 0.95163,0 1.69934,0.208694 2.24204,0.626461 0.54673,0.417398 0.9351,0.968541 1.16474,1.653423 z m 2.40041,7.465409 v -9.620004 h 1.47817 v 9.620004 z m 0.75138,-11.223086 c -0.28806,0 -0.53643,-0.0981 -0.74514,-0.294678 -0.20465,-0.196206 -0.30679,-0.432095 -0.30679,-0.707667 0,-0.275571 0.10214,-0.51146 0.30679,-0.707666 0.20871,-0.196206 0.45708,-0.294309 0.74514,-0.294309 0.28807,0 0.53462,0.0981 0.73928,0.294309 0.20869,0.196206 0.31304,0.432095 0.31304,0.707666 0,0.275572 -0.10435,0.511461 -0.31304,0.707667 -0.20466,0.196576 -0.45121,0.294678 -0.73928,0.294678 z m 7.31697,15.031103 c -0.71392,0 -1.32789,-0.09185 -1.84155,-0.275572 -0.5133,-0.179669 -0.94136,-0.417767 -1.2838,-0.714276 -0.33803,-0.292109 -0.60735,-0.605154 -0.80797,-0.939146 l 1.17761,-0.826716 c 0.13338,0.17526 0.30277,0.375515 0.50705,0.601115 0.20466,0.22964 0.48464,0.428055 0.83957,0.594866 0.35898,0.171221 0.82855,0.256835 1.40909,0.256835 0.77637,0 1.41753,-0.187757 1.92274,-0.563632 0.50522,-0.375884 0.75764,-0.964501 0.75764,-1.766231 v -1.95398 h -0.12529 c -0.1084,0.17526 -0.26308,0.392412 -0.46333,0.651447 -0.1962,0.254626 -0.48022,0.482066 -0.8517,0.682681 -0.36742,0.196206 -0.86456,0.294309 -1.49065,0.294309 -0.77674,0 -1.47375,-0.183718 -2.09176,-0.551144 -0.61398,-0.367426 -1.10045,-0.902033 -1.45943,-1.603451 -0.35494,-0.701418 -0.53241,-1.553119 -0.53241,-2.555096 0,-0.985439 0.17343,-1.84338 0.51991,-2.574201 0.34649,-0.734853 0.82893,-1.302524 1.44694,-1.703394 0.61764,-0.405269 1.33193,-0.607724 2.14174,-0.607724 0.62646,0 1.12322,0.104352 1.49065,0.313416 0.37147,0.204285 0.65549,0.438343 0.8517,0.701418 0.20061,0.258674 0.35494,0.471777 0.46333,0.638588 h 0.15063 v -1.528133 h 1.42783 v 9.895576 c 0,0.826707 -0.18775,1.499099 -0.56363,2.016809 -0.37183,0.52174 -0.87265,0.903872 -1.50315,1.146001 -0.62646,0.246177 -1.32347,0.369635 -2.09176,0.369635 z m -0.0503,-5.286179 c 0.59302,0 1.0942,-0.135586 1.50315,-0.407118 0.4093,-0.271154 0.72052,-0.661735 0.93326,-1.170987 0.21311,-0.509621 0.3193,-1.119185 0.3193,-1.828693 0,-0.69333 -0.10435,-1.305102 -0.31306,-1.8353 -0.20869,-0.530198 -0.5177,-0.945764 -0.92702,-1.246313 -0.40894,-0.300557 -0.91416,-0.450832 -1.51563,-0.450832 -0.6261,0 -1.14821,0.158723 -1.56561,0.475809 -0.41336,0.317464 -0.72457,0.74331 -0.93328,1.277925 -0.20465,0.534238 -0.30679,1.127265 -0.30679,1.778711 0,0.667986 0.10435,1.258812 0.31305,1.772112 0.21311,0.509613 0.52615,0.910482 0.93951,1.202591 0.4174,0.28806 0.93547,0.432095 1.55312,0.432095 z m 8.39242,-4.308831 v 5.786993 h -1.4778 v -9.620004 h 1.42782 v 1.503148 h 0.1253 c 0.22523,-0.488306 0.56767,-0.881087 1.02695,-1.177235 0.45929,-0.300928 1.05232,-0.451202 1.77872,-0.451202 0.65145,0 1.22134,0.133738 1.71002,0.400861 0.48831,0.263083 0.86823,0.663944 1.13976,1.20259 0.27152,0.534246 0.40711,1.210679 0.40711,2.029306 v 6.112536 h -1.47817 v -6.012593 c 0,-0.755429 -0.1962,-1.344416 -0.58861,-1.765853 -0.39242,-0.426225 -0.93106,-0.638959 -1.61595,-0.638959 -0.47178,0 -0.89359,0.102143 -1.26505,0.306797 -0.36744,0.204655 -0.6577,0.503012 -0.87044,0.895794 -0.2131,0.392403 -0.31966,0.868229 -0.31966,1.427821 z m 14.32527,-0.626461 c 0,-1.578105 0.20429,-3.029081 0.6136,-4.35256 0.41336,-1.327879 1.00198,-2.549207 1.76623,-3.663982 h 1.30253 c -0.30055,0.413357 -0.58237,0.922979 -0.84546,1.528133 -0.25866,0.601476 -0.48646,1.26322 -0.68267,1.985575 -0.19621,0.717954 -0.35053,1.461264 -0.46333,2.229551 -0.10876,0.768296 -0.16277,1.525933 -0.16277,2.273283 0,0.993887 0.0959,2.002113 0.28807,3.025035 0.19179,1.022912 0.45083,1.973086 0.77637,2.849764 0.32591,0.876686 0.68893,1.590962 1.08979,2.142106 h -1.30253 c -0.76425,-1.114776 -1.35287,-2.334273 -1.76622,-3.657743 -0.40932,-1.327888 -0.61361,-2.780697 -0.61361,-4.359162 z m 5.83842,6.413454 v -1.127273 l 4.23388,-4.634734 c 0.49676,-0.542686 0.90608,-1.014464 1.22757,-1.415333 0.3215,-0.4049 0.5596,-0.784824 0.71391,-1.139762 0.15874,-0.359347 0.23809,-0.734852 0.23809,-1.127633 0,-0.450841 -0.10875,-0.841044 -0.3259,-1.170996 -0.21274,-0.329952 -0.50521,-0.584578 -0.87669,-0.764247 -0.37146,-0.179308 -0.78923,-0.269332 -1.25255,-0.269332 -0.49272,0 -0.92261,0.102521 -1.29004,0.307176 -0.36339,0.200245 -0.6452,0.482065 -0.84583,0.845452 -0.1962,0.363017 -0.2943,0.789233 -0.2943,1.277547 h -1.47816 c 0,-0.751398 0.17342,-1.411293 0.51991,-1.978965 0.34648,-0.568041 0.81863,-1.010433 1.4157,-1.327888 0.60111,-0.317455 1.27533,-0.475817 2.02268,-0.475817 0.75176,0 1.41755,0.158362 1.99807,0.475817 0.58018,0.317455 1.03542,0.745141 1.36537,1.283787 0.32959,0.538655 0.49456,1.137931 0.49456,1.797466 0,0.472147 -0.0856,0.933267 -0.25683,1.384099 -0.16682,0.446792 -0.45929,0.945755 -0.87669,1.496899 -0.41335,0.547104 -0.98764,1.215079 -1.7225,2.004322 l -2.88063,3.081253 v 0.100303 h 5.96225 v 1.377859 z m 10.10207,-2.630421 v -1.277547 l 5.63671,-8.918577 h 0.92702 v 1.978974 h -0.6261 l -4.25885,6.738988 v 0.100312 h 7.59068 v 1.37785 z m 6.03758,2.630421 v -3.018793 -0.594866 -9.212886 h 1.47815 v 12.826545 z m 13.11937,-2.304878 -7.06454,-7.064531 0.95201,-0.952013 7.06454,7.06454 z m -6.11253,0 -0.95201,-0.952004 7.06454,-7.06454 0.95201,0.952013 z m 10.1976,2.304878 v -1.127273 l 4.23386,-4.634734 c 0.49676,-0.542686 0.90608,-1.014464 1.22758,-1.415333 0.3215,-0.4049 0.55959,-0.784824 0.71391,-1.139762 0.15873,-0.359347 0.2381,-0.734852 0.2381,-1.127633 0,-0.450841 -0.10876,-0.841044 -0.32591,-1.170996 -0.21274,-0.329952 -0.50521,-0.584578 -0.87668,-0.764247 -0.37147,-0.179308 -0.78924,-0.269332 -1.25257,-0.269332 -0.49272,0 -0.92261,0.102521 -1.29004,0.307176 -0.36338,0.200245 -0.64519,0.482065 -0.84581,0.845452 -0.19621,0.363017 -0.29432,0.789233 -0.29432,1.277547 h -1.47816 c 0,-0.751398 0.17343,-1.411293 0.51991,-1.978965 0.34649,-0.568041 0.81864,-1.010433 1.4157,-1.327888 0.60112,-0.317455 1.27535,-0.475817 2.0227,-0.475817 0.75175,0 1.41753,0.158362 1.99807,0.475817 0.58016,0.317455 1.03541,0.745141 1.36535,1.283787 0.32959,0.538655 0.49457,1.137931 0.49457,1.797466 0,0.472147 -0.0856,0.933267 -0.25684,1.384099 -0.16681,0.446792 -0.45929,0.945755 -0.87667,1.496899 -0.41337,0.547104 -0.98765,1.215079 -1.7225,2.004322 l -2.88064,3.081253 v 0.100303 h 5.96225 v 1.377859 z m 10.10205,-2.630421 v -1.277547 l 5.63672,-8.918577 h 0.92701 v 1.978974 h -0.62608 l -4.25886,6.738988 v 0.100312 h 7.59069 v 1.37785 z m 6.03758,2.630421 v -3.018793 -0.594866 -9.212886 h 1.47816 v 12.826545 z m 14.44726,3.808017 c -0.71391,0 -1.32789,-0.09185 -1.84118,-0.275572 -0.51367,-0.179669 -0.94173,-0.417767 -1.28416,-0.714276 -0.33803,-0.292109 -0.60736,-0.605154 -0.80798,-0.939146 l 1.17761,-0.826716 c 0.13374,0.17526 0.30277,0.375515 0.50742,0.601115 0.20428,0.22964 0.48427,0.428055 0.8392,0.594866 0.35898,0.171221 0.82855,0.256835 1.40909,0.256835 0.77674,0 1.41753,-0.187757 1.92275,-0.563632 0.50521,-0.375884 0.75764,-0.964501 0.75764,-1.766231 v -1.95398 h -0.1253 c -0.10839,0.17526 -0.26271,0.392412 -0.46333,0.651447 -0.1962,0.254626 -0.48022,0.482066 -0.8517,0.682681 -0.36742,0.196206 -0.86418,0.294309 -1.49065,0.294309 -0.77673,0 -1.47375,-0.183718 -2.09176,-0.551144 -0.61398,-0.367426 -1.10008,-0.902033 -1.45943,-1.603451 -0.35493,-0.701418 -0.5324,-1.553119 -0.5324,-2.555096 0,-0.985439 0.17342,-1.84338 0.51991,-2.574201 0.34648,-0.734853 0.82892,-1.302524 1.44693,-1.703394 0.61801,-0.405269 1.33193,-0.607724 2.14174,-0.607724 0.62646,0 1.12322,0.104352 1.49065,0.313416 0.37147,0.204285 0.65549,0.438343 0.8517,0.701418 0.20061,0.258674 0.35494,0.471777 0.4637,0.638588 h 0.15027 v -1.528133 h 1.42782 v 9.895576 c 0,0.826707 -0.18775,1.499099 -0.56363,2.016809 -0.37146,0.52174 -0.87264,0.903872 -1.50315,1.146001 -0.6261,0.246177 -1.32347,0.369635 -2.09176,0.369635 z m -0.05,-5.286179 c 0.59266,0 1.09383,-0.135586 1.50278,-0.407118 0.40931,-0.271154 0.72052,-0.661735 0.93326,-1.170987 0.21311,-0.509621 0.31966,-1.119185 0.31966,-1.828693 0,-0.69333 -0.10471,-1.305102 -0.31341,-1.8353 -0.2087,-0.530198 -0.51771,-0.945764 -0.92665,-1.246313 -0.40931,-0.300557 -0.91453,-0.450832 -1.51564,-0.450832 -0.62646,0 -1.14821,0.158723 -1.56598,0.475809 -0.41336,0.317464 -0.7242,0.74331 -0.93326,1.277925 -0.20429,0.534238 -0.30681,1.127265 -0.30681,1.778711 0,0.667986 0.10435,1.258812 0.31305,1.772112 0.21311,0.509613 0.52615,0.910482 0.93952,1.202591 0.41776,0.28806 0.93547,0.432095 1.55348,0.432095 z m 6.91425,1.478162 v -9.620004 h 1.42783 v 1.453185 h 0.10031 c 0.17526,-0.476186 0.49272,-0.862358 0.952,-1.158867 0.45929,-0.296518 0.97699,-0.444592 1.55312,-0.444592 0.10839,0 0.24434,0.0026 0.40711,0.0062 0.16277,0.0044 0.28585,0.01065 0.36964,0.01875 v 1.503148 c -0.0503,-0.0125 -0.16498,-0.03124 -0.34465,-0.05615 -0.17526,-0.02939 -0.36119,-0.04409 -0.5574,-0.04409 -0.46773,0 -0.88512,0.09809 -1.25255,0.29467 -0.36339,0.191797 -0.65145,0.459289 -0.8642,0.80136 -0.2087,0.338401 -0.31341,0.724573 -0.31341,1.158877 v 6.087541 z m 6.56189,0 v -9.620004 h 1.47817 v 9.620004 z m 0.75176,-11.223086 c -0.28843,0 -0.53681,-0.0981 -0.7455,-0.294678 -0.20466,-0.196206 -0.30681,-0.432095 -0.30681,-0.707667 0,-0.275571 0.10215,-0.51146 0.30681,-0.707666 0.20869,-0.196206 0.45707,-0.294309 0.7455,-0.294309 0.28807,0 0.53425,0.0981 0.7389,0.294309 0.2087,0.196206 0.31305,0.432095 0.31305,0.707666 0,0.275572 -0.10435,0.511461 -0.31305,0.707667 -0.20465,0.196576 -0.45083,0.294678 -0.7389,0.294678 z m 7.06601,11.423331 c -0.80172,0 -1.5094,-0.202454 -2.12299,-0.607354 -0.61398,-0.409318 -1.09421,-0.985448 -1.44069,-1.728388 -0.34649,-0.74771 -0.51992,-1.630646 -0.51992,-2.64952 0,-1.010425 0.17343,-1.887111 0.51992,-2.630412 0.34648,-0.74331 0.82891,-1.317239 1.44693,-1.72214 0.61801,-0.405269 1.33192,-0.607724 2.14173,-0.607724 0.62647,0 1.12103,0.104352 1.48441,0.313416 0.36743,0.204285 0.64704,0.438343 0.83921,0.701418 0.1962,0.258674 0.34869,0.471777 0.45708,0.638588 h 0.12529 v -4.734674 h 1.47816 v 12.826545 h -1.42782 V 94.22867 h -0.17563 c -0.10839,0.175629 -0.26271,0.396812 -0.46333,0.663935 -0.20025,0.263083 -0.48647,0.498972 -0.85794,0.707666 -0.37184,0.204664 -0.8664,0.306806 -1.48441,0.306806 z m 0.20061,-1.327518 c 0.59267,0 1.09383,-0.154692 1.50279,-0.46369 0.40931,-0.313054 0.72053,-0.745149 0.93326,-1.296293 0.21311,-0.555183 0.31966,-1.196342 0.31966,-1.922747 0,-0.717955 -0.10472,-1.346625 -0.31341,-1.885271 -0.20871,-0.542695 -0.51771,-0.964493 -0.92665,-1.26505 -0.40932,-0.304606 -0.91453,-0.457081 -1.51565,-0.457081 -0.62646,0 -1.14821,0.160563 -1.56597,0.482066 -0.41336,0.317446 -0.72421,0.74955 -0.93327,1.296645 -0.20429,0.542695 -0.30681,1.152259 -0.30681,1.828691 0,0.684883 0.10435,1.306944 0.31306,1.866536 0.21311,0.555184 0.52616,0.997936 0.93951,1.327519 0.41776,0.325904 0.93547,0.488675 1.55348,0.488675 z m 10.27733,-4.283845 c 0,1.578107 -0.2065,3.031283 -0.61985,4.358802 -0.40932,1.323839 -0.9961,2.542967 -1.75998,3.657742 h -1.30291 c 0.30093,-0.413357 0.58054,-0.922609 0.83921,-1.528133 0.26308,-0.601476 0.49272,-1.261011 0.68894,-1.979335 0.19656,-0.721994 0.34868,-1.467504 0.45744,-2.235791 0.1128,-0.772344 0.16902,-1.530343 0.16902,-2.273285 0,-0.993887 -0.0959,-2.002111 -0.28807,-3.025033 -0.19217,-1.022921 -0.45083,-1.973086 -0.77674,-2.849773 -0.32554,-0.876677 -0.68893,-1.590584 -1.0898,-2.141727 h 1.30291 c 0.76388,1.114775 1.35066,2.335742 1.75998,3.663621 0.41335,1.32347 0.61985,2.774447 0.61985,4.352912 z"
       fill="#000000"
       id="path1443"
       style="display:inline;stroke-width:0.367428"
       transform="translate(1.827499,-0.66998035)" />
    <path
       d="m 101.94781,99.213931 h 129.4371 v 1.202589 h -129.4371 z"
       fill="#000000"
       id="path1445"
       style="display:inline;stroke-width:0.367428"
       transform="translate(1.827499,-0.66998035)" />
    <a
       href="https://material.io/design/iconography/system-icons.html"
       id="a1449"
       transform="matrix(0.3674278,0,0,0.3674278,21.68974,21.183862)"
       style="display:inline;fill:none">
      <rect
         fill="#000000"
         fill-opacity="0"
         x="223.40601"
         y="-5.0454602"
         width="352.27802"
         height="58.0909"
         id="rect1447" />
    </a>
    <text
       fill="#000000"
       xml:space="preserve"
       style="white-space:pre;display:inline"
       font-family="Inter"
       font-size="12px"
       font-weight="500"
       letter-spacing="0em"
       id="text18"
       x="-83.827499"
       y="122.66998"
       transform="translate(1.827499,-0.66998035)"><tspan
         x="60.172501"
         y="155.03358"
         id="tspan16">Discord</tspan></text>
    <text
       fill="#000000"
       xml:space="preserve"
       style="white-space:pre;display:inline"
       font-family="Inter"
       font-size="12px"
       font-weight="500"
       letter-spacing="0em"
       id="text46"
       x="-83.827499"
       y="122.66998"
       transform="translate(1.827499,-0.66998035)"><tspan
         x="60.172501"
         y="191.03358"
         id="tspan44">Dribbble</tspan></text>
    <text
       fill="#000000"
       xml:space="preserve"
       style="white-space:pre;display:inline"
       font-family="Inter"
       font-size="12px"
       font-weight="500"
       letter-spacing="0em"
       id="text74"
       x="-83.827499"
       y="122.66998"
       transform="translate(1.827499,-0.66998035)"><tspan
         x="60.172501"
         y="227.034"
         id="tspan72">Facebook</tspan></text>
    <text
       fill="#000000"
       xml:space="preserve"
       style="white-space:pre;display:inline"
       font-family="Inter"
       font-size="12px"
       font-weight="500"
       letter-spacing="0em"
       id="text102"
       x="-83.827499"
       y="122.66998"
       transform="translate(1.827499,-0.66998035)"><tspan
         x="60.172501"
         y="263.034"
         id="tspan100">GitHub</tspan></text>
    <text
       fill="#000000"
       xml:space="preserve"
       style="white-space:pre;display:inline"
       font-family="Inter"
       font-size="12px"
       font-weight="500"
       letter-spacing="0em"
       id="text130"
       x="-83.827499"
       y="122.66998"
       transform="translate(1.827499,-0.66998035)"><tspan
         x="60.172501"
         y="299.034"
         id="tspan128">GitLab</tspan></text>
    <text
       fill="#000000"
       xml:space="preserve"
       style="white-space:pre;display:inline"
       font-family="Inter"
       font-size="12px"
       font-weight="500"
       letter-spacing="0em"
       id="text158"
       x="-83.827499"
       y="122.66998"
       transform="translate(1.827499,-0.66998035)"><tspan
         x="60.172501"
         y="335.034"
         id="tspan156">Glassdoor</tspan></text>
    <text
       fill="#000000"
       xml:space="preserve"
       style="white-space:pre;display:inline"
       font-family="Inter"
       font-size="12px"
       font-weight="500"
       letter-spacing="0em"
       id="text190"
       x="-83.827499"
       y="122.66998"
       transform="translate(1.827499,-0.66998035)"><tspan
         x="60.172501"
         y="371.034"
         id="tspan188">Instagram</tspan></text>
    <text
       fill="#000000"
       xml:space="preserve"
       style="white-space:pre;display:inline"
       font-family="Inter"
       font-size="12px"
       font-weight="500"
       letter-spacing="0em"
       id="text218"
       x="65.860565"
       y="-129.68428"
       transform="translate(1.827499,-0.66998035)"><tspan
         x="209.86057"
         y="154.67973"
         id="tspan216">Kult</tspan></text>
    <text
       fill="#000000"
       xml:space="preserve"
       style="white-space:pre;display:inline"
       font-family="Inter"
       font-size="12px"
       font-weight="500"
       letter-spacing="0em"
       id="text244"
       x="65.860565"
       y="-129.68428"
       transform="translate(1.827499,-0.66998035)"><tspan
         x="209.86057"
         y="190.67973"
         id="tspan242">Letterboxd (L)</tspan></text>
    <text
       fill="#000000"
       xml:space="preserve"
       style="white-space:pre;display:inline"
       font-family="Inter"
       font-size="12px"
       font-weight="500"
       letter-spacing="0em"
       id="text272"
       x="65.860565"
       y="-129.68428"
       transform="translate(1.827499,-0.66998035)"><tspan
         x="209.86057"
         y="226.67973"
         id="tspan270">LinkedIn</tspan></text>
    <text
       fill="#000000"
       xml:space="preserve"
       style="white-space:pre;display:inline"
       font-family="Inter"
       font-size="12px"
       font-weight="500"
       letter-spacing="0em"
       id="text300"
       x="65.860565"
       y="-129.68428"
       transform="translate(1.827499,-0.66998035)"><tspan
         x="209.86057"
         y="262.67972"
         id="tspan298">Mastodon</tspan></text>
    <text
       fill="#000000"
       xml:space="preserve"
       style="white-space:pre;display:inline"
       font-family="Inter"
       font-size="12px"
       font-weight="500"
       letter-spacing="0em"
       id="text328"
       x="65.463921"
       y="-129.01398"
       transform="translate(1.827499,-0.66998035)"><tspan
         x="209.46393"
         y="299.35001"
         id="tspan326">npm</tspan></text>
    <text
       fill="#000000"
       xml:space="preserve"
       style="white-space:pre;display:inline"
       font-family="Inter"
       font-size="12px"
       font-weight="500"
       letter-spacing="0em"
       id="text356"
       x="65.463921"
       y="-129.01398"
       transform="translate(1.827499,-0.66998035)"><tspan
         x="209.46393"
         y="335.35001"
         id="tspan354">Pinterest</tspan></text>
    <text
       fill="#000000"
       xml:space="preserve"
       style="white-space:pre;display:inline"
       font-family="Inter"
       font-size="12px"
       font-weight="500"
       letter-spacing="0em"
       id="text384"
       x="65.463921"
       y="-129.01398"
       transform="translate(1.827499,-0.66998035)"><tspan
         x="209.46393"
         y="371.35001"
         id="tspan382">Snapchat</tspan></text>
    <text
       fill="#000000"
       xml:space="preserve"
       style="white-space:pre;display:inline"
       font-family="Inter"
       font-size="12px"
       font-weight="500"
       letter-spacing="0em"
       id="text412"
       x="228.56358"
       y="-381.93738"
       transform="translate(1.827499,-0.66998035)"><tspan
         x="372.5636"
         y="154.42659"
         id="tspan410">Telegram</tspan></text>
    <text
       fill="#000000"
       xml:space="preserve"
       style="white-space:pre;display:inline"
       font-family="Inter"
       font-size="12px"
       font-weight="500"
       letter-spacing="0em"
       id="text440"
       x="228.56358"
       y="-381.93738"
       transform="translate(1.827499,-0.66998035)"><tspan
         x="372.5636"
         y="190.42659"
         id="tspan438">Tripadvisor</tspan></text>
    <text
       fill="#000000"
       xml:space="preserve"
       style="white-space:pre;display:inline"
       font-family="Inter"
       font-size="12px"
       font-weight="500"
       letter-spacing="0em"
       id="text476"
       x="228.56358"
       y="-381.93738"
       transform="translate(1.827499,-0.66998035)"><tspan
         x="372.5636"
         y="226.42659"
         id="tspan474">Twitch</tspan></text>
    <text
       fill="#000000"
       xml:space="preserve"
       style="white-space:pre;display:inline"
       font-family="Inter"
       font-size="12px"
       font-weight="500"
       letter-spacing="0em"
       id="text504"
       x="228.56358"
       y="-381.93738"
       transform="translate(1.827499,-0.66998035)"><tspan
         x="372.5636"
         y="262.42661"
         id="tspan502">Twitter</tspan></text>
    <text
       fill="#000000"
       xml:space="preserve"
       style="white-space:pre;display:inline"
       font-family="Inter"
       font-size="12px"
       font-weight="500"
       letter-spacing="0em"
       id="text532"
       x="228.56358"
       y="-381.93738"
       transform="translate(1.827499,-0.66998035)"><tspan
         x="372.5636"
         y="298.42661"
         id="tspan530">WhatsApp</tspan></text>
    <text
       fill="#000000"
       xml:space="preserve"
       style="white-space:pre;display:inline"
       font-family="Inter"
       font-size="12px"
       font-weight="500"
       letter-spacing="0em"
       id="text576"
       x="228.56358"
       y="-381.93738"
       transform="translate(1.827499,-0.66998035)"><tspan
         x="372.5636"
         y="334.42661"
         id="tspan574">Yelp</tspan></text>
    <text
       fill="#000000"
       xml:space="preserve"
       style="white-space:pre;display:inline"
       font-family="Inter"
       font-size="12px"
       font-weight="500"
       letter-spacing="0em"
       id="text604"
       x="228.56358"
       y="-381.93738"
       transform="translate(1.827499,-0.66998035)"><tspan
         x="372.5636"
         y="370.42661"
         id="tspan602">YouTube</tspan></text>
  </g>
  <g
     inkscape:groupmode="layer"
     id="layer2"
     inkscape:label="other"
     style="display:inline"
     transform="translate(1.827499,-0.66998035)">
    <path
       d="m 37.103301,144.31148 c -1.2747,-0.5849 -2.6416,-1.0159 -4.0709,-1.2627 -0.026,-0.005 -0.052,0.007 -0.0654,0.031 -0.1758,0.3126 -0.3706,0.7206 -0.5069,1.0412 -1.5373,-0.2302 -3.0666,-0.2302 -4.5723,0 -0.1364,-0.3278 -0.3382,-0.7286 -0.5148,-1.0412 -0.0134,-0.0231 -0.0394,-0.035 -0.0655,-0.031 -1.4284,0.246 -2.7954,0.677 -4.0709,1.2627 -0.011,0.005 -0.0205,0.0127 -0.0268,0.023 -2.5928,3.8736 -3.3031,7.652 -2.9546,11.3836 0.0015,0.0183 0.0118,0.0357 0.026,0.0468 1.7106,1.2563 3.3677,2.019 4.994,2.5245 0.0261,0.008 0.0536,-0.002 0.0702,-0.023 0.3847,-0.5254 0.7276,-1.0793 1.0217,-1.6618 0.0173,-0.0342 8e-4,-0.0746 -0.0347,-0.0881 -0.544,-0.2064 -1.0619,-0.4579 -1.5601,-0.7436 -0.0394,-0.0231 -0.0426,-0.0794 -0.0063,-0.1064 0.1048,-0.0786 0.2097,-0.1603 0.3098,-0.2428 0.0181,-0.0151 0.0433,-0.0183 0.0646,-0.009 3.2732,1.4944 6.8167,1.4944 10.0512,0 0.0213,-0.0103 0.0466,-0.007 0.0655,0.008 0.1001,0.0825 0.205,0.165 0.3106,0.2436 0.0362,0.027 0.0339,0.0833 -0.0055,0.1064 -0.4983,0.2912 -1.0162,0.5372 -1.5609,0.7428 -0.0355,0.0135 -0.0513,0.0547 -0.0339,0.0889 0.3003,0.5817 0.6432,1.1356 1.0208,1.661 0.0158,0.0222 0.0442,0.0317 0.0702,0.0238 1.6342,-0.5055 3.2913,-1.2682 5.002,-2.5245 0.0149,-0.0111 0.0244,-0.0278 0.026,-0.046 0.417,-4.3141 -0.6985,-8.0616 -2.9571,-11.3836 -0.0055,-0.0111 -0.0149,-0.0191 -0.026,-0.0238 z m -10.2474,9.1345 c -0.9855,0 -1.7975,-0.9047 -1.7975,-2.0158 0,-1.1111 0.7963,-2.0158 1.7975,-2.0158 1.009,0 1.8131,0.9127 1.7973,2.0158 0,1.1111 -0.7962,2.0158 -1.7973,2.0158 z m 6.6456,0 c -0.9855,0 -1.7974,-0.9047 -1.7974,-2.0158 0,-1.1111 0.7962,-2.0158 1.7974,-2.0158 1.009,0 1.8131,0.9127 1.7974,2.0158 0,1.1111 -0.7884,2.0158 -1.7974,2.0158 z"
       fill="#000000"
       id="path6" />
    <path
       fill-rule="evenodd"
       clip-rule="evenodd"
       d="m 30.172501,176.66998 c -5.5206,0 -10,4.4794 -10,10 0,5.5206 4.4794,10 10,10 5.5098,0 10,-4.4794 10,-10 0,-5.5206 -4.4902,-10 -10,-10 z m 6.6052,4.6095 c 1.1931,1.4534 1.9089,3.3081 1.9306,5.3146 -0.282,-0.0543 -3.102,-0.6291 -5.9436,-0.2712 -0.0651,-0.141 -0.1193,-0.2928 -0.1844,-0.4447 -0.1735,-0.4121 -0.3688,-0.8351 -0.564,-1.2364 3.1454,-1.2798 4.577,-3.1236 4.7614,-3.3623 z m -6.6052,-3.1344 c 2.1692,0 4.154,0.8134 5.6616,2.1475 -0.1518,0.2169 -1.4425,1.9414 -4.4794,3.0802 -1.3991,-2.5705 -2.9501,-4.6746 -3.1887,-5 0.6399,-0.1518 1.3124,-0.2277 2.0065,-0.2277 z m -3.6334,0.8026 c 0.2278,0.3036 1.7462,2.4186 3.167,4.9349 -3.9913,1.0629 -7.5162,1.0412 -7.8959,1.0412 0.5532,-2.6464 2.3428,-4.8482 4.7289,-5.9761 z m -4.9132,7.7331 c 0,-0.0867 0,-0.1735 0,-0.2603 0.3687,0.0109 4.5119,0.0651 8.7744,-1.2147 0.2494,0.4772 0.4772,0.9653 0.6941,1.4534 -0.1085,0.0325 -0.2278,0.065 -0.3362,0.0976 -4.4035,1.4208 -6.7462,5.3037 -6.9414,5.629 -1.3558,-1.5076 -2.1909,-3.5141 -2.1909,-5.705 z m 8.5466,8.5358 c -1.974,0 -3.7961,-0.6724 -5.2386,-1.8004 0.1518,-0.3145 1.8872,-3.6551 6.7028,-5.3362 0.0217,-0.0109 0.0325,-0.0109 0.0542,-0.0217 1.2039,3.1128 1.692,5.7267 1.8222,6.475 -1.0304,0.4447 -2.1584,0.6833 -3.3406,0.6833 z m 4.7614,-1.4642 c -0.0868,-0.5206 -0.5423,-3.0152 -1.6594,-6.0846 2.6789,-0.423 5.0216,0.2712 5.3145,0.3688 -0.3688,2.3753 -1.7354,4.4252 -3.6551,5.7158 z"
       fill="#000000"
       id="path34" />
    <path
       d="m 40.172501,222.73098 c 0,-5.557 -4.4767,-10.061 -10,-10.061 -5.5233,0 -10,4.504 -10,10.061 0,5.022 3.656,9.184 8.4373,9.939 v -7.031 h -2.5386 v -2.909 h 2.5386 v -2.216 c 0,-2.5213 1.4927,-3.9147 3.7774,-3.9147 1.0933,0 2.2386,0.1967 2.2386,0.1967 v 2.476 h -1.262 c -1.242,0 -1.6286,0.776 -1.6286,1.572 v 1.887 h 2.7733 l -0.4433,2.908 h -2.33 v 7.031 c 4.7813,-0.755 8.4373,-4.917 8.4373,-9.939 z"
       fill="#000000"
       id="path62" />
    <path
       fill-rule="evenodd"
       clip-rule="evenodd"
       d="m 30.172501,248.91698 c -5.525,0 -10,4.475 -10,10 0,4.425 2.8625,8.162 6.8375,9.487 0.5,0.088 0.6875,-0.212 0.6875,-0.475 0,-0.237 -0.0125,-1.025 -0.0125,-1.862 -2.5125,0.462 -3.1625,-0.613 -3.3625,-1.175 -0.1125,-0.288 -0.6,-1.175 -1.025,-1.413 -0.35,-0.187 -0.85,-0.65 -0.0125,-0.662 0.7875,-0.013 1.35,0.725 1.5375,1.025 0.9,1.512 2.3375,1.087 2.9125,0.825 0.0875,-0.65 0.35,-1.088 0.6375,-1.338 -2.225,-0.25 -4.55,-1.112 -4.55,-4.937 0,-1.088 0.3875,-1.988 1.025,-2.688 -0.1,-0.25 -0.45,-1.275 0.1,-2.65 0,0 0.8375,-0.262 2.75,1.025 0.8,-0.225 1.65,-0.337 2.5,-0.337 0.85,0 1.7,0.112 2.5,0.337 1.9125,-1.3 2.75,-1.025 2.75,-1.025 0.55,1.375 0.2,2.4 0.1,2.65 0.6375,0.7 1.025,1.588 1.025,2.688 0,3.837 -2.3375,4.687 -4.5625,4.937 0.3625,0.313 0.675,0.913 0.675,1.85 0,1.338 -0.0125,2.413 -0.0125,2.75 0,0.263 0.1875,0.575 0.6875,0.475 1.9852,-0.67 3.7102,-1.946 4.9323,-3.648 1.2221,-1.702 1.8797,-3.744 1.8802,-5.839 0,-5.525 -4.475,-10 -10,-10 z"
       fill="#000000"
       id="path90" />
    <path
       d="m 40.113401,295.78298 -1.065,-3.28 c 5e-4,0.001 7e-4,0.003 0.0012,0.004 -6e-4,-10e-4 -9e-4,-0.003 -0.0013,-0.005 -1e-4,0 -1e-4,0 -1e-4,0 0,0 0,0 0,0 l -2.1141,-6.509 c -0.1156,-0.343 -0.4338,-0.573 -0.7986,-0.57 -0.3659,0.002 -0.6754,0.228 -0.7886,0.575 l -2.0066,6.178 h -6.3318 l -2.0105,-6.178 c -0.113,-0.348 -0.4226,-0.573 -0.7884,-0.575 -0.0015,0 -0.0029,0 -0.0044,0 -0.3602,0 -0.6791,0.229 -0.796,0.575 l -2.1083,6.503 -3e-4,10e-4 c 0,0 0,0 0,0 -5e-4,0.002 -7e-4,0.003 -0.0013,0.005 5e-4,-10e-4 7e-4,-0.003 0.0012,-0.004 l -1.0689,3.28 c -0.1608,0.495 0.0137,1.033 0.4343,1.339 l 9.229,6.705 c 0.0013,0.001 0.0029,0.002 0.0042,0.003 0.004,0.003 0.0078,0.006 0.0118,0.008 -0.0037,-0.002 -0.0073,-0.005 -0.011,-0.008 0,0 0,0 -10e-5,0 6e-4,0.001 0.0013,0.001 0.002,0.002 5e-4,0 0.0011,0 0.0016,0 0,0.001 10e-5,0.001 2e-4,0.001 0.0143,0.01 0.0291,0.019 0.0445,0.027 0.0021,10e-4 0.004,0.003 0.0061,0.004 10e-5,0 0,0 10e-5,0 0.0013,0 0.0025,10e-4 0.0038,0.002 0.001,0 0.0021,0.001 0.003,0.001 7e-4,0 0.0015,10e-4 0.0022,10e-4 0.0017,0.001 0.0036,0.001 0.0053,0.002 0.008,0.004 0.0164,0.007 0.0247,0.011 0.0077,0.003 0.0152,0.006 0.0231,0.009 4e-4,0 7e-4,0.001 0.001,0.001 0.0013,0 0.0025,10e-4 0.0039,10e-4 0.0016,0.001 0.0032,0.002 0.0049,0.002 6e-4,0 0.0013,0 0.0019,10e-4 0.0021,0 0.0043,0 0.0064,0.001 8e-4,0 0.0016,0 0.0025,10e-4 0.0111,0.003 0.0226,0.005 0.034,0.008 0.0045,10e-4 0.0088,0.002 0.0134,0.003 6e-4,0 0.0012,10e-4 0.0019,10e-4 0.0015,0 0.0028,0.001 0.0044,0.001 0.0024,0 0.0047,10e-4 0.0072,10e-4 0.002,0.001 0.004,0 0.0059,0.001 4e-4,0 7e-4,0 10e-4,0 1e-4,0 2e-4,0 3e-4,0 0.0218,0.003 0.0439,0.005 0.0663,0.005 2e-4,0 3e-4,0 5e-4,0 0,0 1e-4,0 1e-4,0 v 0 c 10e-5,0 10e-5,0 2e-4,0 0.0225,0 0.0446,-0.002 0.0664,-0.005 10e-5,0 2e-4,0 3e-4,0 3e-4,0 7e-4,0 0.001,0 0.002,-0.001 0.0041,0 0.006,-0.001 0.0025,0 0.0048,-10e-4 0.0073,-10e-4 0.0015,0 0.0028,-0.001 0.0043,-0.001 7e-4,0 0.0013,-10e-4 0.0019,-10e-4 0.0046,-0.001 0.009,-0.002 0.0136,-0.003 0.0113,-0.003 0.0226,-0.005 0.0337,-0.008 7e-4,-10e-4 0.0015,-10e-4 0.0023,-10e-4 0.0022,0 0.0044,-0.001 0.0066,-0.001 6e-4,-10e-4 0.0013,-10e-4 0.002,-10e-4 0.0017,0 0.0034,-10e-4 0.005,-0.002 0.0013,0 0.0025,-10e-4 0.0038,-10e-4 3e-4,0 6e-4,-0.001 10e-4,-0.001 0.0084,-0.003 0.0163,-0.007 0.0245,-0.01 0.0076,-0.003 0.0154,-0.006 0.0228,-0.009 0.0018,-10e-4 0.0038,-0.002 0.0056,-0.003 7e-4,0 0.0015,0 0.0022,-10e-4 10e-4,0 0.0021,-0.001 0.0031,-0.001 0.0013,-10e-4 0.0026,-0.002 0.0039,-0.002 0,0 10e-5,0 10e-5,0 0.0022,-0.001 0.0041,-0.003 0.0063,-0.004 0.0152,-0.008 0.03,-0.017 0.0442,-0.027 0.0011,-0.001 0.0024,-0.002 0.0036,-0.002 3e-4,-0.001 6e-4,-0.001 9e-4,-0.001 0.0014,-10e-4 0.003,-0.002 0.0043,-0.003 l 9.2304,-6.705 c 0.4204,-0.306 0.5949,-0.844 0.4341,-1.339 z m -3.9721,-9.18 1.8102,5.573 h -3.6204 z m 1.4932,6.515 -0.7387,0.947 -5.4479,6.98 2.577,-7.927 z m -7.9107,10.474 c 5e-4,0.001 0.0012,0.002 0.0017,0.004 -5e-4,-0.002 -0.0012,-0.003 -0.0017,-0.004 z m -0.8265,-2.546 -6.1833,-7.928 h 3.6098 z m -4.6934,-14.443 1.8136,5.573 h -3.6205 z m -2.9839,9.756 c -0.0894,-0.065 -0.1265,-0.179 -0.0922,-0.285 l 0.7946,-2.438 5.8218,7.464 z m 8.6587,7.456 c -0.0019,-0.002 -0.0036,-0.003 -0.0054,-0.005 -4e-4,0 -7e-4,0 -0.0011,-10e-4 -0.0036,-0.003 -0.007,-0.006 -0.0105,-0.009 -0.0067,-0.006 -0.0133,-0.012 -0.0196,-0.018 5e-4,0.001 0.0011,0.001 0.0016,0.002 7e-4,0 0.0015,0.001 0.0022,0.001 0.0135,0.013 0.0278,0.025 0.0426,0.037 2e-4,0 3e-4,0 5e-4,0 7e-4,10e-4 0.0013,10e-4 0.002,0.002 -0.0041,-0.003 -0.0083,-0.006 -0.0123,-0.009 z m 0.2935,-1.894 -1.5143,-4.665 -1.3433,-4.138 h 5.7194 z m 0.3099,1.879 c -0.0035,0.003 -0.0069,0.006 -0.0105,0.009 -4e-4,10e-4 -8e-4,10e-4 -0.0013,10e-4 -0.0018,0.002 -0.0035,0.004 -0.0053,0.005 -0.0039,0.003 -0.0081,0.006 -0.0122,0.009 7e-4,-0.001 0.0013,-0.001 0.0021,-0.002 10e-5,0 2e-4,0 3e-4,0 0.0149,-0.011 0.0291,-0.023 0.0425,-0.036 5e-4,-10e-4 0.0011,-10e-4 0.0017,-0.002 7e-4,0 0.0015,-10e-4 0.0021,-0.002 -0.0063,0.007 -0.0128,0.012 -0.0194,0.018 z m 8.6431,-7.441 -6.5232,4.739 5.8238,-7.462 0.7913,2.438 c 0.0344,0.106 -0.0026,0.22 -0.0919,0.285 z"
       fill="#000000"
       id="path118" />
    <path
       d="m 34.430401,337.81398 h -11.3516 c 0,1.579 1.2685,2.856 2.8386,2.856 h 8.513 c 1.5673,0 2.8358,-1.28 2.8358,-2.856 v -11.732 c 0,-0.056 -0.0451,-0.107 -0.1015,-0.107 h -2.6328 c -0.0564,0 -0.1015,0.048 -0.1015,0.104 v 11.733 z m 0,-17.144 c 1.5673,0 2.8358,1.28 2.8358,2.858 h -11.3488 v 11.733 c 0,0.056 -0.0479,0.104 -0.1043,0.104 h -2.63 c -0.0564,0 -0.1043,-0.048 -0.1043,-0.104 v -11.733 c 0,-1.578 1.2685,-2.858 2.8386,-2.858 z"
       fill="#000000"
       id="path146" />
    <g
       id="g2234">
      <path
         fill-rule="evenodd"
         clip-rule="evenodd"
         d="m 30.172501,357.66998 c -2.4444,0 -2.7504,0.01 -3.7104,0.054 -0.9582,0.044 -1.6128,0.196 -2.1852,0.419 -0.6,0.225 -1.1442,0.579 -1.5942,1.038 -0.4577,0.449 -0.8119,0.993 -1.038,1.593 -0.2214,0.573 -0.3744,1.228 -0.4182,2.186 -0.0432,0.96 -0.054,1.265 -0.054,3.71 0,2.445 0.0102,2.75 0.054,3.71 0.0438,0.959 0.1962,1.613 0.4188,2.186 0.2256,0.6 0.5796,1.144 1.038,1.594 0.4495,0.457 0.9933,0.812 1.5936,1.038 0.5724,0.222 1.227,0.374 2.1852,0.418 0.96,0.044 1.266,0.054 3.7104,0.054 2.4444,0 2.7504,-0.01 3.7104,-0.054 0.9582,-0.044 1.6128,-0.196 2.1852,-0.419 0.6,-0.225 1.1442,-0.579 1.5942,-1.038 0.4577,-0.449 0.8119,-0.993 1.038,-1.593 0.222,-0.573 0.3744,-1.227 0.4182,-2.186 0.0438,-0.96 0.054,-1.266 0.054,-3.71 0,-2.444 -0.0102,-2.75 -0.054,-3.71 -0.0438,-0.959 -0.1962,-1.613 -0.4188,-2.186 -0.226,-0.6 -0.5802,-1.144 -1.038,-1.594 -0.4495,-0.457 -0.9933,-0.812 -1.5936,-1.038 -0.5724,-0.221 -1.2276,-0.374 -2.1858,-0.418 -0.9594,-0.043 -1.2648,-0.054 -3.7098,-0.054 z m 0,1.622 c 2.403,0 2.688,0.009 3.6372,0.052 0.8772,0.04 1.3536,0.186 1.671,0.31 0.42,0.163 0.72,0.358 1.035,0.673 0.315,0.315 0.51,0.615 0.6726,1.035 0.1236,0.317 0.27,0.794 0.3102,1.671 0.0432,0.949 0.0522,1.234 0.0522,3.637 0,2.403 -0.009,2.688 -0.0522,3.637 -0.0402,0.877 -0.186,1.354 -0.3102,1.671 -0.144,0.391 -0.3739,0.745 -0.6726,1.035 -0.2904,0.299 -0.644,0.529 -1.035,0.673 -0.3174,0.123 -0.7938,0.27 -1.671,0.31 -0.9492,0.043 -1.2336,0.052 -3.6372,0.052 -2.4036,0 -2.688,-0.009 -3.6372,-0.052 -0.8772,-0.04 -1.3536,-0.186 -1.671,-0.31 -0.3909,-0.144 -0.7446,-0.374 -1.035,-0.673 -0.2987,-0.29 -0.5285,-0.644 -0.6726,-1.035 -0.1236,-0.317 -0.27,-0.794 -0.3102,-1.671 -0.0432,-0.949 -0.0522,-1.234 -0.0522,-3.637 0,-2.403 0.009,-2.688 0.0522,-3.637 0.0402,-0.877 0.186,-1.354 0.3102,-1.671 0.1626,-0.42 0.3582,-0.72 0.6726,-1.035 0.2904,-0.299 0.644,-0.529 1.035,-0.673 0.3174,-0.123 0.7938,-0.27 1.671,-0.31 0.9492,-0.043 1.2342,-0.052 3.6372,-0.052 z"
         fill="#000000"
         id="path174" />
      <path
         fill-rule="evenodd"
         clip-rule="evenodd"
         d="m 30.172501,369.67298 c -0.3944,0 -0.7849,-0.078 -1.1492,-0.229 -0.3643,-0.151 -0.6954,-0.372 -0.9742,-0.651 -0.2789,-0.278 -0.5001,-0.609 -0.651,-0.974 -0.1509,-0.364 -0.2286,-0.755 -0.2286,-1.149 0,-0.394 0.0777,-0.785 0.2286,-1.149 0.1509,-0.365 0.3721,-0.696 0.651,-0.974 0.2788,-0.279 0.6099,-0.5 0.9742,-0.651 0.3643,-0.151 0.7548,-0.229 1.1492,-0.229 0.7964,0 1.5603,0.316 2.1234,0.88 0.5632,0.563 0.8796,1.327 0.8796,2.123 0,0.796 -0.3164,1.56 -0.8796,2.123 -0.5631,0.564 -1.327,0.88 -2.1234,0.88 z m 0,-7.629 c -1.2269,0 -2.4035,0.487 -3.2711,1.355 -0.8675,0.867 -1.3549,2.044 -1.3549,3.271 0,1.227 0.4874,2.404 1.3549,3.271 0.8676,0.868 2.0442,1.355 3.2711,1.355 1.2269,0 2.4035,-0.487 3.2711,-1.355 0.8675,-0.867 1.3549,-2.044 1.3549,-3.271 0,-1.227 -0.4874,-2.404 -1.3549,-3.271 -0.8676,-0.868 -2.0442,-1.355 -3.2711,-1.355 z m 5.9718,-0.084 c 0,0.29 -0.1152,0.568 -0.3203,0.773 -0.2051,0.205 -0.4832,0.321 -0.7732,0.321 -0.29,0 -0.5682,-0.116 -0.7732,-0.321 -0.2051,-0.205 -0.3203,-0.483 -0.3203,-0.773 0,-0.29 0.1152,-0.568 0.3203,-0.773 0.205,-0.205 0.4832,-0.32 0.7732,-0.32 0.29,0 0.5681,0.115 0.7732,0.32 0.2051,0.205 0.3203,0.483 0.3203,0.773"
         fill="#000000"
         id="path176" />
    </g>
    <path
       d="m 188.99647,154.54471 -1.1953,-10.201 c -0.0117,-0.117 -0.0937,-0.217 -0.1992,-0.258 l -9.8316,-3.749 c -0.123,-0.047 -0.2636,-0.012 -0.3515,0.087 l -6.6208,7.647 c -0.0878,0.099 -0.0996,0.246 -0.0351,0.363 l 6.609,11.724 c 0.0586,0.099 0.1641,0.158 0.2754,0.158 0.0469,0 0.0938,-0.012 0.1406,-0.035 l 11.0327,-5.426 c 0.123,-0.047 0.1933,-0.175 0.1758,-0.31 z m -0.8555,-0.727 c 0.006,0.03 -0.006,0.059 -0.0293,0.076 -0.0234,0.018 -0.0527,0.024 -0.082,0.012 l -9.3159,-3.55 c -0.0293,-0.012 -0.0528,-0.041 -0.0528,-0.071 0,-0.029 0.0117,-0.064 0.041,-0.082 l 8.3082,-5.068 c 0.0235,-0.017 0.0528,-0.017 0.0821,-0.006 0.0292,0.012 0.041,0.035 0.0468,0.065 z m -1.7284,-9.216 -8.2203,5.015 c -0.0293,0.018 -0.0586,0.018 -0.0879,0 -0.0293,-0.017 -0.041,-0.041 -0.041,-0.076 v -8.15 c 0,-0.029 0.0117,-0.053 0.0352,-0.07 0.0117,-0.012 0.0293,-0.018 0.0468,-0.018 0.0117,0 0.0235,0 0.0293,0.006 l 8.2203,3.141 c 0.0293,0.011 0.0528,0.041 0.0528,0.07 0.006,0.029 -0.006,0.064 -0.0352,0.082 z m -8.3492,6.457 c 0,-0.03 0.0117,-0.053 0.0352,-0.071 0.0117,-0.011 0.0293,-0.017 0.0468,-0.017 0.0117,0 0.0235,0 0.0293,0.006 l 9.2925,3.539 c 0.0352,0.011 0.0528,0.041 0.0528,0.076 0,0.035 -0.0176,0.064 -0.0469,0.082 l -9.2925,4.57 c -0.0293,0.012 -0.0586,0.012 -0.082,-0.006 -0.0235,-0.018 -0.0411,-0.041 -0.0411,-0.07 v -8.109 z m -0.7675,-9.094 v 16.166 c 0,0.046 -0.0352,0.076 -0.0645,0.082 -0.0293,0.005 -0.0703,0 -0.0937,-0.041 l -5.5193,-9.791 c -0.0176,-0.029 -0.0117,-0.07 0.0117,-0.1 l 5.5193,-6.374 c 0.0176,-0.024 0.041,-0.03 0.0644,-0.03 0.0118,0 0.0235,0 0.0293,0.006 0.0235,0.012 0.0528,0.041 0.0528,0.082 z"
       fill="#000000"
       id="path206" />
    <path
       fill-rule="evenodd"
       clip-rule="evenodd"
       d="m 179.86057,196.31571 c -5.5228,0 -10,-4.477 -10,-10 0,-5.523 4.4772,-10 10,-10 5.5228,0 10,4.477 10,10 0,5.523 -4.4772,10 -10,10 z m -3.4,-15.88 v 11.2 h 7.5663 v -2.796 h -4.6573 v -8.404 z"
       fill="#000000"
       id="path232" />
    <path
       d="m 188.86057,214.63971 v 15.352 c 0,0.351 -0.1394,0.688 -0.3877,0.936 -0.2482,0.249 -0.5848,0.388 -0.9358,0.388 h -15.353 c -0.351,0 -0.6876,-0.139 -0.9358,-0.388 -0.2483,-0.248 -0.3877,-0.585 -0.3877,-0.936 v -15.352 c 0,-0.351 0.1394,-0.688 0.3877,-0.936 0.2482,-0.249 0.5848,-0.388 0.9358,-0.388 h 15.353 c 0.351,0 0.6876,0.139 0.9358,0.388 0.2483,0.248 0.3877,0.585 0.3877,0.936 z m -12.7059,5.558 h -2.647 v 8.471 h 2.647 z m 0.2383,-2.911 c 0.001,-0.201 -0.0367,-0.399 -0.112,-0.585 -0.0754,-0.185 -0.1865,-0.354 -0.3271,-0.497 -0.1406,-0.142 -0.3079,-0.256 -0.4924,-0.334 -0.1844,-0.078 -0.3824,-0.118 -0.5827,-0.12 h -0.0476 c -0.4072,0 -0.7977,0.162 -1.0856,0.45 -0.288,0.288 -0.4497,0.678 -0.4497,1.086 0,0.407 0.1617,0.797 0.4497,1.085 0.2879,0.288 0.6784,0.45 1.0856,0.45 v 0 c 0.2002,0.005 0.3995,-0.03 0.5864,-0.102 0.1868,-0.072 0.3577,-0.18 0.5027,-0.318 0.145,-0.139 0.2614,-0.304 0.3425,-0.487 0.0811,-0.183 0.1253,-0.381 0.1302,-0.581 z m 9.8205,6.236 c 0,-2.546 -1.62,-3.536 -3.2294,-3.536 -0.5269,-0.027 -1.0516,0.085 -1.5216,0.325 -0.4701,0.24 -0.8691,0.598 -1.1572,1.04 h -0.0741 v -1.154 h -2.4882 v 8.471 h 2.647 v -4.505 c -0.0383,-0.462 0.1071,-0.92 0.4045,-1.275 0.2974,-0.354 0.7228,-0.578 1.1837,-0.621 h 0.1006 c 0.8418,0 1.4665,0.53 1.4665,1.864 v 4.537 h 2.6471 z"
       fill="#000000"
       id="path260" />
    <path
       fill-rule="evenodd"
       clip-rule="evenodd"
       d="m 183.82917,263.55971 c 2.5059,-0.299 4.6878,-1.843 4.9621,-3.254 0.4321,-2.223 0.3964,-5.424 0.3964,-5.424 0,-4.338 -2.8426,-5.61 -2.8426,-5.61 -1.4332,-0.658 -3.8943,-0.935 -6.4512,-0.956 h -0.0628 c -2.5569,0.021 -5.0164,0.298 -6.4497,0.956 0,0 -2.8427,1.272 -2.8427,5.61 0,0.263 -0.001,0.54 -0.003,0.828 -0.004,0.8 -0.008,1.687 0.0149,2.613 0.1032,4.243 0.7778,8.425 4.7007,9.463 1.8088,0.479 3.3618,0.579 4.6125,0.511 2.2681,-0.126 3.5413,-0.81 3.5413,-0.81 l -0.0748,-1.646 c 0,0 -1.6208,0.512 -3.4411,0.449 -1.8035,-0.062 -3.7074,-0.194 -3.9991,-2.408 -0.0269,-0.195 -0.0404,-0.403 -0.0404,-0.621 0,0 1.7704,0.432 4.0141,0.535 1.3719,0.063 2.6585,-0.08 3.9652,-0.236 z m 2.0055,-3.088 v -5.253 c 0,-1.074 -0.2734,-1.927 -0.8224,-2.558 -0.5663,-0.631 -1.3079,-0.955 -2.2283,-0.955 -1.0652,0 -1.8717,0.409 -2.4049,1.228 l -0.5185,0.869 -0.5184,-0.869 c -0.5333,-0.819 -1.3398,-1.228 -2.4048,-1.228 -0.9206,0 -1.6622,0.324 -2.2284,0.955 -0.5491,0.631 -0.8225,1.484 -0.8225,2.558 v 5.253 h 2.0813 v -5.099 c 0,-1.075 0.4522,-1.62 1.3568,-1.62 1.0002,0 1.5016,0.647 1.5016,1.927 v 2.791 h 2.069 v -2.791 c 0,-1.28 0.5012,-1.927 1.5014,-1.927 0.9046,0 1.3568,0.545 1.3568,1.62 v 5.099 z"
       fill="#000000"
       id="path288" />
    <path
       fill-rule="evenodd"
       clip-rule="evenodd"
       d="m 170.46392,285.98604 v 18 h 18 v -18 z m 14.625,3.375 h -11.25 v 11.25 h 5.625 v -9 h 3.375 v 9 h 2.25 z"
       fill="#000000"
       id="path316" />
    <path
       d="m 179.45982,320.98604 c -5.5286,0 -9.9959,4.476 -9.9959,9.996 0,4.237 2.6327,7.857 6.3513,9.313 -0.0905,-0.79 -0.1645,-2.007 0.0329,-2.871 0.181,-0.782 1.1682,-4.969 1.1682,-4.969 0,0 -0.2961,-0.601 -0.2961,-1.481 0,-1.391 0.8062,-2.427 1.8099,-2.427 0.8556,0 1.267,0.641 1.267,1.407 0,0.855 -0.543,2.139 -0.8309,3.331 -0.2386,0.996 0.5018,1.81 1.4808,1.81 1.7771,0 3.1428,-1.875 3.1428,-4.574 0,-2.394 -1.7195,-4.064 -4.1794,-4.064 -2.8465,0 -4.5166,2.131 -4.5166,4.336 0,0.855 0.329,1.777 0.7404,2.279 0.0823,0.098 0.0905,0.189 0.0658,0.288 -0.074,0.312 -0.2468,0.995 -0.2797,1.135 -0.0411,0.181 -0.1481,0.222 -0.3373,0.131 -1.2341,-0.592 -2.0074,-2.418 -2.0074,-3.883 0,-3.151 2.2871,-6.047 6.6063,-6.047 3.4636,0 6.1621,2.469 6.1621,5.776 0,3.447 -2.172,6.219 -5.1831,6.219 -1.0119,0 -1.9662,-0.526 -2.2871,-1.151 0,0 -0.5018,1.908 -0.6252,2.377 -0.2222,0.872 -0.831,1.958 -1.2423,2.625 0.9379,0.288 1.9251,0.444 2.9617,0.444 5.5204,0 9.9959,-4.476 9.9959,-9.996 -0.008,-5.528 -4.4838,-10.004 -10.0041,-10.004 z"
       fill="#000000"
       id="path344" />
    <path
       d="m 189.39162,371.54404 c -0.1379,-0.378 -0.4035,-0.582 -0.7048,-0.746 -0.0562,-0.03 -0.1072,-0.061 -0.1532,-0.081 -0.0919,-0.046 -0.1839,-0.092 -0.2758,-0.138 -0.9397,-0.501 -1.6751,-1.124 -2.1808,-1.869 -0.143,-0.21 -0.2706,-0.434 -0.3728,-0.664 -0.0459,-0.123 -0.0408,-0.194 -0.0102,-0.261 0.0307,-0.051 0.0715,-0.092 0.1226,-0.127 0.1634,-0.108 0.3268,-0.215 0.4392,-0.286 0.1992,-0.133 0.3626,-0.235 0.4648,-0.307 0.383,-0.271 0.6537,-0.557 0.8222,-0.878 0.24,-0.45 0.2707,-0.976 0.0868,-1.451 -0.2553,-0.674 -0.8886,-1.088 -1.6598,-1.088 -0.1634,0 -0.3218,0.016 -0.4852,0.052 -0.0408,0.01 -0.0868,0.02 -0.1277,0.03 0.005,-0.459 -0.005,-0.945 -0.0459,-1.425 -0.143,-1.68 -0.7355,-2.558 -1.3483,-3.258 -0.3933,-0.439 -0.8529,-0.812 -1.3687,-1.103 -0.9295,-0.531 -1.9867,-0.802 -3.1358,-0.802 -1.1491,0 -2.2012,0.271 -3.1307,0.802 -0.5158,0.291 -0.9755,0.664 -1.3687,1.103 -0.6129,0.7 -1.2002,1.583 -1.3483,3.258 -0.0409,0.48 -0.0511,0.966 -0.046,1.425 -0.0408,-0.01 -0.0817,-0.02 -0.1277,-0.03 -0.1583,-0.036 -0.3217,-0.052 -0.48,-0.052 -0.7712,0 -1.4045,0.419 -1.6599,1.088 -0.1838,0.475 -0.1532,1.001 0.0869,1.451 0.1685,0.321 0.4392,0.607 0.8222,0.878 0.1022,0.072 0.2605,0.174 0.4648,0.307 0.1072,0.071 0.2655,0.173 0.4239,0.275 0.0561,0.036 0.1021,0.082 0.1378,0.138 0.0307,0.067 0.0358,0.138 -0.0153,0.271 -0.1021,0.225 -0.2247,0.444 -0.3677,0.649 -0.4954,0.725 -1.2104,1.343 -2.1195,1.838 -0.48,0.255 -0.9805,0.424 -1.195,1.001 -0.1584,0.434 -0.0562,0.925 0.3473,1.343 0.1481,0.154 0.3217,0.286 0.5107,0.388 0.3932,0.215 0.812,0.383 1.2512,0.501 0.092,0.025 0.1737,0.061 0.2503,0.112 0.1481,0.128 0.1277,0.322 0.3217,0.608 0.0971,0.148 0.2247,0.276 0.3677,0.378 0.4137,0.286 0.8785,0.301 1.3688,0.322 0.4443,0.015 0.9448,0.035 1.5219,0.224 0.24,0.077 0.4852,0.23 0.7712,0.409 0.6894,0.424 1.6292,1.001 3.2073,1.001 1.5781,0 2.5229,-0.582 3.2175,-1.006 0.286,-0.174 0.5311,-0.327 0.7609,-0.404 0.572,-0.189 1.0777,-0.209 1.522,-0.224 0.4903,-0.021 0.955,-0.036 1.3687,-0.322 0.1736,-0.123 0.3166,-0.276 0.4188,-0.46 0.143,-0.24 0.1379,-0.408 0.2707,-0.526 0.0715,-0.051 0.1532,-0.087 0.2349,-0.107 0.4392,-0.117 0.8682,-0.286 1.2666,-0.506 0.1991,-0.107 0.383,-0.25 0.5362,-0.418 l 0.005,-0.005 c 0.3984,-0.409 0.4954,-0.889 0.3371,-1.308 z m -1.3994,0.751 c -0.8529,0.47 -1.4249,0.419 -1.8641,0.705 -0.3779,0.24 -0.1532,0.761 -0.4239,0.95 -0.337,0.229 -1.3278,-0.016 -2.6046,0.408 -1.0572,0.347 -1.7262,1.354 -3.6261,1.354 -1.8999,0 -2.5536,-1.001 -3.6261,-1.354 -1.2768,-0.424 -2.2676,-0.173 -2.6046,-0.408 -0.2707,-0.189 -0.0511,-0.71 -0.4239,-0.95 -0.4444,-0.286 -1.0112,-0.235 -1.8641,-0.705 -0.5465,-0.301 -0.235,-0.485 -0.0562,-0.572 3.0949,-1.497 3.5903,-3.81 3.6107,-3.984 0.0256,-0.209 0.0562,-0.373 -0.1736,-0.582 -0.2196,-0.204 -1.2002,-0.812 -1.476,-1.001 -0.4494,-0.317 -0.6486,-0.628 -0.5005,-1.016 0.1022,-0.266 0.3524,-0.368 0.6129,-0.368 0.0817,0 0.1634,0.01 0.2451,0.026 0.4954,0.107 0.9755,0.352 1.2513,0.423 0.0357,0.011 0.0664,0.016 0.1021,0.016 0.1481,0 0.1992,-0.077 0.189,-0.245 -0.0307,-0.542 -0.1073,-1.594 -0.0204,-2.579 0.1174,-1.354 0.5515,-2.028 1.0725,-2.62 0.2502,-0.286 1.4198,-1.522 3.6618,-1.522 2.242,0 3.4116,1.23 3.6618,1.516 0.521,0.593 0.9551,1.267 1.0725,2.62 0.0869,0.986 0.0102,2.038 -0.0255,2.58 -0.0102,0.178 0.0409,0.245 0.189,0.245 0.0357,0 0.0664,-0.005 0.1021,-0.016 0.2758,-0.066 0.7559,-0.316 1.2513,-0.424 0.0817,-0.02 0.1634,-0.025 0.2451,-0.025 0.2605,0 0.5107,0.102 0.6129,0.368 0.1481,0.388 -0.0511,0.699 -0.5005,1.016 -0.2707,0.189 -1.2513,0.797 -1.476,1.001 -0.2298,0.209 -0.1992,0.373 -0.1737,0.582 0.0205,0.174 0.5159,2.487 3.6108,3.984 0.1839,0.087 0.4903,0.276 -0.0511,0.577 z"
       fill="#000000"
       id="path372" />
    <path
       fill-rule="evenodd"
       clip-rule="evenodd"
       d="m 352.56358,150.06262 c 0,5.523 -4.4772,10 -10,10 -5.5228,0 -10,-4.477 -10,-10 0,-5.523 4.4772,-10 10,-10 5.5228,0 10,4.477 10,10 z m -9.6417,-2.618 c -0.9726,0.405 -2.9165,1.242 -5.8317,2.512 -0.4734,0.189 -0.7214,0.373 -0.744,0.553 -0.0381,0.304 0.343,0.424 0.8619,0.587 0.0706,0.022 0.1438,0.045 0.2188,0.07 0.5105,0.166 1.1974,0.36 1.5544,0.368 0.3239,0.007 0.6854,-0.127 1.0845,-0.401 2.7237,-1.838 4.1298,-2.768 4.218,-2.788 0.0623,-0.014 0.1486,-0.032 0.2071,0.02 0.0585,0.052 0.0527,0.151 0.0465,0.177 -0.0377,0.161 -1.5337,1.552 -2.3079,2.271 -0.2413,0.225 -0.4125,0.384 -0.4475,0.42 -0.0784,0.082 -0.1583,0.159 -0.2351,0.233 -0.4743,0.457 -0.8301,0.8 0.0197,1.36 0.4083,0.269 0.7351,0.492 1.0611,0.714 0.356,0.242 0.7111,0.484 1.1706,0.785 0.117,0.077 0.2288,0.157 0.3377,0.234 0.4143,0.295 0.7865,0.561 1.2464,0.519 0.2672,-0.025 0.5432,-0.276 0.6834,-1.026 0.3313,-1.771 0.9825,-5.608 1.133,-7.189 0.0131,-0.139 -0.003,-0.316 -0.0168,-0.394 -0.0133,-0.078 -0.0411,-0.189 -0.1423,-0.271 -0.1198,-0.097 -0.3048,-0.117 -0.3875,-0.116 -0.3761,0.007 -0.9532,0.207 -3.7303,1.362 z"
       fill="#000000"
       id="path400" />
    <path
       d="m 339.33698,187.07562 c 0,0.351 -0.104,0.694 -0.2989,0.986 -0.1948,0.291 -0.4718,0.519 -0.7959,0.653 -0.324,0.134 -0.6806,0.169 -1.0246,0.101 -0.344,-0.069 -0.66,-0.238 -0.908,-0.486 -0.248,-0.248 -0.4169,-0.564 -0.4853,-0.908 -0.0685,-0.344 -0.0333,-0.7 0.1009,-1.024 0.1342,-0.324 0.3615,-0.601 0.6532,-0.796 0.2916,-0.195 0.6345,-0.299 0.9852,-0.299 0.4703,0 0.9214,0.187 1.254,0.519 0.3326,0.333 0.5194,0.784 0.5194,1.254 z m 8.2222,-1.773 c -0.3508,0 -0.6936,0.104 -0.9853,0.299 -0.2916,0.195 -0.5189,0.472 -0.6531,0.796 -0.1343,0.324 -0.1694,0.68 -0.101,1.024 0.0685,0.344 0.2374,0.66 0.4854,0.908 0.248,0.248 0.564,0.417 0.908,0.486 0.344,0.068 0.7006,0.033 1.0246,-0.101 0.3241,-0.134 0.601,-0.362 0.7959,-0.653 0.1949,-0.292 0.2989,-0.635 0.2989,-0.986 -2e-4,-0.47 -0.1869,-0.921 -0.5193,-1.253 -0.3323,-0.332 -0.7831,-0.519 -1.2531,-0.52 z m 5,1.773 c 0,2.76 -2.2394,4.998 -5,4.998 -1.2593,0.002 -2.4725,-0.474 -3.3954,-1.33 l -1.6002,1.741 -1.601,-1.743 c -0.9228,0.857 -2.1364,1.333 -3.3963,1.332 -2.7586,0 -4.9973,-2.238 -4.9973,-4.998 -9e-4,-0.695 0.1436,-1.383 0.4244,-2.019 0.2807,-0.636 0.6914,-1.206 1.2057,-1.674 l -1.6355,-1.779 h 3.6335 c 1.8787,-1.279 4.0987,-1.963 6.3712,-1.963 2.2725,0 4.4924,0.684 6.3712,1.963 h 3.6241 l -1.6352,1.779 c 0.5144,0.468 0.9253,1.038 1.2062,1.674 0.2809,0.636 0.4256,1.324 0.4248,2.019 z m -11.6123,0 c 0,-0.669 -0.1984,-1.322 -0.57,-1.879 -0.3717,-0.556 -0.8999,-0.989 -1.5179,-1.245 -0.618,-0.256 -1.298,-0.323 -1.9541,-0.193 -0.656,0.131 -1.2586,0.453 -1.7316,0.926 -0.473,0.473 -0.7951,1.076 -0.9255,1.732 -0.1305,0.656 -0.0635,1.336 0.1925,1.954 0.256,0.618 0.6896,1.146 1.2458,1.517 0.5562,0.372 1.2101,0.57 1.879,0.57 0.4441,0 0.8839,-0.087 1.2943,-0.257 0.4103,-0.17 0.7831,-0.419 1.0972,-0.733 0.3141,-0.314 0.5632,-0.687 0.7331,-1.097 0.17,-0.411 0.2574,-0.851 0.2574,-1.295 z m 5.3694,-5.049 c -1.1893,-0.495 -2.4649,-0.751 -3.7533,-0.751 -1.2884,0 -2.564,0.256 -3.7533,0.751 2.1352,0.817 3.7539,2.726 3.7539,4.952 0,-2.226 1.6185,-4.135 3.753,-4.952 z m 4.6256,5.049 c 0,-0.669 -0.1983,-1.322 -0.57,-1.879 -0.3716,-0.556 -0.8998,-0.989 -1.5178,-1.245 -0.618,-0.256 -1.298,-0.323 -1.9541,-0.193 -0.656,0.131 -1.2587,0.453 -1.7316,0.926 -0.473,0.473 -0.7951,1.076 -0.9256,1.732 -0.1304,0.656 -0.0634,1.336 0.1926,1.954 0.256,0.618 0.6895,1.146 1.2457,1.517 0.5562,0.372 1.2101,0.57 1.8791,0.57 0.8969,0 1.7571,-0.356 2.3914,-0.99 0.6343,-0.634 0.9906,-1.495 0.9906,-2.392 z"
       fill="#000000"
       id="path428" />
    <g
       id="g2239">
      <path
         d="m 337.56358,212.06262 -3.5714,3.571 v 12.858 h 4.2857 v 3.571 l 3.5714,-3.571 h 2.8571 l 6.4286,-6.429 v -10 z m 12.1428,9.286 -2.8571,2.857 h -2.8571 l -2.5,2.5 v -2.5 h -3.2143 v -10.714 h 11.4285 z"
         fill="#000000"
         id="path456" />
      <path
         d="m 347.56358,215.99162 h -1.4286 v 4.285 h 1.4286 z"
         fill="#000000"
         id="path458" />
      <path
         d="m 343.63498,215.99162 h -1.4286 v 4.285 h 1.4286 z"
         fill="#000000"
         id="path460" />
    </g>
    <path
       d="m 350.51608,253.98262 c 0.0122,0.176 0.0122,0.353 0.0122,0.531 0,5.422 -4.1276,11.675 -11.675,11.675 v -0.004 c -2.2296,0.004 -4.4128,-0.635 -6.2897,-1.839 0.3242,0.039 0.65,0.058 0.9766,0.059 1.8477,0.002 3.6425,-0.618 5.0961,-1.76 -1.7558,-0.033 -3.2955,-1.178 -3.8334,-2.849 0.6151,0.118 1.2488,0.094 1.8525,-0.071 -1.9143,-0.387 -3.2915,-2.069 -3.2915,-4.022 0,-0.018 0,-0.035 0,-0.052 0.5704,0.318 1.209,0.494 1.8623,0.514 -1.803,-1.205 -2.3587,-3.604 -1.27,-5.479 2.0833,2.563 5.1571,4.122 8.4567,4.287 -0.3307,-1.425 0.121,-2.919 1.1871,-3.921 1.6526,-1.553 4.2518,-1.474 5.8054,0.178 0.9189,-0.181 1.7997,-0.518 2.6057,-0.996 -0.3063,0.95 -0.9474,1.757 -1.8038,2.27 0.8133,-0.096 1.608,-0.314 2.3563,-0.646 -0.5509,0.825 -1.2448,1.544 -2.0475,2.125 z"
       fill="#000000"
       id="path492" />
    <path
       d="m 342.60128,285.35262 c -4.9401,0 -8.9605,3.873 -8.9622,8.632 -10e-4,1.522 0.4122,3.007 1.1961,4.315 l -1.2716,4.473 4.7514,-1.2 c 1.3217,0.691 2.7913,1.051 4.2829,1.05 h 0.003 c 4.9402,0 8.9606,-3.872 8.9623,-8.631 0.001,-2.306 -0.9302,-4.475 -2.6228,-6.106 -1.692,-1.632 -3.942,-2.532 -6.3395,-2.533 z m 0,15.812 h -0.003 c -1.3366,0 -2.6477,-0.346 -3.7916,-0.999 l -0.2729,-0.156 -2.8184,0.712 0.7525,-2.648 -0.1771,-0.271 c -0.7439,-1.135 -1.1399,-2.462 -1.1392,-3.818 0.002,-3.956 3.3439,-7.174 7.4525,-7.174 1.9893,0.001 3.8596,0.748 5.2665,2.104 1.4069,1.356 2.1809,3.159 2.1797,5.076 -0.002,3.956 -3.3433,7.174 -7.4496,7.174 z m 4.086,-5.373 c -0.2241,-0.108 -1.325,-0.63 -1.5305,-0.702 -0.205,-0.072 -0.3542,-0.109 -0.5035,0.107 -0.1486,0.216 -0.5783,0.702 -0.7083,0.845 -0.1313,0.144 -0.2619,0.162 -0.486,0.054 -0.2242,-0.108 -0.9459,-0.335 -1.8006,-1.07 -0.666,-0.572 -1.1154,-1.278 -1.2461,-1.494 -0.1306,-0.216 -0.0139,-0.332 0.0981,-0.44 0.1005,-0.096 0.2242,-0.251 0.3357,-0.377 0.1114,-0.126 0.1486,-0.216 0.2241,-0.36 0.0743,-0.144 0.0371,-0.27 -0.0192,-0.378 -0.0563,-0.108 -0.5034,-1.17 -0.6909,-1.601 -0.1812,-0.42 -0.3659,-0.364 -0.5035,-0.371 -0.1306,-0.006 -0.2793,-0.008 -0.4296,-0.008 -0.1481,0 -0.3914,0.054 -0.5969,0.27 -0.205,0.216 -0.7839,0.738 -0.7839,1.799 0,1.062 0.8024,2.088 0.9145,2.232 0.1121,0.143 1.5794,2.322 3.8259,3.257 0.5342,0.221 0.9511,0.354 1.2768,0.454 0.5365,0.164 1.0248,0.141 1.4104,0.085 0.4297,-0.062 1.325,-0.521 1.5108,-1.024 0.187,-0.504 0.187,-0.936 0.1313,-1.026 -0.0546,-0.09 -0.2044,-0.144 -0.4286,-0.252 z"
       fill="#000000"
       id="path520" />
    <g
       id="g2246">
      <path
         d="m 339.81418,332.68162 0.921,-0.213 c 0.0193,-0.004 0.0513,-0.012 0.0904,-0.024 0.2541,-0.069 0.4719,-0.233 0.6074,-0.459 0.1355,-0.226 0.1783,-0.495 0.1192,-0.752 -0.001,-0.005 -0.002,-0.01 -0.004,-0.016 -0.0302,-0.123 -0.0832,-0.239 -0.1562,-0.343 -0.1032,-0.131 -0.2309,-0.24 -0.376,-0.322 -0.1708,-0.098 -0.3495,-0.18 -0.5343,-0.248 l -1.0098,-0.368 c -0.5667,-0.211 -1.1333,-0.416 -1.7053,-0.617 -0.3709,-0.131 -0.6851,-0.247 -0.9582,-0.332 -0.0515,-0.016 -0.1084,-0.032 -0.1546,-0.048 -0.3302,-0.101 -0.5621,-0.143 -0.7584,-0.144 -0.1311,-0.005 -0.2617,0.019 -0.3827,0.07 -0.1261,0.054 -0.2394,0.135 -0.3324,0.236 -0.0463,0.052 -0.0898,0.107 -0.1303,0.164 -0.0381,0.059 -0.073,0.119 -0.1046,0.181 -0.0348,0.066 -0.0646,0.135 -0.0894,0.206 -0.1874,0.554 -0.2808,1.135 -0.2762,1.72 0.003,0.529 0.0176,1.207 0.3082,1.667 0.07,0.118 0.1639,0.22 0.2758,0.3 0.207,0.142 0.4162,0.161 0.6338,0.177 0.3252,0.023 0.6403,-0.057 0.9544,-0.129 l 3.0595,-0.707 z"
         fill="#000000"
         id="path548" />
      <path
         d="m 350.08868,327.79162 c -0.2515,-0.527 -0.5895,-1.009 -1.0001,-1.425 -0.053,-0.053 -0.1099,-0.101 -0.1702,-0.146 -0.0556,-0.042 -0.1134,-0.08 -0.1731,-0.116 -0.0613,-0.034 -0.1244,-0.064 -0.189,-0.091 -0.1277,-0.05 -0.2646,-0.073 -0.4016,-0.066 -0.1311,0.007 -0.259,0.043 -0.3749,0.105 -0.1756,0.087 -0.3657,0.228 -0.6184,0.463 -0.0349,0.034 -0.0788,0.073 -0.1182,0.11 -0.2086,0.196 -0.4405,0.438 -0.7166,0.72 -0.4265,0.431 -0.8465,0.864 -1.2639,1.302 l -0.7468,0.774 c -0.1367,0.142 -0.2613,0.295 -0.3722,0.457 -0.0945,0.138 -0.1615,0.292 -0.197,0.455 -0.0205,0.125 -0.0175,0.253 0.009,0.377 0.001,0.005 0.003,0.011 0.004,0.016 0.0591,0.257 0.2152,0.48 0.4358,0.624 0.2204,0.143 0.4879,0.196 0.7463,0.145 0.0409,-0.005 0.0727,-0.013 0.092,-0.017 l 3.9818,-0.92 c 0.3138,-0.073 0.6322,-0.139 0.9142,-0.303 0.1891,-0.11 0.3689,-0.218 0.4923,-0.437 0.0659,-0.121 0.1058,-0.254 0.1171,-0.391 0.0611,-0.542 -0.2222,-1.159 -0.4502,-1.636 z"
         fill="#000000"
         id="path550" />
      <path
         d="m 342.96198,329.46662 c 0.2886,-0.363 0.2879,-0.903 0.3137,-1.345 0.0868,-1.475 0.1783,-2.951 0.2508,-4.428 0.0276,-0.559 0.0879,-1.111 0.0546,-1.675 -0.0274,-0.465 -0.0308,-0.998 -0.3243,-1.38 -0.5182,-0.673 -1.623,-0.617 -2.3769,-0.513 -0.2309,0.032 -0.4623,0.075 -0.6917,0.13 -0.2295,0.055 -0.4566,0.115 -0.6788,0.187 -0.7234,0.237 -1.7403,0.671 -1.9125,1.505 -0.0971,0.471 0.1329,0.953 0.3114,1.383 0.2163,0.521 0.5117,0.991 0.781,1.482 0.712,1.295 1.4371,2.582 2.1602,3.871 0.216,0.385 0.4514,0.872 0.8691,1.071 0.0277,0.012 0.0559,0.023 0.0846,0.032 0.1873,0.071 0.3915,0.085 0.5867,0.04 0.0118,-0.003 0.0233,-0.006 0.0348,-0.008 0.1803,-0.049 0.3435,-0.147 0.4715,-0.284 0.0231,-0.021 0.0451,-0.044 0.0658,-0.068 z"
         fill="#000000"
         id="path552" />
      <path
         d="m 342.61648,333.41762 c -0.1126,-0.158 -0.2724,-0.277 -0.4566,-0.339 -0.1842,-0.062 -0.3833,-0.065 -0.5689,-0.007 -0.0436,0.015 -0.086,0.033 -0.1271,0.053 -0.0635,0.033 -0.124,0.07 -0.181,0.113 -0.1659,0.123 -0.3057,0.283 -0.4329,0.443 -0.0323,0.041 -0.0617,0.095 -0.1001,0.13 l -0.6405,0.881 c -0.363,0.494 -0.721,0.988 -1.076,1.491 -0.2317,0.325 -0.432,0.599 -0.5903,0.841 -0.03,0.046 -0.0611,0.097 -0.0896,0.137 -0.1897,0.294 -0.2972,0.508 -0.3523,0.699 -0.0414,0.127 -0.0545,0.261 -0.0384,0.393 0.0176,0.138 0.0641,0.271 0.1363,0.39 0.0383,0.059 0.0797,0.117 0.1239,0.172 0.0459,0.053 0.0947,0.104 0.1461,0.152 0.0549,0.052 0.1137,0.101 0.1757,0.144 0.4421,0.308 0.926,0.529 1.4351,0.7 0.4236,0.14 0.8639,0.224 1.3096,0.25 0.0758,0.004 0.1518,0.002 0.2274,-0.005 0.0701,-0.006 0.1397,-0.016 0.2088,-0.029 0.069,-0.016 0.137,-0.036 0.2039,-0.06 0.1302,-0.048 0.2487,-0.124 0.3479,-0.221 0.0939,-0.094 0.1662,-0.207 0.2118,-0.332 0.074,-0.185 0.1227,-0.419 0.1547,-0.767 0.003,-0.049 0.01,-0.109 0.0148,-0.163 0.0253,-0.289 0.0369,-0.628 0.0554,-1.026 0.0313,-0.614 0.0559,-1.224 0.0753,-1.836 0,0 0.0413,-1.088 0.0412,-1.088 0.009,-0.251 0.002,-0.529 -0.0679,-0.778 -0.0305,-0.12 -0.0799,-0.234 -0.1463,-0.338 z"
         fill="#000000"
         id="path554" />
      <path
         d="m 349.84598,335.12062 c -0.1337,-0.146 -0.3231,-0.293 -0.6218,-0.473 -0.0431,-0.024 -0.0937,-0.056 -0.1403,-0.084 -0.2487,-0.15 -0.5484,-0.307 -0.8984,-0.497 -0.5377,-0.296 -1.0757,-0.583 -1.6189,-0.869 l -0.9596,-0.509 c -0.0497,-0.014 -0.1002,-0.05 -0.1471,-0.073 -0.1844,-0.088 -0.3799,-0.17 -0.5827,-0.208 -0.07,-0.014 -0.1409,-0.021 -0.212,-0.022 -0.046,-0.001 -0.0918,0.002 -0.1374,0.008 -0.1918,0.03 -0.3695,0.12 -0.5075,0.256 -0.1381,0.137 -0.2296,0.314 -0.2614,0.505 -0.0146,0.122 -0.0102,0.246 0.0132,0.366 0.0469,0.256 0.161,0.508 0.2789,0.729 l 0.5125,0.961 c 0.2851,0.541 0.5737,1.08 0.8696,1.617 0.1908,0.35 0.3496,0.65 0.4984,0.898 0.0282,0.047 0.0602,0.097 0.0843,0.14 0.1811,0.299 0.3266,0.487 0.4741,0.622 0.0955,0.092 0.2101,0.162 0.3356,0.206 0.1319,0.043 0.2716,0.059 0.4098,0.045 0.0704,-0.008 0.1403,-0.02 0.2093,-0.036 0.0681,-0.018 0.1351,-0.04 0.2008,-0.065 0.071,-0.027 0.14,-0.059 0.2063,-0.096 0.3896,-0.218 0.7487,-0.487 1.0681,-0.799 0.383,-0.377 0.7216,-0.788 0.9849,-1.259 0.0367,-0.066 0.0683,-0.135 0.0949,-0.207 0.0249,-0.065 0.0464,-0.132 0.0644,-0.2 0.0155,-0.07 0.0275,-0.14 0.0358,-0.21 0.0131,-0.138 -0.003,-0.277 -0.0471,-0.409 -0.0435,-0.126 -0.114,-0.241 -0.2067,-0.337 z"
         fill="#000000"
         id="path556" />
    </g>
    <path
       fill-rule="evenodd"
       clip-rule="evenodd"
       d="m 350.35558,359.47762 c 0.8601,0.231 1.5405,0.911 1.7715,1.771 0.4237,1.566 0.4365,4.814 0.4365,4.814 0,0 0,3.261 -0.4236,4.814 -0.2311,0.86 -0.9114,1.54 -1.7715,1.771 -1.5533,0.424 -7.8049,0.424 -7.8049,0.424 0,0 -6.2516,0 -7.8049,-0.424 -0.8601,-0.231 -1.5404,-0.911 -1.7715,-1.771 -0.4236,-1.566 -0.4236,-4.814 -0.4236,-4.814 0,0 0,-3.248 0.4108,-4.801 0.231,-0.86 0.9114,-1.54 1.7715,-1.771 1.5533,-0.424 7.8049,-0.437 7.8049,-0.437 0,0 6.2516,0 7.8048,0.424 z m -4.6084,6.585 -5.1862,3.004 v -6.008 z"
       fill="#000000"
       id="path592" />
  </g>
</svg>
