<?xml version="1.0" encoding="UTF-8" standalone="no"?>
<svg
   width="18"
   height="18"
   viewBox="0 0 18 18"
   fill="none"
   version="1.1"
   id="svg620"
   xmlns="http://www.w3.org/2000/svg"
   xmlns:svg="http://www.w3.org/2000/svg">
  <defs
     id="defs624" />
  <g
     id="New_Layer_1653473784.8725324"
     style="display:inline"
     transform="translate(-172.68807,-212.64573)">
    <path
       d="m 188.86057,214.63971 v 15.352 c 0,0.351 -0.1394,0.688 -0.3877,0.936 -0.2482,0.249 -0.5848,0.388 -0.9358,0.388 h -15.353 c -0.351,0 -0.6876,-0.139 -0.9358,-0.388 -0.2483,-0.248 -0.3877,-0.585 -0.3877,-0.936 v -15.352 c 0,-0.351 0.1394,-0.688 0.3877,-0.936 0.2482,-0.249 0.5848,-0.388 0.9358,-0.388 h 15.353 c 0.351,0 0.6876,0.139 0.9358,0.388 0.2483,0.248 0.3877,0.585 0.3877,0.936 z m -12.7059,5.558 h -2.647 v 8.471 h 2.647 z m 0.2383,-2.911 c 0.001,-0.201 -0.0367,-0.399 -0.112,-0.585 -0.0754,-0.185 -0.1865,-0.354 -0.3271,-0.497 -0.1406,-0.142 -0.3079,-0.256 -0.4924,-0.334 -0.1844,-0.078 -0.3824,-0.118 -0.5827,-0.12 h -0.0476 c -0.4072,0 -0.7977,0.162 -1.0856,0.45 -0.288,0.288 -0.4497,0.678 -0.4497,1.086 0,0.407 0.1617,0.797 0.4497,1.085 0.2879,0.288 0.6784,0.45 1.0856,0.45 v 0 c 0.2002,0.005 0.3995,-0.03 0.5864,-0.102 0.1868,-0.072 0.3577,-0.18 0.5027,-0.318 0.145,-0.139 0.2614,-0.304 0.3425,-0.487 0.0811,-0.183 0.1253,-0.381 0.1302,-0.581 z m 9.8205,6.236 c 0,-2.546 -1.62,-3.536 -3.2294,-3.536 -0.5269,-0.027 -1.0516,0.085 -1.5216,0.325 -0.4701,0.24 -0.8691,0.598 -1.1572,1.04 h -0.0741 v -1.154 h -2.4882 v 8.471 h 2.647 v -4.505 c -0.0383,-0.462 0.1071,-0.92 0.4045,-1.275 0.2974,-0.354 0.7228,-0.578 1.1837,-0.621 h 0.1006 c 0.8418,0 1.4665,0.53 1.4665,1.864 v 4.537 h 2.6471 z"
       fill="#000000"
       id="path2557"
       transform="translate(1.8275,-0.66998)" />
  </g>
</svg>
