<?xml version="1.0" encoding="UTF-8" standalone="no"?>
<svg
   width="18.655804"
   height="20.000162"
   viewBox="0 0 18.655804 20.000162"
   fill="none"
   version="1.1"
   id="svg620"
   xmlns="http://www.w3.org/2000/svg"
   xmlns:svg="http://www.w3.org/2000/svg">
  <defs
     id="defs624" />
  <g
     id="New_Layer_1653473784.8730433"
     style="display:inline"
     transform="translate(-172.36009,-247.64573)">
    <path
       fill-rule="evenodd"
       clip-rule="evenodd"
       d="m 183.82917,263.55971 c 2.5059,-0.299 4.6878,-1.843 4.9621,-3.254 0.4321,-2.223 0.3964,-5.424 0.3964,-5.424 0,-4.338 -2.8426,-5.61 -2.8426,-5.61 -1.4332,-0.658 -3.8943,-0.935 -6.4512,-0.956 h -0.0628 c -2.5569,0.021 -5.0164,0.298 -6.4497,0.956 0,0 -2.8427,1.272 -2.8427,5.61 0,0.263 -0.001,0.54 -0.003,0.828 -0.004,0.8 -0.008,1.687 0.0149,2.613 0.1032,4.243 0.7778,8.425 4.7007,9.463 1.8088,0.479 3.3618,0.579 4.6125,0.511 2.2681,-0.126 3.5413,-0.81 3.5413,-0.81 l -0.0748,-1.646 c 0,0 -1.6208,0.512 -3.4411,0.449 -1.8035,-0.062 -3.7074,-0.194 -3.9991,-2.408 -0.0269,-0.195 -0.0404,-0.403 -0.0404,-0.621 0,0 1.7704,0.432 4.0141,0.535 1.3719,0.063 2.6585,-0.08 3.9652,-0.236 z m 2.0055,-3.088 v -5.253 c 0,-1.074 -0.2734,-1.927 -0.8224,-2.558 -0.5663,-0.631 -1.3079,-0.955 -2.2283,-0.955 -1.0652,0 -1.8717,0.409 -2.4049,1.228 l -0.5185,0.869 -0.5184,-0.869 c -0.5333,-0.819 -1.3398,-1.228 -2.4048,-1.228 -0.9206,0 -1.6622,0.324 -2.2284,0.955 -0.5491,0.631 -0.8225,1.484 -0.8225,2.558 v 5.253 h 2.0813 v -5.099 c 0,-1.075 0.4522,-1.62 1.3568,-1.62 1.0002,0 1.5016,0.647 1.5016,1.927 v 2.791 h 2.069 v -2.791 c 0,-1.28 0.5012,-1.927 1.5014,-1.927 0.9046,0 1.3568,0.545 1.3568,1.62 v 5.099 z"
       fill="#000000"
       id="path4179"
       transform="translate(1.8275,-0.66998)" />
  </g>
</svg>
