<?xml version="1.0" encoding="UTF-8" standalone="no"?>
<svg
   width="20"
   height="20"
   viewBox="0 0 20 20"
   fill="none"
   version="1.1"
   id="svg620"
   xmlns="http://www.w3.org/2000/svg"
   xmlns:svg="http://www.w3.org/2000/svg">
  <defs
     id="defs624" />
  <g
     id="New_Layer_1653473784.8740573"
     style="display:inline"
     transform="translate(-171.29142,-320.31606)">
    <path
       d="m 179.45982,320.98604 c -5.5286,0 -9.9959,4.476 -9.9959,9.996 0,4.237 2.6327,7.857 6.3513,9.313 -0.0905,-0.79 -0.1645,-2.007 0.0329,-2.871 0.181,-0.782 1.1682,-4.969 1.1682,-4.969 0,0 -0.2961,-0.601 -0.2961,-1.481 0,-1.391 0.8062,-2.427 1.8099,-2.427 0.8556,0 1.267,0.641 1.267,1.407 0,0.855 -0.543,2.139 -0.8309,3.331 -0.2386,0.996 0.5018,1.81 1.4808,1.81 1.7771,0 3.1428,-1.875 3.1428,-4.574 0,-2.394 -1.7195,-4.064 -4.1794,-4.064 -2.8465,0 -4.5166,2.131 -4.5166,4.336 0,0.855 0.329,1.777 0.7404,2.279 0.0823,0.098 0.0905,0.189 0.0658,0.288 -0.074,0.312 -0.2468,0.995 -0.2797,1.135 -0.0411,0.181 -0.1481,0.222 -0.3373,0.131 -1.2341,-0.592 -2.0074,-2.418 -2.0074,-3.883 0,-3.151 2.2871,-6.047 6.6063,-6.047 3.4636,0 6.1621,2.469 6.1621,5.776 0,3.447 -2.172,6.219 -5.1831,6.219 -1.0119,0 -1.9662,-0.526 -2.2871,-1.151 0,0 -0.5018,1.908 -0.6252,2.377 -0.2222,0.872 -0.831,1.958 -1.2423,2.625 0.9379,0.288 1.9251,0.444 2.9617,0.444 5.5204,0 9.9959,-4.476 9.9959,-9.996 -0.008,-5.528 -4.4838,-10.004 -10.0041,-10.004 z"
       fill="#000000"
       id="path7666"
       transform="translate(1.8275,-0.66998)" />
  </g>
</svg>
