<?xml version="1.0" encoding="UTF-8" standalone="no"?>
<svg
   width="19.999903"
   height="19.688"
   viewBox="0 0 19.999903 19.688"
   fill="none"
   version="1.1"
   id="svg620"
   xmlns="http://www.w3.org/2000/svg"
   xmlns:svg="http://www.w3.org/2000/svg">
  <defs
     id="defs624" />
  <g
     id="New_Layer_1653473784.8745584"
     style="display:inline"
     transform="translate(-171.29141,-356.47206)">
    <path
       d="m 189.39162,371.54404 c -0.1379,-0.378 -0.4035,-0.582 -0.7048,-0.746 -0.0562,-0.03 -0.1072,-0.061 -0.1532,-0.081 -0.0919,-0.046 -0.1839,-0.092 -0.2758,-0.138 -0.9397,-0.501 -1.6751,-1.124 -2.1808,-1.869 -0.143,-0.21 -0.2706,-0.434 -0.3728,-0.664 -0.0459,-0.123 -0.0408,-0.194 -0.0102,-0.261 0.0307,-0.051 0.0715,-0.092 0.1226,-0.127 0.1634,-0.108 0.3268,-0.215 0.4392,-0.286 0.1992,-0.133 0.3626,-0.235 0.4648,-0.307 0.383,-0.271 0.6537,-0.557 0.8222,-0.878 0.24,-0.45 0.2707,-0.976 0.0868,-1.451 -0.2553,-0.674 -0.8886,-1.088 -1.6598,-1.088 -0.1634,0 -0.3218,0.016 -0.4852,0.052 -0.0408,0.01 -0.0868,0.02 -0.1277,0.03 0.005,-0.459 -0.005,-0.945 -0.0459,-1.425 -0.143,-1.68 -0.7355,-2.558 -1.3483,-3.258 -0.3933,-0.439 -0.8529,-0.812 -1.3687,-1.103 -0.9295,-0.531 -1.9867,-0.802 -3.1358,-0.802 -1.1491,0 -2.2012,0.271 -3.1307,0.802 -0.5158,0.291 -0.9755,0.664 -1.3687,1.103 -0.6129,0.7 -1.2002,1.583 -1.3483,3.258 -0.0409,0.48 -0.0511,0.966 -0.046,1.425 -0.0408,-0.01 -0.0817,-0.02 -0.1277,-0.03 -0.1583,-0.036 -0.3217,-0.052 -0.48,-0.052 -0.7712,0 -1.4045,0.419 -1.6599,1.088 -0.1838,0.475 -0.1532,1.001 0.0869,1.451 0.1685,0.321 0.4392,0.607 0.8222,0.878 0.1022,0.072 0.2605,0.174 0.4648,0.307 0.1072,0.071 0.2655,0.173 0.4239,0.275 0.0561,0.036 0.1021,0.082 0.1378,0.138 0.0307,0.067 0.0358,0.138 -0.0153,0.271 -0.1021,0.225 -0.2247,0.444 -0.3677,0.649 -0.4954,0.725 -1.2104,1.343 -2.1195,1.838 -0.48,0.255 -0.9805,0.424 -1.195,1.001 -0.1584,0.434 -0.0562,0.925 0.3473,1.343 0.1481,0.154 0.3217,0.286 0.5107,0.388 0.3932,0.215 0.812,0.383 1.2512,0.501 0.092,0.025 0.1737,0.061 0.2503,0.112 0.1481,0.128 0.1277,0.322 0.3217,0.608 0.0971,0.148 0.2247,0.276 0.3677,0.378 0.4137,0.286 0.8785,0.301 1.3688,0.322 0.4443,0.015 0.9448,0.035 1.5219,0.224 0.24,0.077 0.4852,0.23 0.7712,0.409 0.6894,0.424 1.6292,1.001 3.2073,1.001 1.5781,0 2.5229,-0.582 3.2175,-1.006 0.286,-0.174 0.5311,-0.327 0.7609,-0.404 0.572,-0.189 1.0777,-0.209 1.522,-0.224 0.4903,-0.021 0.955,-0.036 1.3687,-0.322 0.1736,-0.123 0.3166,-0.276 0.4188,-0.46 0.143,-0.24 0.1379,-0.408 0.2707,-0.526 0.0715,-0.051 0.1532,-0.087 0.2349,-0.107 0.4392,-0.117 0.8682,-0.286 1.2666,-0.506 0.1991,-0.107 0.383,-0.25 0.5362,-0.418 l 0.005,-0.005 c 0.3984,-0.409 0.4954,-0.889 0.3371,-1.308 z m -1.3994,0.751 c -0.8529,0.47 -1.4249,0.419 -1.8641,0.705 -0.3779,0.24 -0.1532,0.761 -0.4239,0.95 -0.337,0.229 -1.3278,-0.016 -2.6046,0.408 -1.0572,0.347 -1.7262,1.354 -3.6261,1.354 -1.8999,0 -2.5536,-1.001 -3.6261,-1.354 -1.2768,-0.424 -2.2676,-0.173 -2.6046,-0.408 -0.2707,-0.189 -0.0511,-0.71 -0.4239,-0.95 -0.4444,-0.286 -1.0112,-0.235 -1.8641,-0.705 -0.5465,-0.301 -0.235,-0.485 -0.0562,-0.572 3.0949,-1.497 3.5903,-3.81 3.6107,-3.984 0.0256,-0.209 0.0562,-0.373 -0.1736,-0.582 -0.2196,-0.204 -1.2002,-0.812 -1.476,-1.001 -0.4494,-0.317 -0.6486,-0.628 -0.5005,-1.016 0.1022,-0.266 0.3524,-0.368 0.6129,-0.368 0.0817,0 0.1634,0.01 0.2451,0.026 0.4954,0.107 0.9755,0.352 1.2513,0.423 0.0357,0.011 0.0664,0.016 0.1021,0.016 0.1481,0 0.1992,-0.077 0.189,-0.245 -0.0307,-0.542 -0.1073,-1.594 -0.0204,-2.579 0.1174,-1.354 0.5515,-2.028 1.0725,-2.62 0.2502,-0.286 1.4198,-1.522 3.6618,-1.522 2.242,0 3.4116,1.23 3.6618,1.516 0.521,0.593 0.9551,1.267 1.0725,2.62 0.0869,0.986 0.0102,2.038 -0.0255,2.58 -0.0102,0.178 0.0409,0.245 0.189,0.245 0.0357,0 0.0664,-0.005 0.1021,-0.016 0.2758,-0.066 0.7559,-0.316 1.2513,-0.424 0.0817,-0.02 0.1634,-0.025 0.2451,-0.025 0.2605,0 0.5107,0.102 0.6129,0.368 0.1481,0.388 -0.0511,0.699 -0.5005,1.016 -0.2707,0.189 -1.2513,0.797 -1.476,1.001 -0.2298,0.209 -0.1992,0.373 -0.1737,0.582 0.0205,0.174 0.5159,2.487 3.6108,3.984 0.1839,0.087 0.4903,0.276 -0.0511,0.577 z"
       fill="#000000"
       id="path7197"
       transform="translate(1.8275,-0.66998)" />
  </g>
</svg>
