<?xml version="1.0" encoding="UTF-8" standalone="no"?>
<svg
   width="20"
   height="20"
   viewBox="0 0 20 20"
   fill="none"
   version="1.1"
   id="svg620"
   xmlns="http://www.w3.org/2000/svg"
   xmlns:svg="http://www.w3.org/2000/svg">
  <defs
     id="defs624" />
  <g
     id="New_Layer_1653473784.875075"
     style="display:inline"
     transform="translate(-334.39108,-139.39264)">
    <path
       fill-rule="evenodd"
       clip-rule="evenodd"
       d="m 352.56358,150.06262 c 0,5.523 -4.4772,10 -10,10 -5.5228,0 -10,-4.477 -10,-10 0,-5.523 4.4772,-10 10,-10 5.5228,0 10,4.477 10,10 z m -9.6417,-2.618 c -0.9726,0.405 -2.9165,1.242 -5.8317,2.512 -0.4734,0.189 -0.7214,0.373 -0.744,0.553 -0.0381,0.304 0.343,0.424 0.8619,0.587 0.0706,0.022 0.1438,0.045 0.2188,0.07 0.5105,0.166 1.1974,0.36 1.5544,0.368 0.3239,0.007 0.6854,-0.127 1.0845,-0.401 2.7237,-1.838 4.1298,-2.768 4.218,-2.788 0.0623,-0.014 0.1486,-0.032 0.2071,0.02 0.0585,0.052 0.0527,0.151 0.0465,0.177 -0.0377,0.161 -1.5337,1.552 -2.3079,2.271 -0.2413,0.225 -0.4125,0.384 -0.4475,0.42 -0.0784,0.082 -0.1583,0.159 -0.2351,0.233 -0.4743,0.457 -0.8301,0.8 0.0197,1.36 0.4083,0.269 0.7351,0.492 1.0611,0.714 0.356,0.242 0.7111,0.484 1.1706,0.785 0.117,0.077 0.2288,0.157 0.3377,0.234 0.4143,0.295 0.7865,0.561 1.2464,0.519 0.2672,-0.025 0.5432,-0.276 0.6834,-1.026 0.3313,-1.771 0.9825,-5.608 1.133,-7.189 0.0131,-0.139 -0.003,-0.316 -0.0168,-0.394 -0.0133,-0.078 -0.0411,-0.189 -0.1423,-0.271 -0.1198,-0.097 -0.3048,-0.117 -0.3875,-0.116 -0.3761,0.007 -0.9532,0.207 -3.7303,1.362 z"
       fill="#000000"
       id="path7216"
       transform="translate(1.8275,-0.66998)" />
  </g>
</svg>
