<?xml version="1.0" encoding="UTF-8" standalone="no"?>
<svg
   width="20"
   height="12.844"
   viewBox="0 0 20 12.844"
   fill="none"
   version="1.1"
   id="svg620"
   xmlns="http://www.w3.org/2000/svg"
   xmlns:svg="http://www.w3.org/2000/svg">
  <defs
     id="defs624" />
  <g
     id="New_Layer_1653473784.8755848"
     style="display:inline"
     transform="translate(-334.39108,-178.97064)">
    <path
       d="m 339.33698,187.07562 c 0,0.351 -0.104,0.694 -0.2989,0.986 -0.1948,0.291 -0.4718,0.519 -0.7959,0.653 -0.324,0.134 -0.6806,0.169 -1.0246,0.101 -0.344,-0.069 -0.66,-0.238 -0.908,-0.486 -0.248,-0.248 -0.4169,-0.564 -0.4853,-0.908 -0.0685,-0.344 -0.0333,-0.7 0.1009,-1.024 0.1342,-0.324 0.3615,-0.601 0.6532,-0.796 0.2916,-0.195 0.6345,-0.299 0.9852,-0.299 0.4703,0 0.9214,0.187 1.254,0.519 0.3326,0.333 0.5194,0.784 0.5194,1.254 z m 8.2222,-1.773 c -0.3508,0 -0.6936,0.104 -0.9853,0.299 -0.2916,0.195 -0.5189,0.472 -0.6531,0.796 -0.1343,0.324 -0.1694,0.68 -0.101,1.024 0.0685,0.344 0.2374,0.66 0.4854,0.908 0.248,0.248 0.564,0.417 0.908,0.486 0.344,0.068 0.7006,0.033 1.0246,-0.101 0.3241,-0.134 0.601,-0.362 0.7959,-0.653 0.1949,-0.292 0.2989,-0.635 0.2989,-0.986 -2e-4,-0.47 -0.1869,-0.921 -0.5193,-1.253 -0.3323,-0.332 -0.7831,-0.519 -1.2531,-0.52 z m 5,1.773 c 0,2.76 -2.2394,4.998 -5,4.998 -1.2593,0.002 -2.4725,-0.474 -3.3954,-1.33 l -1.6002,1.741 -1.601,-1.743 c -0.9228,0.857 -2.1364,1.333 -3.3963,1.332 -2.7586,0 -4.9973,-2.238 -4.9973,-4.998 -9e-4,-0.695 0.1436,-1.383 0.4244,-2.019 0.2807,-0.636 0.6914,-1.206 1.2057,-1.674 l -1.6355,-1.779 h 3.6335 c 1.8787,-1.279 4.0987,-1.963 6.3712,-1.963 2.2725,0 4.4924,0.684 6.3712,1.963 h 3.6241 l -1.6352,1.779 c 0.5144,0.468 0.9253,1.038 1.2062,1.674 0.2809,0.636 0.4256,1.324 0.4248,2.019 z m -11.6123,0 c 0,-0.669 -0.1984,-1.322 -0.57,-1.879 -0.3717,-0.556 -0.8999,-0.989 -1.5179,-1.245 -0.618,-0.256 -1.298,-0.323 -1.9541,-0.193 -0.656,0.131 -1.2586,0.453 -1.7316,0.926 -0.473,0.473 -0.7951,1.076 -0.9255,1.732 -0.1305,0.656 -0.0635,1.336 0.1925,1.954 0.256,0.618 0.6896,1.146 1.2458,1.517 0.5562,0.372 1.2101,0.57 1.879,0.57 0.4441,0 0.8839,-0.087 1.2943,-0.257 0.4103,-0.17 0.7831,-0.419 1.0972,-0.733 0.3141,-0.314 0.5632,-0.687 0.7331,-1.097 0.17,-0.411 0.2574,-0.851 0.2574,-1.295 z m 5.3694,-5.049 c -1.1893,-0.495 -2.4649,-0.751 -3.7533,-0.751 -1.2884,0 -2.564,0.256 -3.7533,0.751 2.1352,0.817 3.7539,2.726 3.7539,4.952 0,-2.226 1.6185,-4.135 3.753,-4.952 z m 4.6256,5.049 c 0,-0.669 -0.1983,-1.322 -0.57,-1.879 -0.3716,-0.556 -0.8998,-0.989 -1.5178,-1.245 -0.618,-0.256 -1.298,-0.323 -1.9541,-0.193 -0.656,0.131 -1.2587,0.453 -1.7316,0.926 -0.473,0.473 -0.7951,1.076 -0.9256,1.732 -0.1304,0.656 -0.0634,1.336 0.1926,1.954 0.256,0.618 0.6895,1.146 1.2457,1.517 0.5562,0.372 1.2101,0.57 1.8791,0.57 0.8969,0 1.7571,-0.356 2.3914,-0.99 0.6343,-0.634 0.9906,-1.495 0.9906,-2.392 z"
       fill="#000000"
       id="path5942"
       transform="translate(1.8275,-0.66998)" />
  </g>
</svg>
