<?xml version="1.0" encoding="UTF-8" standalone="no"?>
<svg
   width="20"
   height="16.251806"
   viewBox="0 0 20 16.251806"
   fill="none"
   version="1.1"
   id="svg620"
   xmlns="http://www.w3.org/2000/svg"
   xmlns:svg="http://www.w3.org/2000/svg">
  <defs
     id="defs624" />
  <g
     id="New_Layer_1653473784.8766077"
     style="display:inline"
     transform="translate(-334.39108,-249.26683)">
    <path
       d="m 350.51608,253.98262 c 0.0122,0.176 0.0122,0.353 0.0122,0.531 0,5.422 -4.1276,11.675 -11.675,11.675 v -0.004 c -2.2296,0.004 -4.4128,-0.635 -6.2897,-1.839 0.3242,0.039 0.65,0.058 0.9766,0.059 1.8477,0.002 3.6425,-0.618 5.0961,-1.76 -1.7558,-0.033 -3.2955,-1.178 -3.8334,-2.849 0.6151,0.118 1.2488,0.094 1.8525,-0.071 -1.9143,-0.387 -3.2915,-2.069 -3.2915,-4.022 0,-0.018 0,-0.035 0,-0.052 0.5704,0.318 1.209,0.494 1.8623,0.514 -1.803,-1.205 -2.3587,-3.604 -1.27,-5.479 2.0833,2.563 5.1571,4.122 8.4567,4.287 -0.3307,-1.425 0.121,-2.919 1.1871,-3.921 1.6526,-1.553 4.2518,-1.474 5.8054,0.178 0.9189,-0.181 1.7997,-0.518 2.6057,-0.996 -0.3063,0.95 -0.9474,1.757 -1.8038,2.27 0.8133,-0.096 1.608,-0.314 2.3563,-0.646 -0.5509,0.825 -1.2448,1.544 -2.0475,2.125 z"
       fill="#000000"
       id="path393"
       transform="translate(1.8275,-0.66998)" />
  </g>
</svg>
