<?xml version="1.0" encoding="UTF-8" standalone="no"?>
<svg
   width="470"
   height="399.00299"
   viewBox="0 0 470 399.00299"
   fill="none"
   version="1.1"
   id="svg620"
   xmlns="http://www.w3.org/2000/svg"
   xmlns:svg="http://www.w3.org/2000/svg">
  <defs
     id="defs624" />
  <g
     id="layer1"
     style="display:inline">
    <rect
       width="470"
       height="399.00299"
       fill="#ffffff"
       id="rect4"
       x="0"
       y="0"
       style="stroke-width:0.717063" />
    <path
       d="m 39.824389,37.836947 c -0.155863,-1.458572 -0.812784,-2.594258 -1.970736,-3.407042 -1.146811,-0.812828 -2.638791,-1.219207 -4.475931,-1.219207 -1.291584,0 -2.399416,0.194851 -3.323566,0.584543 -0.924123,0.389701 -1.631165,0.91857 -2.121054,1.586633 -0.48989,0.668054 -0.740441,1.430726 -0.751574,2.288077 0,0.71256 0.161451,1.330528 0.484345,1.853817 0.334027,0.523333 0.784973,0.968691 1.352794,1.336117 0.567857,0.356302 1.196932,0.656895 1.887261,0.901857 0.69032,0.244963 1.386193,0.450946 2.087647,0.617933 l 3.206655,0.801695 c 1.29155,0.300593 2.533013,0.707007 3.724392,1.219163 1.202485,0.5122 2.276917,1.157987 3.223333,1.937372 0.957514,0.779393 1.714641,1.720229 2.271364,2.822508 0.556732,1.102287 0.835059,2.393828 0.835059,3.874674 0,2.004171 -0.512165,3.768924 -1.536512,5.294303 -1.024356,1.514281 -2.505194,2.699974 -4.442531,3.557545 -1.926204,0.846192 -4.258822,1.269098 -6.997845,1.269098 -2.661066,0 -4.971409,-0.411888 -6.931012,-1.236033 C 24.398007,61.096233 22.872629,59.893642 21.77035,58.312712 20.679187,56.731633 20.089073,54.805429 20,52.534065 h 6.095962 c 0.08906,1.191343 0.456491,2.182299 1.102287,2.972817 0.645788,0.790518 1.486391,1.380649 2.521872,1.770341 1.046622,0.389693 2.215707,0.584543 3.507292,0.584543 1.347241,0 2.52746,-0.20043 3.540639,-0.601255 1.024355,-0.411968 1.826006,-0.979789 2.404996,-1.703508 0.578998,-0.734861 0.874037,-1.592213 0.88517,-2.572001 -0.01109,-0.890751 -0.272773,-1.625603 -0.784973,-2.204566 -0.512156,-0.590123 -1.23033,-1.080012 -2.154445,-1.469705 -0.913025,-0.400834 -1.981869,-0.757127 -3.206656,-1.068888 l -3.891387,-1.00209 c -2.816963,-0.723719 -5.043795,-1.820418 -6.680505,-3.290123 -1.625602,-1.480846 -2.438386,-3.446038 -2.438386,-5.895566 0,-2.015269 0.545572,-3.780057 1.636736,-5.294303 1.102287,-1.514246 2.599802,-2.688911 4.492616,-3.52397 1.892832,-0.846183 4.036152,-1.269274 6.42998,-1.269274 2.427263,0 4.553906,0.423091 6.379904,1.269274 1.837139,0.835059 3.279007,1.998591 4.32562,3.490571 1.046622,1.480838 1.586633,3.184381 1.620032,5.110585 z m 22.876528,25.30255 c -2.505123,0 -4.676246,-0.551144 -6.513394,-1.653423 -1.83721,-1.102287 -3.262383,-2.644379 -4.27557,-4.626389 -1.002081,-1.981869 -1.50314,-4.297775 -1.50314,-6.947733 0,-2.649924 0.501059,-4.971409 1.50314,-6.964411 1.013187,-1.993038 2.43836,-3.540683 4.27557,-4.642962 1.837148,-1.102287 4.008271,-1.653431 6.513394,-1.653431 2.505124,0 4.676264,0.551144 6.513395,1.653431 1.83714,1.102279 3.256882,2.649924 4.258857,4.642962 1.013364,1.993002 1.520055,4.314487 1.520055,6.964411 0,2.649958 -0.506691,4.965864 -1.520055,6.947733 -1.001975,1.98201 -2.421717,3.524102 -4.258857,4.626389 -1.837131,1.102279 -4.008271,1.653423 -6.513395,1.653423 z m 0.03344,-4.843506 c 1.358374,0 2.494095,-0.37298 3.407156,-1.118965 0.913061,-0.757127 1.592063,-1.770342 2.037394,-3.03966 0.456711,-1.269274 0.684881,-2.683323 0.684881,-4.242092 0,-1.56992 -0.22817,-2.989548 -0.684881,-4.258822 -0.445331,-1.280452 -1.124333,-2.299219 -2.037394,-3.056338 -0.913061,-0.757127 -2.048782,-1.135686 -3.407156,-1.135686 -1.391818,0 -2.549586,0.378559 -3.474034,1.135686 -0.912691,0.757119 -1.597572,1.775886 -2.053922,3.056338 -0.445692,1.269274 -0.668345,2.688902 -0.668345,4.258822 0,1.558769 0.222653,2.972818 0.668345,4.242092 0.45635,1.269318 1.141231,2.282533 2.053922,3.03966 0.924448,0.745985 2.082216,1.118965 3.474034,1.118965 z m 28.580006,4.843506 c -2.560972,0 -4.759667,-0.562532 -6.596807,-1.686857 -1.826112,-1.124694 -3.234466,-2.677813 -4.225414,-4.659762 -0.97993,-1.993003 -1.469705,-4.286668 -1.469705,-6.880926 0,-2.605392 0.500794,-4.904575 1.502769,-6.897613 1.002346,-2.004136 2.416209,-3.562949 4.24233,-4.67636 1.83714,-1.124554 4.008262,-1.686831 6.513388,-1.686831 2.082213,0 3.924863,0.384148 5.528317,1.1524 1.61448,0.757127 2.90048,1.83156 3.857999,3.223333 0.95751,1.380649 1.50315,2.995092 1.63652,4.843365 h -5.778539 c -0.23368,-1.235884 -0.790704,-2.265784 -1.670327,-3.089736 -0.868232,-0.835059 -2.031875,-1.252562 -3.490564,-1.252562 -1.235658,0 -2.321409,0.333992 -3.256506,1.002046 -0.935477,0.656921 -1.66445,1.603345 -2.188038,2.839229 -0.512191,1.235875 -0.768296,2.716722 -0.768296,4.442531 0,1.748067 0.256105,3.251179 0.768296,4.509329 0.5122,1.247053 1.230515,2.210155 2.154594,2.889342 0.935107,0.668054 2.031876,1.002046 3.28995,1.002046 0.891012,0 1.686863,-0.166996 2.388284,-0.501023 0.71281,-0.34516 1.308405,-0.840639 1.787168,-1.486391 0.478756,-0.645788 0.807239,-1.430761 0.985439,-2.354876 h 5.778539 c -0.14477,1.814865 -0.67901,3.42372 -1.60309,4.82675 -0.924449,1.391808 -2.182519,2.482707 -3.774589,3.27341 -1.59243,0.779314 -3.462633,1.169156 -5.611718,1.169156 z M 107.26845,62.638333 V 36.985175 h 6.04565 v 25.653158 z m 3.03936,-29.294029 c -0.95752,0 -1.78129,-0.317314 -2.47169,-0.951969 -0.69039,-0.645788 -1.03541,-1.419602 -1.03541,-2.321485 0,-0.91299 0.34502,-1.686822 1.03541,-2.321485 0.6904,-0.645753 1.51417,-0.968647 2.47169,-0.968647 0.9689,0 1.79268,0.322894 2.47205,0.968647 0.69003,0.634663 1.03542,1.408495 1.03542,2.321485 0,0.901883 -0.34539,1.675697 -1.03542,2.321485 -0.67937,0.634655 -1.50315,0.951969 -2.47205,0.951969 z m 16.60516,29.811729 c -1.6255,0 -3.08969,-0.289538 -4.39223,-0.868598 -1.2915,-0.590088 -2.31589,-1.458325 -3.07316,-2.605066 -0.74588,-1.146995 -1.11883,-2.561044 -1.11883,-4.242285 0,-1.447439 0.26713,-2.644371 0.80173,-3.59076 0.53425,-0.946424 1.26359,-1.703543 2.18767,-2.271399 0.92408,-0.567822 1.96537,-0.996502 3.12314,-1.285996 1.16915,-0.300602 2.37725,-0.51771 3.62431,-0.651342 1.50314,-0.155862 2.72227,-0.295048 3.65737,-0.417511 0.93548,-0.133632 1.61448,-0.334027 2.03775,-0.601256 0.43431,-0.278362 0.65146,-0.707042 0.65146,-1.286005 v -0.100189 c 0,-1.258185 -0.37331,-2.23242 -1.11918,-2.92274 -0.74588,-0.690329 -1.82025,-1.035489 -3.22345,-1.035489 -1.48074,0 -2.65541,0.322894 -3.52401,0.96869 -0.8572,0.645788 -1.43627,1.40846 -1.73683,2.288077 l -5.64479,-0.80165 c 0.44532,-1.558813 1.18018,-2.861496 2.20456,-3.908109 1.02403,-1.057746 2.27696,-1.848273 3.7577,-2.371597 1.48073,-0.534431 3.11762,-0.80166 4.90993,-0.80166 1.23603,0 2.46654,0.144765 3.69118,0.434225 1.22464,0.289503 2.34382,0.768295 3.35682,1.436314 1.01337,0.65693 1.82612,1.553225 2.43862,2.688911 0.62352,1.135678 0.9351,2.555315 0.9351,4.258823 v 17.168912 h -5.81197 v -3.524005 h -0.20061 c -0.36743,0.712445 -0.88514,1.38079 -1.55312,2.004311 -0.65696,0.612143 -1.48625,1.107797 -2.48859,1.486251 -0.99096,0.367426 -2.15423,0.551143 -3.49057,0.551143 z m 1.57002,-4.442575 c 1.21361,0 2.26593,-0.239303 3.15657,-0.718095 0.89065,-0.48989 1.57553,-1.135678 2.0543,-1.937337 0.48978,-0.80166 0.73485,-1.675697 0.73485,-2.622113 V 50.41301 c -0.18923,0.155863 -0.51219,0.300628 -0.96854,0.434233 -0.44532,0.133588 -0.9465,0.250507 -1.50315,0.350705 -0.55665,0.100232 -1.10779,0.189297 -1.65342,0.267228 -0.54563,0.07789 -1.01888,0.14473 -1.41975,0.200431 -0.90166,0.122463 -1.7089,0.322894 -2.42171,0.60122 -0.71244,0.278371 -1.27497,0.668063 -1.68686,1.169086 -0.41189,0.489925 -0.61801,1.124588 -0.61801,1.903973 0,1.113421 0.40674,1.954015 1.21949,2.52188 0.81274,0.567857 1.84816,0.851692 3.10623,0.851692 z M 152.58294,28.43414 V 62.638333 H 146.5373 V 28.43414 Z m 18.15021,0 h 7.58224 l 10.1546,24.784656 h 0.40049 L 199.02509,28.43414 h 7.58224 v 34.204193 h -5.94572 V 39.139664 h -0.31709 l -9.45318,23.398357 h -4.44219 l -9.45318,-23.448469 h -0.3171 v 23.548781 h -5.94571 z m 53.71133,34.705357 c -2.572,0 -4.79346,-0.534607 -6.66404,-1.603451 -1.85918,-1.079872 -3.28995,-2.605427 -4.29229,-4.576137 -1.00198,-1.981905 -1.50279,-4.314514 -1.50279,-6.997837 0,-2.638799 0.50081,-4.954695 1.50279,-6.947733 1.01336,-2.004136 2.4276,-3.562949 4.24232,-4.67636 1.81472,-1.124554 3.94691,-1.686831 6.39655,-1.686831 1.58104,0 3.07317,0.256096 4.47601,0.768261 1.41386,0.501058 2.66091,1.280442 3.74114,2.338198 1.0909,1.057746 1.94847,2.40496 2.572,4.041705 0.62353,1.625576 0.9351,3.562905 0.9351,5.812047 v 1.853817 h -21.02678 v -4.075104 h 15.23135 c -0.011,-1.157944 -0.2616,-2.187845 -0.75139,-3.089737 -0.48977,-0.91299 -1.17466,-1.631156 -2.05429,-2.154454 -0.86859,-0.523324 -1.88159,-0.784964 -3.03973,-0.784964 -1.23566,0 -2.32141,0.300628 -3.25651,0.901883 -0.93547,0.590088 -1.66481,1.369481 -2.18803,2.338163 -0.51219,0.957522 -0.77381,2.009724 -0.78483,3.156535 v 3.55736 c 0,1.49198 0.27264,2.772431 0.81826,3.841319 0.54564,1.057747 1.30841,1.870539 2.28798,2.438361 0.97992,0.556723 2.12667,0.835085 3.44059,0.835085 0.87962,0 1.67584,-0.122499 2.38828,-0.367427 0.71244,-0.256095 1.33046,-0.62911 1.85367,-1.119 0.52359,-0.489889 0.91857,-1.096698 1.18606,-1.820418 l 5.64479,0.63462 c -0.35603,1.491971 -1.03541,2.794688 -2.03738,3.908074 -0.99096,1.102278 -2.26042,1.959488 -3.80803,2.571992 -1.5476,0.601114 -3.31787,0.902033 -5.31079,0.902033 z m 26.04144,-0.05034 c -2.01534,0 -3.81904,-0.517701 -5.41148,-1.553119 -1.59206,-1.03541 -2.85013,-2.538549 -3.77421,-4.50933 -0.92445,-1.970771 -1.38631,-4.364599 -1.38631,-7.181554 0,-2.850362 0.46774,-5.255323 1.40284,-7.214927 0.94649,-1.970771 2.22147,-3.457162 3.82455,-4.459252 1.60346,-1.013214 3.39026,-1.519826 5.36115,-1.519826 1.50315,0 2.73917,0.256096 3.70771,0.768252 0.96854,0.501067 1.73684,1.107867 2.30488,1.820462 0.56767,0.701453 1.00748,1.363927 1.31943,1.987449 h 0.25022 V 28.43414 h 6.06255 v 34.204184 h -5.94534 v -4.041705 h -0.36743 c -0.31195,0.623521 -0.76278,1.285996 -1.35287,1.987414 -0.59009,0.690399 -1.3694,1.280486 -2.33832,1.770271 -0.96853,0.490145 -2.18766,0.734852 -3.65737,0.734853 z m 1.68687,-4.960161 c 1.28011,0 2.37137,-0.34516 3.27341,-1.035489 0.90166,-0.701453 1.58655,-1.675688 2.05429,-2.922741 0.46737,-1.247008 0.70142,-2.7 0.70142,-4.35902 0,-1.658966 -0.23405,-3.100869 -0.70142,-4.325611 -0.45671,-1.224787 -1.13572,-2.176756 -2.03776,-2.855908 -0.89064,-0.679187 -1.98742,-1.018802 -3.28994,-1.018802 -1.34737,0 -2.47206,0.350748 -3.37373,1.052202 -0.90204,0.701453 -1.58104,1.670108 -2.03775,2.906027 -0.45635,1.235876 -0.68452,2.649924 -0.68452,4.242092 0,1.603311 0.22817,3.034072 0.68452,4.292222 0.46774,1.247052 1.15262,2.23242 2.05429,2.95614 0.91305,0.712595 2.03188,1.068888 3.35719,1.068888 z m 18.41732,4.509329 v -25.65315 h 6.04565 v 25.653149 z m 3.03936,-29.294029 c -0.95752,0 -1.78129,-0.317305 -2.47169,-0.951969 -0.6904,-0.645788 -1.03541,-1.419593 -1.03541,-2.321476 0,-0.91299 0.34501,-1.686822 1.03541,-2.321485 0.6904,-0.645753 1.51417,-0.968656 2.47169,-0.968656 0.96891,0 1.79268,0.322903 2.47206,0.968656 0.69003,0.634663 1.03541,1.408495 1.03541,2.321485 0,0.901883 -0.34538,1.675688 -1.03541,2.321476 -0.67938,0.634664 -1.50315,0.951969 -2.47206,0.951969 z m 16.60516,29.811738 c -1.62549,0 -3.0897,-0.289538 -4.39223,-0.868607 -1.29151,-0.590087 -2.3159,-1.458316 -3.07317,-2.605057 -0.74587,-1.147004 -1.11881,-2.561052 -1.11881,-4.242285 0,-1.447448 0.26712,-2.644379 0.80172,-3.59076 0.53425,-0.946424 1.26359,-1.703552 2.18767,-2.271408 0.92408,-0.567821 1.96537,-0.996501 3.12314,-1.285996 1.16915,-0.300593 2.37725,-0.517701 3.6243,-0.651333 1.50315,-0.155862 2.72228,-0.295048 3.65738,-0.417511 0.93547,-0.133632 1.61448,-0.334027 2.03775,-0.601265 0.4343,-0.278361 0.65146,-0.707041 0.65146,-1.285996 v -0.100197 c 0,-1.258177 -0.37331,-2.232412 -1.11919,-2.922741 -0.74588,-0.69032 -1.82024,-1.03548 -3.22345,-1.03548 -1.48073,0 -2.65539,0.322894 -3.52399,0.968682 -0.85721,0.645788 -1.43628,1.408468 -1.73683,2.288085 l -5.6448,-0.80165 c 0.44533,-1.558822 1.18018,-2.861496 2.20457,-3.908118 1.02402,-1.057746 2.27694,-1.848264 3.75768,-2.371597 1.48074,-0.534422 3.11763,-0.801651 4.90994,-0.801651 1.23602,0 2.46654,0.144765 3.69118,0.434225 1.22463,0.289495 2.34382,0.768295 3.35682,1.436314 1.01336,0.656921 1.82611,1.553225 2.43862,2.688911 0.62352,1.135678 0.9351,2.555306 0.9351,4.258814 v 17.168912 h -5.81197 V 59.11432 h -0.20061 c -0.36744,0.712445 -0.88514,1.380799 -1.55313,2.00432 -0.65695,0.612134 -1.48624,1.107797 -2.48859,1.486251 -0.99094,0.367426 -2.15422,0.551143 -3.49056,0.551143 z m 1.57002,-4.442575 c 1.21362,0 2.26593,-0.239303 3.15657,-0.718104 0.89064,-0.48989 1.57553,-1.135678 2.05429,-1.937328 0.48979,-0.80166 0.73486,-1.675697 0.73486,-2.622113 V 50.41301 c -0.18922,0.155863 -0.5122,0.300628 -0.96854,0.434224 -0.44533,0.133597 -0.94649,0.250516 -1.50315,0.350714 -0.55665,0.100232 -1.10779,0.189297 -1.65343,0.267228 -0.54562,0.07789 -1.01887,0.14473 -1.41973,0.200431 -0.90167,0.122463 -1.70891,0.322894 -2.42172,0.60122 -0.71244,0.278371 -1.27498,0.668054 -1.68686,1.169086 -0.41189,0.489925 -0.61802,1.12458 -0.61802,1.903973 0,1.113421 0.40674,1.954015 1.2195,2.52188 0.81275,0.567857 1.84816,0.851692 3.10623,0.851693 z M 327.98784,28.43414 V 62.638324 H 321.7919 V 28.43414 Z m 17.63249,34.705357 c -2.56097,0 -4.75966,-0.562532 -6.59679,-1.686866 -1.82612,-1.124694 -3.23448,-2.677813 -4.22543,-4.659753 -0.97992,-1.993003 -1.46971,-4.286668 -1.46971,-6.880926 0,-2.6054 0.50081,-4.904584 1.50278,-6.897622 1.00235,-2.004127 2.41621,-3.56294 4.24232,-4.67636 1.83714,-1.124545 4.00827,-1.686822 6.5134,-1.686822 2.0822,0 3.92486,0.384139 5.52831,1.1524 1.61448,0.757127 2.90048,1.83156 3.858,3.223333 0.95751,1.380649 1.50314,2.995092 1.63652,4.843356 h -5.77854 c -0.23368,-1.235875 -0.7907,-2.265775 -1.67033,-3.089727 -0.86823,-0.835059 -2.03187,-1.252571 -3.49056,-1.252571 -1.23566,0 -2.3214,0.334001 -3.25651,1.002055 -0.93547,0.656921 -1.66445,1.603336 -2.18803,2.839229 -0.5122,1.235875 -0.7683,2.716722 -0.7683,4.442522 0,1.748076 0.2561,3.251188 0.7683,4.509338 0.51219,1.247053 1.23051,2.210155 2.15459,2.889342 0.9351,0.668054 2.03188,1.002046 3.28995,1.002046 0.89102,0 1.68687,-0.166996 2.38828,-0.501023 0.71281,-0.345169 1.30842,-0.840639 1.78717,-1.486391 0.47876,-0.645788 0.80724,-1.43077 0.98544,-2.354884 h 5.77854 c -0.14477,1.814873 -0.67901,3.423728 -1.60309,4.826749 -0.92444,1.391817 -2.18252,2.482716 -3.77458,3.273419 -1.59243,0.779314 -3.46264,1.169156 -5.61173,1.169156 z m 27.14373,0 c -2.50512,0 -4.67626,-0.551144 -6.51339,-1.653423 -1.83714,-1.102287 -3.2624,-2.644379 -4.27576,-4.626398 -1.00198,-1.981869 -1.50278,-4.297766 -1.50278,-6.947724 0,-2.649933 0.5008,-4.971409 1.50278,-6.964411 1.01336,-1.993038 2.43862,-3.540683 4.27576,-4.64297 1.83713,-1.102279 4.00827,-1.653423 6.51339,-1.653423 2.50512,0 4.67625,0.551144 6.51339,1.653423 1.83714,1.102287 3.25689,2.649932 4.25886,4.64297 1.01337,1.993002 1.52005,4.314478 1.52005,6.964411 0,2.649958 -0.50668,4.965855 -1.52005,6.947724 -1.00197,1.982019 -2.42172,3.524111 -4.25886,4.626398 -1.83714,1.102279 -4.00827,1.653423 -6.51339,1.653423 z m 0.0334,-4.843506 c 1.35839,0 2.49411,-0.37298 3.40716,-1.118965 0.91306,-0.757127 1.59207,-1.770342 2.03738,-3.03966 0.45672,-1.269274 0.68489,-2.683323 0.68489,-4.242101 0,-1.569911 -0.22817,-2.989539 -0.68489,-4.258822 -0.44531,-1.280443 -1.12432,-2.299219 -2.03738,-3.056329 -0.91305,-0.757127 -2.04877,-1.135686 -3.40716,-1.135686 -1.39181,0 -2.54957,0.378559 -3.47402,1.135686 -0.91269,0.75711 -1.59757,1.775886 -2.05392,3.056329 -0.4457,1.269283 -0.66836,2.688911 -0.66836,4.258822 0,1.558778 0.22266,2.972827 0.66836,4.242101 0.45635,1.269318 1.14123,2.282533 2.05392,3.03966 0.92445,0.745985 2.08221,1.118965 3.47402,1.118965 z m 23.43455,-10.688803 v 15.031136 h -6.04419 V 36.985175 h 5.77964 v 4.359055 h 0.30129 c 0.58789,-1.436314 1.5285,-2.57758 2.82185,-3.423763 1.30069,-0.846227 2.91003,-1.269319 4.82433,-1.269319 1.771,0 3.31419,0.37856 4.62591,1.135678 1.32641,0.757127 2.35154,1.853861 3.07538,3.290176 0.73485,1.436305 1.09493,3.178801 1.08391,5.227504 v 16.333818 h -6.0442 V 47.239753 c 0,-1.714667 -0.44458,-3.056337 -1.33743,-4.024984 -0.87815,-0.96869 -2.09801,-1.453036 -3.65591,-1.453036 -1.05818,0 -1.9988,0.233839 -2.82185,0.701462 -0.81568,0.456491 -1.455,1.119 -1.92164,1.987458 -0.45561,0.868449 -0.68709,1.920651 -0.68709,3.156535 z m 42.88985,-3.841284 -5.51142,0.601229 c -0.15432,-0.556697 -0.42989,-1.080012 -0.81936,-1.569911 -0.37845,-0.48989 -0.88918,-0.88517 -1.53585,-1.185798 -0.64667,-0.300628 -1.43665,-0.450911 -2.36991,-0.450911 -1.26028,0 -2.31847,0.272782 -3.17457,0.818337 -0.84509,0.54559 -1.26396,1.252597 -1.25293,2.12109 -0.011,0.745985 0.26087,1.352794 0.81936,1.820418 0.56952,0.467624 1.50277,0.851772 2.80715,1.152399 l 4.37606,0.935257 c 2.42503,0.523324 4.2291,1.352794 5.40854,2.488472 1.19046,1.135721 1.79305,2.622113 1.80407,4.459252 -0.011,1.614444 -0.485,3.039616 -1.41828,4.27543 -0.92591,1.224997 -2.21191,2.18252 -3.85798,2.872549 -1.64976,0.6904 -3.54201,1.03578 -5.68043,1.03578 -3.13785,0 -5.66575,-0.656965 -7.58004,-1.970886 -1.91798,-1.32494 -3.057,-3.167668 -3.42443,-5.528132 l 5.89355,-0.567822 c 0.26821,1.157944 0.83773,2.031982 1.70485,2.622113 0.86714,0.590088 1.99881,0.885127 3.39136,0.885127 1.43665,0 2.5867,-0.295039 3.4575,-0.885127 0.87815,-0.590131 1.31907,-1.319439 1.31907,-2.187888 0,-0.734852 -0.28292,-1.341661 -0.85244,-1.820427 -0.55849,-0.478792 -1.42562,-0.846218 -2.60506,-1.102278 l -4.37606,-0.91857 c -2.46177,-0.512192 -4.28054,-1.375096 -5.45998,-2.588714 -1.18312,-1.224742 -1.76733,-2.772387 -1.7563,-4.642961 -0.011,-1.581044 0.41886,-2.95056 1.28599,-4.108504 0.88183,-1.169086 2.10169,-2.070934 3.65959,-2.705598 1.5689,-0.645788 3.37666,-0.968682 5.4269,-0.968682 3.00557,0 5.3718,0.640244 7.0987,1.920651 1.73794,1.280417 2.81083,3.011814 3.22235,5.194105 z"
       fill="#000000"
       id="path1441"
       style="display:inline;stroke-width:0.367428"
       transform="translate(1.8275,-0.66998)" />
    <path
       d="M 21.415457,95.706832 V 82.880287 h 1.478057 v 4.734674 h 0.125262 c 0.108558,-0.166811 0.258868,-0.379914 0.450937,-0.638588 0.196241,-0.263075 0.475976,-0.497133 0.83924,-0.701418 0.367434,-0.209064 0.864268,-0.313416 1.490589,-0.313416 0.809994,0 1.523979,0.202455 2.141921,0.607724 0.617977,0.404901 1.100219,0.97883 1.446743,1.72214 0.34656,0.743301 0.51984,1.619987 0.51984,2.630412 0,1.018874 -0.17328,1.90181 -0.51984,2.64952 -0.346524,0.74294 -0.826715,1.31907 -1.440459,1.728388 -0.613797,0.4049 -1.32149,0.607354 -2.123149,0.607354 -0.617942,0 -1.112717,-0.102142 -1.484332,-0.306806 -0.371615,-0.208694 -0.657625,-0.444583 -0.858029,-0.707666 -0.200413,-0.267123 -0.354903,-0.488306 -0.463461,-0.663935 h -0.175357 v 1.478162 z m 1.45301,-4.810003 c 0,0.726405 0.106472,1.367564 0.319408,1.922747 0.212937,0.551144 0.52402,0.983239 0.93318,1.296293 0.409168,0.308998 0.910235,0.46369 1.503112,0.46369 0.617942,0 1.133592,-0.162771 1.546941,-0.488675 0.417547,-0.329583 0.730707,-0.772335 0.939481,-1.327519 0.212919,-0.559592 0.3194,-1.181653 0.3194,-1.866536 0,-0.676432 -0.104387,-1.285996 -0.313152,-1.828691 -0.204584,-0.547095 -0.515649,-0.979199 -0.933196,-1.296645 -0.413358,-0.321503 -0.933162,-0.482066 -1.559474,-0.482066 -0.60122,0 -1.106432,0.152475 -1.515645,0.457081 -0.40916,0.300557 -0.718139,0.722355 -0.926913,1.26505 -0.208765,0.538646 -0.313142,1.167316 -0.313142,1.885271 z m 12.131391,5.035595 c -0.609598,0 -1.162837,-0.115001 -1.659706,-0.344641 -0.496869,-0.233689 -0.891419,-0.569881 -1.183712,-1.008224 -0.29225,-0.442752 -0.438414,-0.97699 -0.438414,-1.603451 0,-0.551144 0.108576,-0.997936 0.325693,-1.340376 0.217116,-0.346489 0.507306,-0.617652 0.870552,-0.81386 0.363263,-0.196575 0.764098,-0.34244 1.202511,-0.438704 0.442568,-0.09994 0.88723,-0.179308 1.333987,-0.237728 0.584543,-0.07533 1.058451,-0.131537 1.421723,-0.169381 0.367426,-0.04154 0.634619,-0.1106 0.801651,-0.206494 0.171185,-0.0959 0.256755,-0.263084 0.256755,-0.501173 v -0.04999 c 0,-0.618013 -0.169081,-1.098239 -0.507271,-1.44068 -0.334027,-0.342071 -0.841325,-0.5133 -1.52192,-0.5133 -0.705608,0 -1.258837,0.154323 -1.659671,0.463329 -0.400826,0.309006 -0.682672,0.638958 -0.845523,0.989487 l -1.402915,-0.500812 c 0.250551,-0.584569 0.584578,-1.039819 1.00209,-1.365362 0.421692,-0.329943 0.880981,-0.559583 1.37785,-0.688921 0.501067,-0.133746 0.993747,-0.200615 1.478057,-0.200615 0.309006,0 0.663908,0.03784 1.064734,0.112792 0.404979,0.07094 0.795367,0.219361 1.171171,0.444592 0.379959,0.225601 0.695179,0.565841 0.945686,1.021082 0.250551,0.45488 0.375813,1.064444 0.375813,1.828691 v 6.338127 H 37.930898 V 94.40428 h -0.07516 c -0.100197,0.208703 -0.267229,0.432094 -0.501023,0.669823 -0.233829,0.238097 -0.544895,0.440543 -0.933197,0.607733 -0.388293,0.166811 -0.8622,0.250577 -1.421687,0.250577 z m 0.22546,-1.327879 c 0.584534,0 1.077214,-0.11464 1.478048,-0.344641 0.405015,-0.22928 0.709797,-0.525797 0.914416,-0.889184 0.208738,-0.363387 0.313116,-0.745141 0.313116,-1.14601 v -1.352867 c -0.06257,0.07498 -0.200386,0.144037 -0.413349,0.206496 -0.208738,0.05844 -0.450911,0.110961 -0.726482,0.156893 -0.271418,0.04154 -0.536552,0.07903 -0.795403,0.112431 -0.254705,0.02939 -0.461384,0.05439 -0.620036,0.07533 -0.384148,0.0499 -0.743196,0.131537 -1.077223,0.244337 -0.329882,0.108392 -0.597075,0.273363 -0.801659,0.494563 -0.200431,0.217144 -0.300628,0.513661 -0.300628,0.889536 0,0.5133 0.189957,0.901673 0.569916,1.164747 0.384147,0.259035 0.870552,0.388372 1.459284,0.388372 z m 13.695539,-6.363122 -1.327739,0.375883 c -0.08352,-0.221561 -0.206679,-0.436504 -0.369529,-0.645198 -0.158644,-0.213112 -0.375761,-0.388372 -0.651333,-0.526167 -0.275572,-0.137777 -0.62838,-0.206485 -1.05845,-0.206485 -0.588732,0 -1.079326,0.135577 -1.471808,0.40674 -0.388293,0.267483 -0.582449,0.607724 -0.582449,1.021082 0,0.367426 0.133597,0.657695 0.400835,0.870438 0.267228,0.213103 0.684766,0.390572 1.252596,0.532398 l 1.427972,0.350898 c 0.860114,0.208694 1.501018,0.527988 1.92271,0.958254 0.421736,0.425847 0.63256,0.974781 0.63256,1.647183 0,0.551135 -0.158653,1.043489 -0.475967,1.477792 -0.313151,0.434295 -0.751565,0.776736 -1.315241,1.027322 -0.563667,0.250587 -1.219198,0.375514 -1.966582,0.375514 -0.98118,0 -1.793268,-0.212742 -2.436266,-0.638588 -0.642998,-0.425855 -1.050107,-1.047907 -1.221292,-1.866535 l 1.402915,-0.350528 c 0.133597,0.517709 0.386198,0.906081 0.757814,1.164746 0.375769,0.259036 0.866354,0.388373 1.471808,0.388373 0.688929,0 1.235884,-0.146235 1.640898,-0.438344 0.409169,-0.296509 0.613744,-0.651447 0.613744,-1.064804 0,-0.333992 -0.11691,-0.613603 -0.350704,-0.839204 -0.233838,-0.229649 -0.592913,-0.400861 -1.077232,-0.51367 l -1.603336,-0.375505 c -0.880982,-0.209064 -1.528169,-0.5324 -1.941527,-0.971113 -0.409168,-0.442383 -0.613752,-0.995727 -0.613752,-1.659671 0,-0.542695 0.152412,-1.022921 0.457185,-1.440318 0.308971,-0.417398 0.728613,-0.745141 1.258846,-0.983239 0.534466,-0.238089 1.139876,-0.357138 1.816273,-0.357138 0.951969,0 1.699354,0.208694 2.242154,0.626461 0.546955,0.417398 0.935248,0.968541 1.164897,1.653423 z m 6.43365,7.665654 c -0.926905,0 -1.726505,-0.204285 -2.398713,-0.613603 -0.668054,-0.413358 -1.183704,-0.989487 -1.546941,-1.728748 -0.359091,-0.742941 -0.538646,-1.6075 -0.538646,-2.592571 0,-0.985447 0.179555,-1.854037 0.538646,-2.605435 0.363237,-0.755798 0.86845,-1.344416 1.515637,-1.766222 0.651341,-0.425847 1.411258,-0.638959 2.279707,-0.638959 0.501023,0 0.995806,0.08378 1.484226,0.250586 0.488676,0.167181 0.933268,0.438335 1.334128,0.814219 0.400861,0.371466 0.720155,0.864189 0.958253,1.478162 0.238089,0.613612 0.357138,1.369402 0.357138,2.267034 v 0.626463 h -7.415533 v -1.277918 h 5.912385 c 0,-0.542686 -0.108752,-1.026961 -0.325904,-1.452807 -0.212742,-0.425855 -0.517709,-0.762047 -0.91431,-1.008224 -0.392482,-0.246538 -0.855961,-0.369627 -1.390383,-0.369627 -0.588732,0 -1.098098,0.146235 -1.528168,0.438344 -0.425882,0.28806 -0.753634,0.663935 -0.983274,1.127264 -0.22964,0.463698 -0.344465,0.960453 -0.344465,1.49065 v 0.851703 c 0,0.726773 0.125262,1.342577 0.37577,1.847798 0.254705,0.500794 0.607504,0.882926 1.05845,1.146001 0.450937,0.259035 0.97493,0.388372 1.571997,0.388372 0.388302,0 0.73905,-0.05439 1.052175,-0.162771 0.317385,-0.112801 0.590748,-0.279981 0.820388,-0.501173 0.22964,-0.225601 0.407109,-0.505212 0.532407,-0.839204 l 1.427821,0.40087 c -0.150274,0.484266 -0.4027,0.910112 -0.757638,1.277547 -0.354929,0.363378 -0.793272,0.647037 -1.315391,0.851692 -0.521784,0.200615 -1.108421,0.300557 -1.759762,0.300557 z m 9.86412,0 c -0.80173,0 -1.509397,-0.202454 -2.123,-0.607354 -0.613973,-0.409318 -1.09383,-0.985448 -1.440688,-1.728388 -0.346481,-0.74771 -0.51954,-1.630646 -0.51954,-2.64952 0,-1.010425 0.173059,-1.887111 0.51954,-2.630412 0.346858,-0.74331 0.828924,-1.317239 1.446937,-1.72214 0.618012,-0.405269 1.331918,-0.607724 2.141736,-0.607724 0.626462,0 1.121385,0.104352 1.484411,0.313416 0.367426,0.204285 0.647407,0.438343 0.839204,0.701418 0.196206,0.258674 0.348681,0.471777 0.457441,0.638588 h 0.124928 v -4.734674 h 1.478163 V 95.706832 H 68.199937 V 94.22867 h -0.175269 c -0.10876,0.175629 -0.263074,0.396812 -0.463689,0.663935 -0.200246,0.263083 -0.486476,0.498972 -0.85795,0.707666 -0.371466,0.204664 -0.86639,0.306806 -1.484402,0.306806 z m 0.200615,-1.327518 c 0.592657,0 1.09383,-0.154692 1.503148,-0.46369 0.408948,-0.313054 0.720155,-0.745149 0.932897,-1.296293 0.213104,-0.555183 0.319664,-1.196342 0.319664,-1.922747 0,-0.717955 -0.104351,-1.346625 -0.313415,-1.885271 -0.208703,-0.542695 -0.517709,-0.964493 -0.926658,-1.26505 -0.409309,-0.304606 -0.914521,-0.457081 -1.515636,-0.457081 -0.62647,0 -1.14821,0.160563 -1.565977,0.482066 -0.413358,0.317446 -0.724195,0.74955 -0.932898,1.296645 -0.204663,0.542695 -0.307167,1.152259 -0.307167,1.828691 0,0.684883 0.104343,1.306944 0.313407,1.866536 0.212743,0.555184 0.525797,0.997936 0.939146,1.327519 0.417767,0.325904 0.935476,0.488675 1.553489,0.488675 z m 15.989362,1.327518 c -0.868607,0 -1.630645,-0.206494 -2.286141,-0.619851 -0.651447,-0.413358 -1.160707,-0.991688 -1.528133,-1.734989 -0.363387,-0.74294 -0.544895,-1.611548 -0.544895,-2.605437 0,-1.001975 0.181508,-1.876822 0.544895,-2.624163 0.367426,-0.74735 0.876686,-1.327527 1.528133,-1.740876 0.655496,-0.413358 1.417534,-0.620222 2.286141,-0.620222 0.868229,0 1.628437,0.206864 2.279514,0.620222 0.655495,0.413349 1.165117,0.993526 1.528133,1.740876 0.367427,0.747341 0.551144,1.622188 0.551144,2.624163 0,0.993889 -0.183717,1.862497 -0.551144,2.605437 -0.363016,0.743301 -0.872638,1.321631 -1.528133,1.734989 -0.651077,0.413357 -1.411285,0.619851 -2.279514,0.619851 z m 0,-1.327518 c 0.659526,0 1.202221,-0.16902 1.628437,-0.507412 0.425846,-0.33804 0.741101,-0.782993 0.945386,-1.334137 0.204663,-0.551144 0.307175,-1.14821 0.307175,-1.79121 0,-0.642998 -0.102512,-1.241904 -0.307175,-1.797457 -0.204285,-0.555183 -0.51954,-1.004184 -0.945386,-1.346255 -0.426216,-0.34244 -0.968911,-0.513661 -1.628437,-0.513661 -0.659904,0 -1.20259,0.171221 -1.628445,0.513661 -0.425846,0.342071 -0.741101,0.791072 -0.945756,1.346255 -0.204663,0.555553 -0.306806,1.154459 -0.306806,1.797457 0,0.643 0.102143,1.240066 0.306806,1.79121 0.204655,0.551144 0.51991,0.996097 0.945756,1.334137 0.425855,0.338392 0.968541,0.507412 1.628445,0.507412 z m 8.09333,-4.65972 v 5.786993 h -1.478171 v -9.620004 h 1.42783 v 1.503148 h 0.125298 c 0.225592,-0.488306 0.568041,-0.881087 1.027321,-1.177235 0.45929,-0.300928 1.051947,-0.451202 1.77872,-0.451202 0.65108,0 1.220962,0.133738 1.709644,0.400861 0.488676,0.263083 0.868598,0.663944 1.13976,1.20259 0.271526,0.534246 0.40711,1.210679 0.40711,2.029306 v 6.112536 h -1.478164 v -6.012593 c 0,-0.755429 -0.196205,-1.344416 -0.588621,-1.765853 -0.392411,-0.426225 -0.931059,-0.638959 -1.615945,-0.638959 -0.471777,0 -0.893214,0.102143 -1.265058,0.306797 -0.367427,0.204655 -0.657326,0.503012 -0.87043,0.895794 -0.213112,0.392403 -0.319294,0.868229 -0.319294,1.427821 z M 103.5013,82.880287 h 1.85367 l 4.35916,10.646956 h 0.15028 l 4.3588,-10.646956 h 1.85404 v 12.826545 h -1.45318 v -9.745293 h -0.12529 l -4.00827,9.745293 h -1.40285 l -4.00826,-9.745293 h -0.1253 v 9.745293 h -1.4528 z m 18.32068,13.052137 c -0.60956,0 -1.1629,-0.115001 -1.65967,-0.344641 -0.49713,-0.233689 -0.89138,-0.569881 -1.18385,-1.008224 -0.29211,-0.442752 -0.43834,-0.97699 -0.43834,-1.603451 0,-0.551144 0.10839,-0.997936 0.32554,-1.340376 0.21715,-0.346489 0.50741,-0.617652 0.87081,-0.81386 0.36301,-0.196575 0.76387,-0.34244 1.20222,-0.438704 0.44275,-0.09994 0.88733,-0.179308 1.33413,-0.237728 0.58457,-0.07533 1.05856,-0.131537 1.42158,-0.169381 0.36742,-0.04154 0.63491,-0.1106 0.80172,-0.206494 0.17122,-0.0959 0.25683,-0.263084 0.25683,-0.501173 v -0.04999 c 0,-0.618013 -0.16902,-1.098239 -0.50741,-1.44068 -0.334,-0.342071 -0.84104,-0.5133 -1.52188,-0.5133 -0.70547,0 -1.25881,0.154323 -1.65968,0.463329 -0.40086,0.309006 -0.68268,0.638958 -0.84545,0.989487 l -1.40284,-0.500812 c 0.25058,-0.584569 0.58458,-1.039819 1.00197,-1.365362 0.42181,-0.329943 0.8811,-0.559583 1.37785,-0.688921 0.50118,-0.133746 0.9939,-0.200615 1.47817,-0.200615 0.309,0 0.66394,0.03784 1.06481,0.112792 0.4049,0.07094 0.79511,0.219361 1.171,0.444592 0.37991,0.225601 0.69516,0.565841 0.94575,1.021082 0.25058,0.45488 0.37588,1.064444 0.37588,1.828691 v 6.338127 h -1.47817 V 94.40428 h -0.0753 c -0.0999,0.208703 -0.26712,0.432094 -0.5008,0.669823 -0.23405,0.238097 -0.5449,0.440543 -0.93327,0.607733 -0.38837,0.166811 -0.86235,0.250577 -1.42158,0.250577 z m 0.22524,-1.327879 c 0.58457,0 1.0773,-0.11464 1.47816,-0.344641 0.40491,-0.22928 0.70986,-0.525797 0.91452,-0.889184 0.2087,-0.363387 0.31305,-0.745141 0.31305,-1.14601 v -1.352867 c -0.0625,0.07498 -0.20024,0.144037 -0.41335,0.206496 -0.2087,0.05844 -0.45084,0.110961 -0.72641,0.156893 -0.27153,0.04154 -0.53644,0.07903 -0.79548,0.112431 -0.25463,0.02939 -0.46149,0.05439 -0.62022,0.07533 -0.38395,0.0499 -0.74293,0.131537 -1.07693,0.244337 -0.32995,0.108392 -0.59707,0.273363 -0.80172,0.494563 -0.20062,0.217144 -0.30056,0.513661 -0.30056,0.889536 0,0.5133 0.18996,0.901673 0.56988,1.164747 0.38396,0.259035 0.87044,0.388372 1.45906,0.388372 z m 11.06509,-8.517717 v 1.25257 h -4.98526 v -1.25257 z m -3.53209,-2.304869 h 1.47816 v 9.169155 c 0,0.417406 0.0603,0.730821 0.18151,0.939515 0.12529,0.204664 0.28402,0.34245 0.47582,0.413358 0.19621,0.06689 0.40307,0.100312 0.62022,0.100312 0.16277,0 0.29651,-0.0088 0.40086,-0.02535 0.10435,-0.02059 0.18776,-0.03749 0.25059,-0.0499 l 0.30056,1.327879 c -0.10032,0.03749 -0.2403,0.07498 -0.41961,0.112431 -0.17967,0.04189 -0.40711,0.06284 -0.68268,0.06284 -0.41777,0 -0.82671,-0.08966 -1.22758,-0.269332 -0.39682,-0.179669 -0.7264,-0.453041 -0.98948,-0.820467 -0.25903,-0.367426 -0.38837,-0.830755 -0.38837,-1.390348 z m 9.68576,12.125118 c -0.92701,0 -1.72654,-0.204285 -2.39894,-0.613603 -0.66797,-0.413358 -1.18347,-0.989487 -1.54686,-1.728748 -0.35898,-0.742941 -0.53865,-1.6075 -0.53865,-2.592571 0,-0.985447 0.17967,-1.854037 0.53865,-2.605435 0.36339,-0.755798 0.86859,-1.344416 1.51564,-1.766222 0.65144,-0.425847 1.41129,-0.638959 2.27952,-0.638959 0.50117,0 0.9961,0.08378 1.48441,0.250586 0.48868,0.167181 0.93326,0.438335 1.33413,0.814219 0.40086,0.371466 0.72015,0.864189 0.95824,1.478162 0.2381,0.613612 0.35678,1.369402 0.35678,2.267034 v 0.626463 h -7.41506 v -1.277918 h 5.91228 c 0,-0.542686 -0.10876,-1.026961 -0.3259,-1.452807 -0.21274,-0.425855 -0.51771,-0.762047 -0.91416,-1.008224 -0.39278,-0.246538 -0.85611,-0.369627 -1.39072,-0.369627 -0.58862,0 -1.09788,0.146235 -1.52813,0.438344 -0.42585,0.28806 -0.75359,0.663935 -0.98324,1.127264 -0.22964,0.463698 -0.34428,0.960453 -0.34428,1.49065 v 0.851703 c 0,0.726773 0.1253,1.342577 0.37551,1.847798 0.255,0.500794 0.60773,0.882926 1.05856,1.146001 0.45083,0.259035 0.97516,0.388372 1.57222,0.388372 0.38801,0 0.7389,-0.05439 1.05195,-0.162771 0.31746,-0.112801 0.59083,-0.279981 0.82047,-0.501173 0.22964,-0.225601 0.40711,-0.505212 0.5324,-0.839204 l 1.42783,0.40087 c -0.15029,0.484266 -0.4027,0.910112 -0.75764,1.277547 -0.35494,0.363378 -0.79327,0.647037 -1.31539,0.851692 -0.52175,0.200615 -1.10853,0.300557 -1.75962,0.300557 z m 6.23158,-0.200245 v -9.620004 h 1.42783 v 1.453185 h 0.1003 c 0.17527,-0.476186 0.49272,-0.862358 0.95201,-1.158867 0.45929,-0.296518 0.97699,-0.444592 1.55311,-0.444592 0.10877,0 0.24434,0.0026 0.40711,0.0062 0.16278,0.0044 0.28586,0.01065 0.36963,0.01875 v 1.503148 c -0.0503,-0.0125 -0.16497,-0.03124 -0.34464,-0.05615 -0.17527,-0.02939 -0.36118,-0.04409 -0.55738,-0.04409 -0.46774,0 -0.88514,0.09809 -1.25257,0.29467 -0.36339,0.191797 -0.65145,0.459289 -0.86418,0.80136 -0.20871,0.338401 -0.31306,0.724573 -0.31306,1.158877 v 6.087541 z m 6.56189,0 v -9.620004 h 1.47817 v 9.620004 z m 0.75176,-11.223086 c -0.28807,0 -0.53681,-0.0981 -0.74551,-0.294678 -0.20465,-0.196206 -0.3068,-0.432095 -0.3068,-0.707667 0,-0.275571 0.10215,-0.51146 0.3068,-0.707666 0.2087,-0.196206 0.45744,-0.294309 0.74551,-0.294309 0.28806,0 0.53424,0.0981 0.73889,0.294309 0.20871,0.196206 0.31306,0.432095 0.31306,0.707666 0,0.275572 -0.10435,0.511461 -0.31306,0.707667 -0.20465,0.196576 -0.45083,0.294678 -0.73889,0.294678 z m 6.26428,11.448678 c -0.60956,0 -1.16255,-0.115001 -1.65967,-0.344641 -0.49677,-0.233689 -0.89138,-0.569881 -1.18349,-1.008224 -0.29247,-0.442752 -0.43835,-0.97699 -0.43835,-1.603451 0,-0.551144 0.1084,-0.997936 0.32555,-1.340376 0.21715,-0.346489 0.50742,-0.617652 0.87044,-0.81386 0.36338,-0.196575 0.76424,-0.34244 1.20259,-0.438704 0.44275,-0.09994 0.88734,-0.179308 1.33413,-0.237728 0.58458,-0.07533 1.05819,-0.131537 1.42158,-0.169381 0.36742,-0.04154 0.63454,-0.1106 0.80173,-0.206494 0.17122,-0.0959 0.25682,-0.263084 0.25682,-0.501173 v -0.04999 c 0,-0.618013 -0.16938,-1.098239 -0.50741,-1.44068 -0.33399,-0.342071 -0.84141,-0.5133 -1.52189,-0.5133 -0.70583,0 -1.25881,0.154323 -1.65968,0.463329 -0.40085,0.309006 -0.68267,0.638958 -0.84544,0.989487 l -1.40284,-0.500812 c 0.25021,-0.584569 0.58421,-1.039819 1.00197,-1.365362 0.42182,-0.329943 0.8811,-0.559583 1.37786,-0.688921 0.5008,-0.133746 0.99353,-0.200615 1.47816,-0.200615 0.30864,0 0.66358,0.03784 1.06444,0.112792 0.40528,0.07094 0.79548,0.219361 1.17136,0.444592 0.37993,0.225601 0.69517,0.565841 0.94576,1.021082 0.25022,0.45488 0.37551,1.064444 0.37551,1.828691 v 6.338127 h -1.4778 V 94.40428 h -0.0753 c -0.10031,0.208703 -0.26712,0.432094 -0.50118,0.669823 -0.23368,0.238097 -0.54452,0.440543 -0.93289,0.607733 -0.38838,0.166811 -0.86235,0.250577 -1.42195,0.250577 z m 0.22559,-1.327879 c 0.58459,0 1.0773,-0.11464 1.47817,-0.344641 0.4049,-0.22928 0.70987,-0.525797 0.91416,-0.889184 0.20907,-0.363387 0.31341,-0.745141 0.31341,-1.14601 v -1.352867 c -0.0628,0.07498 -0.20061,0.144037 -0.41335,0.206496 -0.20906,0.05844 -0.45121,0.110961 -0.72677,0.156893 -0.27116,0.04154 -0.53645,0.07903 -0.79511,0.112431 -0.255,0.02939 -0.46149,0.05439 -0.62022,0.07533 -0.38397,0.0499 -0.74331,0.131537 -1.07731,0.244337 -0.32958,0.108392 -0.59706,0.273363 -0.80172,0.494563 -0.20025,0.217144 -0.30055,0.513661 -0.30055,0.889536 0,0.5133 0.18995,0.901673 0.56987,1.164747 0.38433,0.259035 0.87081,0.388372 1.45942,0.388372 z m 8.35936,-11.724258 v 12.826545 h -1.4778 V 82.880287 Z m 11.82639,12.826545 h -3.9583 V 82.880287 h 4.13357 c 1.24411,0 2.30891,0.256834 3.19405,0.770495 0.88513,0.509261 1.56377,1.241904 2.03555,2.197957 0.47178,0.952004 0.70767,2.092135 0.70767,3.419653 0,1.336337 -0.2381,2.486389 -0.71393,3.450881 -0.47618,0.960453 -1.16914,1.699354 -2.07926,2.217054 -0.91049,0.51367 -2.01681,0.770505 -3.31935,0.770505 z m -2.40518,-1.377859 h 2.30488 c 1.0604,0 1.93928,-0.204655 2.63666,-0.613603 0.69738,-0.40931 1.21692,-0.991688 1.55936,-1.747486 0.34245,-0.755798 0.51367,-1.655633 0.51367,-2.699492 0,-1.035418 -0.16902,-1.926793 -0.50742,-2.674143 -0.33803,-0.751759 -0.84325,-1.327879 -1.51565,-1.728749 -0.67201,-0.4049 -1.50938,-0.607354 -2.51136,-0.607354 h -2.48014 z m 14.95615,1.578104 c -0.92702,0 -1.72654,-0.204285 -2.39894,-0.613603 -0.66798,-0.413358 -1.18348,-0.989487 -1.54687,-1.728748 -0.35897,-0.742941 -0.53865,-1.6075 -0.53865,-2.592571 0,-0.985447 0.17968,-1.854037 0.53865,-2.605435 0.36339,-0.755798 0.8686,-1.344416 1.51564,-1.766222 0.65145,-0.425847 1.41129,-0.638959 2.27989,-0.638959 0.50081,0 0.99573,0.08378 1.48404,0.250586 0.48868,0.167181 0.93327,0.438335 1.33413,0.814219 0.40086,0.371466 0.72016,0.864189 0.95825,1.478162 0.23809,0.613612 0.35714,1.369402 0.35714,2.267034 v 0.626463 h -7.41542 v -1.277918 h 5.91228 c 0,-0.542686 -0.10876,-1.026961 -0.32591,-1.452807 -0.21274,-0.425855 -0.51771,-0.762047 -0.91416,-1.008224 -0.39278,-0.246538 -0.85611,-0.369627 -1.39035,-0.369627 -0.58898,0 -1.09824,0.146235 -1.5285,0.438344 -0.42585,0.28806 -0.75359,0.663935 -0.98324,1.127264 -0.22964,0.463698 -0.34427,0.960453 -0.34427,1.49065 v 0.851703 c 0,0.726773 0.12529,1.342577 0.37588,1.847798 0.25462,0.500794 0.60735,0.882926 1.05819,1.146001 0.45083,0.259035 0.97515,0.388372 1.57222,0.388372 0.38801,0 0.7389,-0.05439 1.05194,-0.162771 0.31746,-0.112801 0.59083,-0.279981 0.82047,-0.501173 0.22964,-0.225601 0.40711,-0.505212 0.53241,-0.839204 l 1.42782,0.40087 c -0.15028,0.484266 -0.4027,0.910112 -0.75764,1.277547 -0.35494,0.363378 -0.79327,0.647037 -1.31539,0.851692 -0.52175,0.200615 -1.10853,0.300557 -1.75961,0.300557 z m 13.04552,-7.665654 -1.32752,0.375883 c -0.0838,-0.221561 -0.20685,-0.436504 -0.36962,-0.645198 -0.15873,-0.213112 -0.37588,-0.388372 -0.65145,-0.526167 -0.27557,-0.137777 -0.62831,-0.206485 -1.05819,-0.206485 -0.58899,0 -1.07951,0.135577 -1.47193,0.40674 -0.38837,0.267483 -0.58237,0.607724 -0.58237,1.021082 0,0.367426 0.13338,0.657695 0.40087,0.870438 0.26712,0.213103 0.68452,0.390572 1.25256,0.532398 l 1.42783,0.350898 c 0.86014,0.208694 1.50094,0.527988 1.92274,0.958254 0.42181,0.425847 0.63271,0.974781 0.63271,1.647183 0,0.551135 -0.15872,1.043489 -0.47618,1.477792 -0.31305,0.434295 -0.75139,0.776736 -1.31503,1.027322 -0.564,0.250587 -1.21949,0.375514 -1.96684,0.375514 -0.98103,0 -1.79304,-0.212742 -2.43605,-0.638588 -0.643,-0.425855 -1.0501,-1.047907 -1.22132,-1.866535 l 1.40284,-0.350528 c 0.13374,0.517709 0.38616,0.906081 0.75763,1.164746 0.37588,0.259036 0.8664,0.388373 1.47192,0.388373 0.68892,0 1.23603,-0.146235 1.64093,-0.438344 0.40931,-0.296509 0.6136,-0.651447 0.6136,-1.064804 0,-0.333992 -0.11683,-0.613603 -0.35052,-0.839204 -0.23369,-0.229649 -0.59303,-0.400861 -1.0773,-0.51367 l -1.60345,-0.375505 c -0.88073,-0.209064 -1.52814,-0.5324 -1.94149,-0.971113 -0.40894,-0.442383 -0.61361,-0.995727 -0.61361,-1.659671 0,-0.542695 0.15249,-1.022921 0.45708,-1.440318 0.30901,-0.417398 0.72862,-0.745141 1.25881,-0.983239 0.53461,-0.238089 1.14013,-0.357138 1.81657,-0.357138 0.95163,0 1.69934,0.208694 2.24204,0.626461 0.54673,0.417398 0.9351,0.968541 1.16474,1.653423 z m 2.40041,7.465409 v -9.620004 h 1.47817 v 9.620004 z m 0.75138,-11.223086 c -0.28806,0 -0.53643,-0.0981 -0.74514,-0.294678 -0.20465,-0.196206 -0.30679,-0.432095 -0.30679,-0.707667 0,-0.275571 0.10214,-0.51146 0.30679,-0.707666 0.20871,-0.196206 0.45708,-0.294309 0.74514,-0.294309 0.28807,0 0.53462,0.0981 0.73928,0.294309 0.20869,0.196206 0.31304,0.432095 0.31304,0.707666 0,0.275572 -0.10435,0.511461 -0.31304,0.707667 -0.20466,0.196576 -0.45121,0.294678 -0.73928,0.294678 z m 7.31697,15.031103 c -0.71392,0 -1.32789,-0.09185 -1.84155,-0.275572 -0.5133,-0.179669 -0.94136,-0.417767 -1.2838,-0.714276 -0.33803,-0.292109 -0.60735,-0.605154 -0.80797,-0.939146 l 1.17761,-0.826716 c 0.13338,0.17526 0.30277,0.375515 0.50705,0.601115 0.20466,0.22964 0.48464,0.428055 0.83957,0.594866 0.35898,0.171221 0.82855,0.256835 1.40909,0.256835 0.77637,0 1.41753,-0.187757 1.92274,-0.563632 0.50522,-0.375884 0.75764,-0.964501 0.75764,-1.766231 v -1.95398 h -0.12529 c -0.1084,0.17526 -0.26308,0.392412 -0.46333,0.651447 -0.1962,0.254626 -0.48022,0.482066 -0.8517,0.682681 -0.36742,0.196206 -0.86456,0.294309 -1.49065,0.294309 -0.77674,0 -1.47375,-0.183718 -2.09176,-0.551144 -0.61398,-0.367426 -1.10045,-0.902033 -1.45943,-1.603451 -0.35494,-0.701418 -0.53241,-1.553119 -0.53241,-2.555096 0,-0.985439 0.17343,-1.84338 0.51991,-2.574201 0.34649,-0.734853 0.82893,-1.302524 1.44694,-1.703394 0.61764,-0.405269 1.33193,-0.607724 2.14174,-0.607724 0.62646,0 1.12322,0.104352 1.49065,0.313416 0.37147,0.204285 0.65549,0.438343 0.8517,0.701418 0.20061,0.258674 0.35494,0.471777 0.46333,0.638588 h 0.15063 v -1.528133 h 1.42783 v 9.895576 c 0,0.826707 -0.18775,1.499099 -0.56363,2.016809 -0.37183,0.52174 -0.87265,0.903872 -1.50315,1.146001 -0.62646,0.246177 -1.32347,0.369635 -2.09176,0.369635 z m -0.0503,-5.286179 c 0.59302,0 1.0942,-0.135586 1.50315,-0.407118 0.4093,-0.271154 0.72052,-0.661735 0.93326,-1.170987 0.21311,-0.509621 0.3193,-1.119185 0.3193,-1.828693 0,-0.69333 -0.10435,-1.305102 -0.31306,-1.8353 -0.20869,-0.530198 -0.5177,-0.945764 -0.92702,-1.246313 -0.40894,-0.300557 -0.91416,-0.450832 -1.51563,-0.450832 -0.6261,0 -1.14821,0.158723 -1.56561,0.475809 -0.41336,0.317464 -0.72457,0.74331 -0.93328,1.277925 -0.20465,0.534238 -0.30679,1.127265 -0.30679,1.778711 0,0.667986 0.10435,1.258812 0.31305,1.772112 0.21311,0.509613 0.52615,0.910482 0.93951,1.202591 0.4174,0.28806 0.93547,0.432095 1.55312,0.432095 z m 8.39242,-4.308831 v 5.786993 h -1.4778 v -9.620004 h 1.42782 v 1.503148 h 0.1253 c 0.22523,-0.488306 0.56767,-0.881087 1.02695,-1.177235 0.45929,-0.300928 1.05232,-0.451202 1.77872,-0.451202 0.65145,0 1.22134,0.133738 1.71002,0.400861 0.48831,0.263083 0.86823,0.663944 1.13976,1.20259 0.27152,0.534246 0.40711,1.210679 0.40711,2.029306 v 6.112536 h -1.47817 v -6.012593 c 0,-0.755429 -0.1962,-1.344416 -0.58861,-1.765853 -0.39242,-0.426225 -0.93106,-0.638959 -1.61595,-0.638959 -0.47178,0 -0.89359,0.102143 -1.26505,0.306797 -0.36744,0.204655 -0.6577,0.503012 -0.87044,0.895794 -0.2131,0.392403 -0.31966,0.868229 -0.31966,1.427821 z m 14.32527,-0.626461 c 0,-1.578105 0.20429,-3.029081 0.6136,-4.35256 0.41336,-1.327879 1.00198,-2.549207 1.76623,-3.663982 h 1.30253 c -0.30055,0.413357 -0.58237,0.922979 -0.84546,1.528133 -0.25866,0.601476 -0.48646,1.26322 -0.68267,1.985575 -0.19621,0.717954 -0.35053,1.461264 -0.46333,2.229551 -0.10876,0.768296 -0.16277,1.525933 -0.16277,2.273283 0,0.993887 0.0959,2.002113 0.28807,3.025035 0.19179,1.022912 0.45083,1.973086 0.77637,2.849764 0.32591,0.876686 0.68893,1.590962 1.08979,2.142106 h -1.30253 c -0.76425,-1.114776 -1.35287,-2.334273 -1.76622,-3.657743 -0.40932,-1.327888 -0.61361,-2.780697 -0.61361,-4.359162 z m 5.83842,6.413454 v -1.127273 l 4.23388,-4.634734 c 0.49676,-0.542686 0.90608,-1.014464 1.22757,-1.415333 0.3215,-0.4049 0.5596,-0.784824 0.71391,-1.139762 0.15874,-0.359347 0.23809,-0.734852 0.23809,-1.127633 0,-0.450841 -0.10875,-0.841044 -0.3259,-1.170996 -0.21274,-0.329952 -0.50521,-0.584578 -0.87669,-0.764247 -0.37146,-0.179308 -0.78923,-0.269332 -1.25255,-0.269332 -0.49272,0 -0.92261,0.102521 -1.29004,0.307176 -0.36339,0.200245 -0.6452,0.482065 -0.84583,0.845452 -0.1962,0.363017 -0.2943,0.789233 -0.2943,1.277547 h -1.47816 c 0,-0.751398 0.17342,-1.411293 0.51991,-1.978965 0.34648,-0.568041 0.81863,-1.010433 1.4157,-1.327888 0.60111,-0.317455 1.27533,-0.475817 2.02268,-0.475817 0.75176,0 1.41755,0.158362 1.99807,0.475817 0.58018,0.317455 1.03542,0.745141 1.36537,1.283787 0.32959,0.538655 0.49456,1.137931 0.49456,1.797466 0,0.472147 -0.0856,0.933267 -0.25683,1.384099 -0.16682,0.446792 -0.45929,0.945755 -0.87669,1.496899 -0.41335,0.547104 -0.98764,1.215079 -1.7225,2.004322 l -2.88063,3.081253 v 0.100303 h 5.96225 v 1.377859 z m 10.10207,-2.630421 v -1.277547 l 5.63671,-8.918577 h 0.92702 v 1.978974 h -0.6261 l -4.25885,6.738988 v 0.100312 h 7.59068 v 1.37785 z m 6.03758,2.630421 v -3.018793 -0.594866 -9.212886 h 1.47815 v 12.826545 z m 13.11937,-2.304878 -7.06454,-7.064531 0.95201,-0.952013 7.06454,7.06454 z m -6.11253,0 -0.95201,-0.952004 7.06454,-7.06454 0.95201,0.952013 z m 10.1976,2.304878 v -1.127273 l 4.23386,-4.634734 c 0.49676,-0.542686 0.90608,-1.014464 1.22758,-1.415333 0.3215,-0.4049 0.55959,-0.784824 0.71391,-1.139762 0.15873,-0.359347 0.2381,-0.734852 0.2381,-1.127633 0,-0.450841 -0.10876,-0.841044 -0.32591,-1.170996 -0.21274,-0.329952 -0.50521,-0.584578 -0.87668,-0.764247 -0.37147,-0.179308 -0.78924,-0.269332 -1.25257,-0.269332 -0.49272,0 -0.92261,0.102521 -1.29004,0.307176 -0.36338,0.200245 -0.64519,0.482065 -0.84581,0.845452 -0.19621,0.363017 -0.29432,0.789233 -0.29432,1.277547 h -1.47816 c 0,-0.751398 0.17343,-1.411293 0.51991,-1.978965 0.34649,-0.568041 0.81864,-1.010433 1.4157,-1.327888 0.60112,-0.317455 1.27535,-0.475817 2.0227,-0.475817 0.75175,0 1.41753,0.158362 1.99807,0.475817 0.58016,0.317455 1.03541,0.745141 1.36535,1.283787 0.32959,0.538655 0.49457,1.137931 0.49457,1.797466 0,0.472147 -0.0856,0.933267 -0.25684,1.384099 -0.16681,0.446792 -0.45929,0.945755 -0.87667,1.496899 -0.41337,0.547104 -0.98765,1.215079 -1.7225,2.004322 l -2.88064,3.081253 v 0.100303 h 5.96225 v 1.377859 z m 10.10205,-2.630421 v -1.277547 l 5.63672,-8.918577 h 0.92701 v 1.978974 h -0.62608 l -4.25886,6.738988 v 0.100312 h 7.59069 v 1.37785 z m 6.03758,2.630421 v -3.018793 -0.594866 -9.212886 h 1.47816 v 12.826545 z m 14.44726,3.808017 c -0.71391,0 -1.32789,-0.09185 -1.84118,-0.275572 -0.51367,-0.179669 -0.94173,-0.417767 -1.28416,-0.714276 -0.33803,-0.292109 -0.60736,-0.605154 -0.80798,-0.939146 l 1.17761,-0.826716 c 0.13374,0.17526 0.30277,0.375515 0.50742,0.601115 0.20428,0.22964 0.48427,0.428055 0.8392,0.594866 0.35898,0.171221 0.82855,0.256835 1.40909,0.256835 0.77674,0 1.41753,-0.187757 1.92275,-0.563632 0.50521,-0.375884 0.75764,-0.964501 0.75764,-1.766231 v -1.95398 h -0.1253 c -0.10839,0.17526 -0.26271,0.392412 -0.46333,0.651447 -0.1962,0.254626 -0.48022,0.482066 -0.8517,0.682681 -0.36742,0.196206 -0.86418,0.294309 -1.49065,0.294309 -0.77673,0 -1.47375,-0.183718 -2.09176,-0.551144 -0.61398,-0.367426 -1.10008,-0.902033 -1.45943,-1.603451 -0.35493,-0.701418 -0.5324,-1.553119 -0.5324,-2.555096 0,-0.985439 0.17342,-1.84338 0.51991,-2.574201 0.34648,-0.734853 0.82892,-1.302524 1.44693,-1.703394 0.61801,-0.405269 1.33193,-0.607724 2.14174,-0.607724 0.62646,0 1.12322,0.104352 1.49065,0.313416 0.37147,0.204285 0.65549,0.438343 0.8517,0.701418 0.20061,0.258674 0.35494,0.471777 0.4637,0.638588 h 0.15027 v -1.528133 h 1.42782 v 9.895576 c 0,0.826707 -0.18775,1.499099 -0.56363,2.016809 -0.37146,0.52174 -0.87264,0.903872 -1.50315,1.146001 -0.6261,0.246177 -1.32347,0.369635 -2.09176,0.369635 z m -0.05,-5.286179 c 0.59266,0 1.09383,-0.135586 1.50278,-0.407118 0.40931,-0.271154 0.72052,-0.661735 0.93326,-1.170987 0.21311,-0.509621 0.31966,-1.119185 0.31966,-1.828693 0,-0.69333 -0.10471,-1.305102 -0.31341,-1.8353 -0.2087,-0.530198 -0.51771,-0.945764 -0.92665,-1.246313 -0.40931,-0.300557 -0.91453,-0.450832 -1.51564,-0.450832 -0.62646,0 -1.14821,0.158723 -1.56598,0.475809 -0.41336,0.317464 -0.7242,0.74331 -0.93326,1.277925 -0.20429,0.534238 -0.30681,1.127265 -0.30681,1.778711 0,0.667986 0.10435,1.258812 0.31305,1.772112 0.21311,0.509613 0.52615,0.910482 0.93952,1.202591 0.41776,0.28806 0.93547,0.432095 1.55348,0.432095 z m 6.91425,1.478162 v -9.620004 h 1.42783 v 1.453185 h 0.10031 c 0.17526,-0.476186 0.49272,-0.862358 0.952,-1.158867 0.45929,-0.296518 0.97699,-0.444592 1.55312,-0.444592 0.10839,0 0.24434,0.0026 0.40711,0.0062 0.16277,0.0044 0.28585,0.01065 0.36964,0.01875 v 1.503148 c -0.0503,-0.0125 -0.16498,-0.03124 -0.34465,-0.05615 -0.17526,-0.02939 -0.36119,-0.04409 -0.5574,-0.04409 -0.46773,0 -0.88512,0.09809 -1.25255,0.29467 -0.36339,0.191797 -0.65145,0.459289 -0.8642,0.80136 -0.2087,0.338401 -0.31341,0.724573 -0.31341,1.158877 v 6.087541 z m 6.56189,0 v -9.620004 h 1.47817 v 9.620004 z m 0.75176,-11.223086 c -0.28843,0 -0.53681,-0.0981 -0.7455,-0.294678 -0.20466,-0.196206 -0.30681,-0.432095 -0.30681,-0.707667 0,-0.275571 0.10215,-0.51146 0.30681,-0.707666 0.20869,-0.196206 0.45707,-0.294309 0.7455,-0.294309 0.28807,0 0.53425,0.0981 0.7389,0.294309 0.2087,0.196206 0.31305,0.432095 0.31305,0.707666 0,0.275572 -0.10435,0.511461 -0.31305,0.707667 -0.20465,0.196576 -0.45083,0.294678 -0.7389,0.294678 z m 7.06601,11.423331 c -0.80172,0 -1.5094,-0.202454 -2.12299,-0.607354 -0.61398,-0.409318 -1.09421,-0.985448 -1.44069,-1.728388 -0.34649,-0.74771 -0.51992,-1.630646 -0.51992,-2.64952 0,-1.010425 0.17343,-1.887111 0.51992,-2.630412 0.34648,-0.74331 0.82891,-1.317239 1.44693,-1.72214 0.61801,-0.405269 1.33192,-0.607724 2.14173,-0.607724 0.62647,0 1.12103,0.104352 1.48441,0.313416 0.36743,0.204285 0.64704,0.438343 0.83921,0.701418 0.1962,0.258674 0.34869,0.471777 0.45708,0.638588 h 0.12529 v -4.734674 h 1.47816 v 12.826545 h -1.42782 V 94.22867 h -0.17563 c -0.10839,0.175629 -0.26271,0.396812 -0.46333,0.663935 -0.20025,0.263083 -0.48647,0.498972 -0.85794,0.707666 -0.37184,0.204664 -0.8664,0.306806 -1.48441,0.306806 z m 0.20061,-1.327518 c 0.59267,0 1.09383,-0.154692 1.50279,-0.46369 0.40931,-0.313054 0.72053,-0.745149 0.93326,-1.296293 0.21311,-0.555183 0.31966,-1.196342 0.31966,-1.922747 0,-0.717955 -0.10472,-1.346625 -0.31341,-1.885271 -0.20871,-0.542695 -0.51771,-0.964493 -0.92665,-1.26505 -0.40932,-0.304606 -0.91453,-0.457081 -1.51565,-0.457081 -0.62646,0 -1.14821,0.160563 -1.56597,0.482066 -0.41336,0.317446 -0.72421,0.74955 -0.93327,1.296645 -0.20429,0.542695 -0.30681,1.152259 -0.30681,1.828691 0,0.684883 0.10435,1.306944 0.31306,1.866536 0.21311,0.555184 0.52616,0.997936 0.93951,1.327519 0.41776,0.325904 0.93547,0.488675 1.55348,0.488675 z m 10.27733,-4.283845 c 0,1.578107 -0.2065,3.031283 -0.61985,4.358802 -0.40932,1.323839 -0.9961,2.542967 -1.75998,3.657742 h -1.30291 c 0.30093,-0.413357 0.58054,-0.922609 0.83921,-1.528133 0.26308,-0.601476 0.49272,-1.261011 0.68894,-1.979335 0.19656,-0.721994 0.34868,-1.467504 0.45744,-2.235791 0.1128,-0.772344 0.16902,-1.530343 0.16902,-2.273285 0,-0.993887 -0.0959,-2.002111 -0.28807,-3.025033 -0.19217,-1.022921 -0.45083,-1.973086 -0.77674,-2.849773 -0.32554,-0.876677 -0.68893,-1.590584 -1.0898,-2.141727 h 1.30291 c 0.76388,1.114775 1.35066,2.335742 1.75998,3.663621 0.41335,1.32347 0.61985,2.774447 0.61985,4.352912 z"
       fill="#000000"
       id="path1443"
       style="display:inline;stroke-width:0.367428"
       transform="translate(1.8275,-0.66998)" />
    <path
       d="m 101.94781,99.213931 h 129.4371 v 1.202589 h -129.4371 z"
       fill="#000000"
       id="path1445"
       style="display:inline;stroke-width:0.367428"
       transform="translate(1.8275,-0.66998)" />
    <a
       href="https://material.io/design/iconography/system-icons.html"
       id="a1449"
       transform="matrix(0.367428,0,0,0.367428,21.6897,21.1839)"
       style="display:inline;fill:none">
      <rect
         fill="#000000"
         fill-opacity="0"
         x="223.40601"
         y="-5.0454602"
         width="352.27802"
         height="58.0909"
         id="rect1447" />
    </a>
    <text
       fill="#000000"
       xml:space="preserve"
       style="white-space:pre;display:inline"
       font-family="Inter"
       font-size="12px"
       font-weight="500"
       letter-spacing="0em"
       id="text18"
       x="372.5636"
       y="370.42661"
       transform="translate(1.8275,-0.66998)"><tspan
         x="60.172501"
         y="155.03358"
         id="tspan16">Discord</tspan></text>
    <text
       fill="#000000"
       xml:space="preserve"
       style="white-space:pre;display:inline"
       font-family="Inter"
       font-size="12px"
       font-weight="500"
       letter-spacing="0em"
       id="text46"
       x="372.5636"
       y="370.42661"
       transform="translate(1.8275,-0.66998)"><tspan
         x="60.172501"
         y="191.03358"
         id="tspan44">Dribbble</tspan></text>
    <text
       fill="#000000"
       xml:space="preserve"
       style="white-space:pre;display:inline"
       font-family="Inter"
       font-size="12px"
       font-weight="500"
       letter-spacing="0em"
       id="text74"
       x="372.5636"
       y="370.42661"
       transform="translate(1.8275,-0.66998)"><tspan
         x="60.172501"
         y="227.034"
         id="tspan72">Facebook</tspan></text>
    <text
       fill="#000000"
       xml:space="preserve"
       style="white-space:pre;display:inline"
       font-family="Inter"
       font-size="12px"
       font-weight="500"
       letter-spacing="0em"
       id="text102"
       x="372.5636"
       y="370.42661"
       transform="translate(1.8275,-0.66998)"><tspan
         x="60.172501"
         y="263.034"
         id="tspan100">GitHub</tspan></text>
    <text
       fill="#000000"
       xml:space="preserve"
       style="white-space:pre;display:inline"
       font-family="Inter"
       font-size="12px"
       font-weight="500"
       letter-spacing="0em"
       id="text130"
       x="372.5636"
       y="370.42661"
       transform="translate(1.8275,-0.66998)"><tspan
         x="60.172501"
         y="299.034"
         id="tspan128">GitLab</tspan></text>
    <text
       fill="#000000"
       xml:space="preserve"
       style="white-space:pre;display:inline"
       font-family="Inter"
       font-size="12px"
       font-weight="500"
       letter-spacing="0em"
       id="text158"
       x="372.5636"
       y="370.42661"
       transform="translate(1.8275,-0.66998)"><tspan
         x="60.172501"
         y="335.034"
         id="tspan156">Glassdoor</tspan></text>
    <text
       fill="#000000"
       xml:space="preserve"
       style="white-space:pre;display:inline"
       font-family="Inter"
       font-size="12px"
       font-weight="500"
       letter-spacing="0em"
       id="text190"
       x="372.5636"
       y="370.42661"
       transform="translate(1.8275,-0.66998)"><tspan
         x="60.172501"
         y="371.034"
         id="tspan188">Instagram</tspan></text>
    <text
       fill="#000000"
       xml:space="preserve"
       style="white-space:pre;display:inline"
       font-family="Inter"
       font-size="12px"
       font-weight="500"
       letter-spacing="0em"
       id="text218"
       x="372.5636"
       y="370.42661"
       transform="translate(1.8275,-0.66998)"><tspan
         x="209.86057"
         y="154.67973"
         id="tspan216">Kult</tspan></text>
    <text
       fill="#000000"
       xml:space="preserve"
       style="white-space:pre;display:inline"
       font-family="Inter"
       font-size="12px"
       font-weight="500"
       letter-spacing="0em"
       id="text244"
       x="372.5636"
       y="370.42661"
       transform="translate(1.8275,-0.66998)"><tspan
         x="209.86057"
         y="190.67973"
         id="tspan242">Letterboxd (L)</tspan></text>
    <text
       fill="#000000"
       xml:space="preserve"
       style="white-space:pre;display:inline"
       font-family="Inter"
       font-size="12px"
       font-weight="500"
       letter-spacing="0em"
       id="text272"
       x="372.5636"
       y="370.42661"
       transform="translate(1.8275,-0.66998)"><tspan
         x="209.86057"
         y="226.67973"
         id="tspan270">LinkedIn</tspan></text>
    <text
       fill="#000000"
       xml:space="preserve"
       style="white-space:pre;display:inline"
       font-family="Inter"
       font-size="12px"
       font-weight="500"
       letter-spacing="0em"
       id="text300"
       x="372.5636"
       y="370.42661"
       transform="translate(1.8275,-0.66998)"><tspan
         x="209.86057"
         y="262.67972"
         id="tspan298">Mastodon</tspan></text>
    <text
       fill="#000000"
       xml:space="preserve"
       style="white-space:pre;display:inline"
       font-family="Inter"
       font-size="12px"
       font-weight="500"
       letter-spacing="0em"
       id="text328"
       x="372.5636"
       y="370.42661"
       transform="translate(1.8275,-0.66998)"><tspan
         x="209.46393"
         y="299.35001"
         id="tspan326">npm</tspan></text>
    <text
       fill="#000000"
       xml:space="preserve"
       style="white-space:pre;display:inline"
       font-family="Inter"
       font-size="12px"
       font-weight="500"
       letter-spacing="0em"
       id="text356"
       x="372.5636"
       y="370.42661"
       transform="translate(1.8275,-0.66998)"><tspan
         x="209.46393"
         y="335.35001"
         id="tspan354">Pinterest</tspan></text>
    <text
       fill="#000000"
       xml:space="preserve"
       style="white-space:pre;display:inline"
       font-family="Inter"
       font-size="12px"
       font-weight="500"
       letter-spacing="0em"
       id="text384"
       x="372.5636"
       y="370.42661"
       transform="translate(1.8275,-0.66998)"><tspan
         x="209.46393"
         y="371.35001"
         id="tspan382">Snapchat</tspan></text>
    <text
       fill="#000000"
       xml:space="preserve"
       style="white-space:pre;display:inline"
       font-family="Inter"
       font-size="12px"
       font-weight="500"
       letter-spacing="0em"
       id="text412"
       x="372.5636"
       y="370.42661"
       transform="translate(1.8275,-0.66998)"><tspan
         x="372.5636"
         y="154.42659"
         id="tspan410">Telegram</tspan></text>
    <text
       fill="#000000"
       xml:space="preserve"
       style="white-space:pre;display:inline"
       font-family="Inter"
       font-size="12px"
       font-weight="500"
       letter-spacing="0em"
       id="text440"
       x="372.5636"
       y="370.42661"
       transform="translate(1.8275,-0.66998)"><tspan
         x="372.5636"
         y="190.42659"
         id="tspan438">Tripadvisor</tspan></text>
    <text
       fill="#000000"
       xml:space="preserve"
       style="white-space:pre;display:inline"
       font-family="Inter"
       font-size="12px"
       font-weight="500"
       letter-spacing="0em"
       id="text476"
       x="372.5636"
       y="370.42661"
       transform="translate(1.8275,-0.66998)"><tspan
         x="372.5636"
         y="226.42659"
         id="tspan474">Twitch</tspan></text>
    <text
       fill="#000000"
       xml:space="preserve"
       style="white-space:pre;display:inline"
       font-family="Inter"
       font-size="12px"
       font-weight="500"
       letter-spacing="0em"
       id="text504"
       x="372.5636"
       y="370.42661"
       transform="translate(1.8275,-0.66998)"><tspan
         x="372.5636"
         y="262.42661"
         id="tspan502">Twitter</tspan></text>
    <text
       fill="#000000"
       xml:space="preserve"
       style="white-space:pre;display:inline"
       font-family="Inter"
       font-size="12px"
       font-weight="500"
       letter-spacing="0em"
       id="text532"
       x="372.5636"
       y="370.42661"
       transform="translate(1.8275,-0.66998)"><tspan
         x="372.5636"
         y="298.42661"
         id="tspan530">WhatsApp</tspan></text>
    <text
       fill="#000000"
       xml:space="preserve"
       style="white-space:pre;display:inline"
       font-family="Inter"
       font-size="12px"
       font-weight="500"
       letter-spacing="0em"
       id="text576"
       x="372.5636"
       y="370.42661"
       transform="translate(1.8275,-0.66998)"><tspan
         x="372.5636"
         y="334.42661"
         id="tspan574">Yelp</tspan></text>
    <text
       fill="#000000"
       xml:space="preserve"
       style="white-space:pre;display:inline"
       font-family="Inter"
       font-size="12px"
       font-weight="500"
       letter-spacing="0em"
       id="text604"
       x="372.5636"
       y="370.42661"
       transform="translate(1.8275,-0.66998)"><tspan
         x="372.5636"
         y="370.42661"
         id="tspan602">YouTube</tspan></text>
    <path
       style="fill:none;stroke:#000000;stroke-width:1"
       d="M 1,2 V 2"
       id="path52" />
  </g>
</svg>
