<?xml version="1.0" encoding="UTF-8" standalone="no"?>
<svg
   width="17.999601"
   height="17.42"
   viewBox="0 0 17.999601 17.42"
   fill="none"
   version="1.1"
   id="svg620"
   xmlns="http://www.w3.org/2000/svg"
   xmlns:svg="http://www.w3.org/2000/svg">
  <defs
     id="defs624" />
  <g
     id="New_Layer_1653473784.8771224"
     style="display:inline"
     transform="translate(-335.39108,-284.68264)">
    <path
       d="m 342.60128,285.35262 c -4.9401,0 -8.9605,3.873 -8.9622,8.632 -10e-4,1.522 0.4122,3.007 1.1961,4.315 l -1.2716,4.473 4.7514,-1.2 c 1.3217,0.691 2.7913,1.051 4.2829,1.05 h 0.003 c 4.9402,0 8.9606,-3.872 8.9623,-8.631 0.001,-2.306 -0.9302,-4.475 -2.6228,-6.106 -1.692,-1.632 -3.942,-2.532 -6.3395,-2.533 z m 0,15.812 h -0.003 c -1.3366,0 -2.6477,-0.346 -3.7916,-0.999 l -0.2729,-0.156 -2.8184,0.712 0.7525,-2.648 -0.1771,-0.271 c -0.7439,-1.135 -1.1399,-2.462 -1.1392,-3.818 0.002,-3.956 3.3439,-7.174 7.4525,-7.174 1.9893,0.001 3.8596,0.748 5.2665,2.104 1.4069,1.356 2.1809,3.159 2.1797,5.076 -0.002,3.956 -3.3433,7.174 -7.4496,7.174 z m 4.086,-5.373 c -0.2241,-0.108 -1.325,-0.63 -1.5305,-0.702 -0.205,-0.072 -0.3542,-0.109 -0.5035,0.107 -0.1486,0.216 -0.5783,0.702 -0.7083,0.845 -0.1313,0.144 -0.2619,0.162 -0.486,0.054 -0.2242,-0.108 -0.9459,-0.335 -1.8006,-1.07 -0.666,-0.572 -1.1154,-1.278 -1.2461,-1.494 -0.1306,-0.216 -0.0139,-0.332 0.0981,-0.44 0.1005,-0.096 0.2242,-0.251 0.3357,-0.377 0.1114,-0.126 0.1486,-0.216 0.2241,-0.36 0.0743,-0.144 0.0371,-0.27 -0.0192,-0.378 -0.0563,-0.108 -0.5034,-1.17 -0.6909,-1.601 -0.1812,-0.42 -0.3659,-0.364 -0.5035,-0.371 -0.1306,-0.006 -0.2793,-0.008 -0.4296,-0.008 -0.1481,0 -0.3914,0.054 -0.5969,0.27 -0.205,0.216 -0.7839,0.738 -0.7839,1.799 0,1.062 0.8024,2.088 0.9145,2.232 0.1121,0.143 1.5794,2.322 3.8259,3.257 0.5342,0.221 0.9511,0.354 1.2768,0.454 0.5365,0.164 1.0248,0.141 1.4104,0.085 0.4297,-0.062 1.325,-0.521 1.5108,-1.024 0.187,-0.504 0.187,-0.936 0.1313,-1.026 -0.0546,-0.09 -0.2044,-0.144 -0.4286,-0.252 z"
       fill="#000000"
       id="path6273"
       transform="translate(1.8275,-0.66998)" />
  </g>
</svg>
