<?xml version="1.0" encoding="UTF-8" standalone="no"?>
<svg
   width="15.967995"
   height="19.999853"
   viewBox="0 0 15.967995 19.999853"
   fill="none"
   version="1.1"
   id="svg620"
   xmlns="http://www.w3.org/2000/svg"
   xmlns:svg="http://www.w3.org/2000/svg">
  <defs
     id="defs624" />
  <g
     id="New_Layer_1653473784.8776257"
     style="display:inline"
     transform="translate(-336.40712,-319.39283)">
    <g
       id="g6477"
       transform="translate(1.8275,-0.66998)">
      <path
         d="m 339.81418,332.68162 0.921,-0.213 c 0.0193,-0.004 0.0513,-0.012 0.0904,-0.024 0.2541,-0.069 0.4719,-0.233 0.6074,-0.459 0.1355,-0.226 0.1783,-0.495 0.1192,-0.752 -0.001,-0.005 -0.002,-0.01 -0.004,-0.016 -0.0302,-0.123 -0.0832,-0.239 -0.1562,-0.343 -0.1032,-0.131 -0.2309,-0.24 -0.376,-0.322 -0.1708,-0.098 -0.3495,-0.18 -0.5343,-0.248 l -1.0098,-0.368 c -0.5667,-0.211 -1.1333,-0.416 -1.7053,-0.617 -0.3709,-0.131 -0.6851,-0.247 -0.9582,-0.332 -0.0515,-0.016 -0.1084,-0.032 -0.1546,-0.048 -0.3302,-0.101 -0.5621,-0.143 -0.7584,-0.144 -0.1311,-0.005 -0.2617,0.019 -0.3827,0.07 -0.1261,0.054 -0.2394,0.135 -0.3324,0.236 -0.0463,0.052 -0.0898,0.107 -0.1303,0.164 -0.0381,0.059 -0.073,0.119 -0.1046,0.181 -0.0348,0.066 -0.0646,0.135 -0.0894,0.206 -0.1874,0.554 -0.2808,1.135 -0.2762,1.72 0.003,0.529 0.0176,1.207 0.3082,1.667 0.07,0.118 0.1639,0.22 0.2758,0.3 0.207,0.142 0.4162,0.161 0.6338,0.177 0.3252,0.023 0.6403,-0.057 0.9544,-0.129 l 3.0595,-0.707 z"
         fill="#000000"
         id="path2563" />
      <path
         d="m 350.08868,327.79162 c -0.2515,-0.527 -0.5895,-1.009 -1.0001,-1.425 -0.053,-0.053 -0.1099,-0.101 -0.1702,-0.146 -0.0556,-0.042 -0.1134,-0.08 -0.1731,-0.116 -0.0613,-0.034 -0.1244,-0.064 -0.189,-0.091 -0.1277,-0.05 -0.2646,-0.073 -0.4016,-0.066 -0.1311,0.007 -0.259,0.043 -0.3749,0.105 -0.1756,0.087 -0.3657,0.228 -0.6184,0.463 -0.0349,0.034 -0.0788,0.073 -0.1182,0.11 -0.2086,0.196 -0.4405,0.438 -0.7166,0.72 -0.4265,0.431 -0.8465,0.864 -1.2639,1.302 l -0.7468,0.774 c -0.1367,0.142 -0.2613,0.295 -0.3722,0.457 -0.0945,0.138 -0.1615,0.292 -0.197,0.455 -0.0205,0.125 -0.0175,0.253 0.009,0.377 0.001,0.005 0.003,0.011 0.004,0.016 0.0591,0.257 0.2152,0.48 0.4358,0.624 0.2204,0.143 0.4879,0.196 0.7463,0.145 0.0409,-0.005 0.0727,-0.013 0.092,-0.017 l 3.9818,-0.92 c 0.3138,-0.073 0.6322,-0.139 0.9142,-0.303 0.1891,-0.11 0.3689,-0.218 0.4923,-0.437 0.0659,-0.121 0.1058,-0.254 0.1171,-0.391 0.0611,-0.542 -0.2222,-1.159 -0.4502,-1.636 z"
         fill="#000000"
         id="path2565" />
      <path
         d="m 342.96198,329.46662 c 0.2886,-0.363 0.2879,-0.903 0.3137,-1.345 0.0868,-1.475 0.1783,-2.951 0.2508,-4.428 0.0276,-0.559 0.0879,-1.111 0.0546,-1.675 -0.0274,-0.465 -0.0308,-0.998 -0.3243,-1.38 -0.5182,-0.673 -1.623,-0.617 -2.3769,-0.513 -0.2309,0.032 -0.4623,0.075 -0.6917,0.13 -0.2295,0.055 -0.4566,0.115 -0.6788,0.187 -0.7234,0.237 -1.7403,0.671 -1.9125,1.505 -0.0971,0.471 0.1329,0.953 0.3114,1.383 0.2163,0.521 0.5117,0.991 0.781,1.482 0.712,1.295 1.4371,2.582 2.1602,3.871 0.216,0.385 0.4514,0.872 0.8691,1.071 0.0277,0.012 0.0559,0.023 0.0846,0.032 0.1873,0.071 0.3915,0.085 0.5867,0.04 0.0118,-0.003 0.0233,-0.006 0.0348,-0.008 0.1803,-0.049 0.3435,-0.147 0.4715,-0.284 0.0231,-0.021 0.0451,-0.044 0.0658,-0.068 z"
         fill="#000000"
         id="path2567" />
      <path
         d="m 342.61648,333.41762 c -0.1126,-0.158 -0.2724,-0.277 -0.4566,-0.339 -0.1842,-0.062 -0.3833,-0.065 -0.5689,-0.007 -0.0436,0.015 -0.086,0.033 -0.1271,0.053 -0.0635,0.033 -0.124,0.07 -0.181,0.113 -0.1659,0.123 -0.3057,0.283 -0.4329,0.443 -0.0323,0.041 -0.0617,0.095 -0.1001,0.13 l -0.6405,0.881 c -0.363,0.494 -0.721,0.988 -1.076,1.491 -0.2317,0.325 -0.432,0.599 -0.5903,0.841 -0.03,0.046 -0.0611,0.097 -0.0896,0.137 -0.1897,0.294 -0.2972,0.508 -0.3523,0.699 -0.0414,0.127 -0.0545,0.261 -0.0384,0.393 0.0176,0.138 0.0641,0.271 0.1363,0.39 0.0383,0.059 0.0797,0.117 0.1239,0.172 0.0459,0.053 0.0947,0.104 0.1461,0.152 0.0549,0.052 0.1137,0.101 0.1757,0.144 0.4421,0.308 0.926,0.529 1.4351,0.7 0.4236,0.14 0.8639,0.224 1.3096,0.25 0.0758,0.004 0.1518,0.002 0.2274,-0.005 0.0701,-0.006 0.1397,-0.016 0.2088,-0.029 0.069,-0.016 0.137,-0.036 0.2039,-0.06 0.1302,-0.048 0.2487,-0.124 0.3479,-0.221 0.0939,-0.094 0.1662,-0.207 0.2118,-0.332 0.074,-0.185 0.1227,-0.419 0.1547,-0.767 0.003,-0.049 0.01,-0.109 0.0148,-0.163 0.0253,-0.289 0.0369,-0.628 0.0554,-1.026 0.0313,-0.614 0.0559,-1.224 0.0753,-1.836 0,0 0.0413,-1.088 0.0412,-1.088 0.009,-0.251 0.002,-0.529 -0.0679,-0.778 -0.0305,-0.12 -0.0799,-0.234 -0.1463,-0.338 z"
         fill="#000000"
         id="path2569" />
      <path
         d="m 349.84598,335.12062 c -0.1337,-0.146 -0.3231,-0.293 -0.6218,-0.473 -0.0431,-0.024 -0.0937,-0.056 -0.1403,-0.084 -0.2487,-0.15 -0.5484,-0.307 -0.8984,-0.497 -0.5377,-0.296 -1.0757,-0.583 -1.6189,-0.869 l -0.9596,-0.509 c -0.0497,-0.014 -0.1002,-0.05 -0.1471,-0.073 -0.1844,-0.088 -0.3799,-0.17 -0.5827,-0.208 -0.07,-0.014 -0.1409,-0.021 -0.212,-0.022 -0.046,-0.001 -0.0918,0.002 -0.1374,0.008 -0.1918,0.03 -0.3695,0.12 -0.5075,0.256 -0.1381,0.137 -0.2296,0.314 -0.2614,0.505 -0.0146,0.122 -0.0102,0.246 0.0132,0.366 0.0469,0.256 0.161,0.508 0.2789,0.729 l 0.5125,0.961 c 0.2851,0.541 0.5737,1.08 0.8696,1.617 0.1908,0.35 0.3496,0.65 0.4984,0.898 0.0282,0.047 0.0602,0.097 0.0843,0.14 0.1811,0.299 0.3266,0.487 0.4741,0.622 0.0955,0.092 0.2101,0.162 0.3356,0.206 0.1319,0.043 0.2716,0.059 0.4098,0.045 0.0704,-0.008 0.1403,-0.02 0.2093,-0.036 0.0681,-0.018 0.1351,-0.04 0.2008,-0.065 0.071,-0.027 0.14,-0.059 0.2063,-0.096 0.3896,-0.218 0.7487,-0.487 1.0681,-0.799 0.383,-0.377 0.7216,-0.788 0.9849,-1.259 0.0367,-0.066 0.0683,-0.135 0.0949,-0.207 0.0249,-0.065 0.0464,-0.132 0.0644,-0.2 0.0155,-0.07 0.0275,-0.14 0.0358,-0.21 0.0131,-0.138 -0.003,-0.277 -0.0471,-0.409 -0.0435,-0.126 -0.114,-0.241 -0.2067,-0.337 z"
         fill="#000000"
         id="path2571" />
    </g>
  </g>
</svg>
