<?xml version="1.0" encoding="UTF-8" standalone="no"?>
<svg
   width="20"
   height="14.018"
   viewBox="0 0 20 14.018"
   fill="none"
   version="1.1"
   id="svg620"
   xmlns="http://www.w3.org/2000/svg"
   xmlns:svg="http://www.w3.org/2000/svg">
  <defs
     id="defs624" />
  <g
     id="New_Layer_1653473784.8781562"
     style="display:inline"
     transform="translate(-334.39108,-358.38364)">
    <path
       fill-rule="evenodd"
       clip-rule="evenodd"
       d="m 350.35558,359.47762 c 0.8601,0.231 1.5405,0.911 1.7715,1.771 0.4237,1.566 0.4365,4.814 0.4365,4.814 0,0 0,3.261 -0.4236,4.814 -0.2311,0.86 -0.9114,1.54 -1.7715,1.771 -1.5533,0.424 -7.8049,0.424 -7.8049,0.424 0,0 -6.2516,0 -7.8049,-0.424 -0.8601,-0.231 -1.5404,-0.911 -1.7715,-1.771 -0.4236,-1.566 -0.4236,-4.814 -0.4236,-4.814 0,0 0,-3.248 0.4108,-4.801 0.231,-0.86 0.9114,-1.54 1.7715,-1.771 1.5533,-0.424 7.8049,-0.437 7.8049,-0.437 0,0 6.2516,0 7.8048,0.424 z m -4.6084,6.585 -5.1862,3.004 v -6.008 z"
       fill="#000000"
       id="path9898"
       transform="translate(1.8275,-0.66998)" />
  </g>
</svg>
