<?xml version="1.0" encoding="UTF-8" standalone="no"?>
<svg
   width="19.999979"
   height="15.244469"
   viewBox="0 0 19.999979 15.244469"
   fill="none"
   version="1.1"
   id="svg620"
   xmlns="http://www.w3.org/2000/svg"
   xmlns:svg="http://www.w3.org/2000/svg">
  <defs
     id="defs624" />
  <g
     id="New_Layer_1653473784.866619"
     style="display:inline"
     transform="translate(-22.000029,-142.37768)">
    <path
       d="m 37.103301,144.31148 c -1.2747,-0.5849 -2.6416,-1.0159 -4.0709,-1.2627 -0.026,-0.005 -0.052,0.007 -0.0654,0.031 -0.1758,0.3126 -0.3706,0.7206 -0.5069,1.0412 -1.5373,-0.2302 -3.0666,-0.2302 -4.5723,0 -0.1364,-0.3278 -0.3382,-0.7286 -0.5148,-1.0412 -0.0134,-0.0231 -0.0394,-0.035 -0.0655,-0.031 -1.4284,0.246 -2.7954,0.677 -4.0709,1.2627 -0.011,0.005 -0.0205,0.0127 -0.0268,0.023 -2.5928,3.8736 -3.3031,7.652 -2.9546,11.3836 0.0015,0.0183 0.0118,0.0357 0.026,0.0468 1.7106,1.2563 3.3677,2.019 4.994,2.5245 0.0261,0.008 0.0536,-0.002 0.0702,-0.023 0.3847,-0.5254 0.7276,-1.0793 1.0217,-1.6618 0.0173,-0.0342 8e-4,-0.0746 -0.0347,-0.0881 -0.544,-0.2064 -1.0619,-0.4579 -1.5601,-0.7436 -0.0394,-0.0231 -0.0426,-0.0794 -0.0063,-0.1064 0.1048,-0.0786 0.2097,-0.1603 0.3098,-0.2428 0.0181,-0.0151 0.0433,-0.0183 0.0646,-0.009 3.2732,1.4944 6.8167,1.4944 10.0512,0 0.0213,-0.0103 0.0466,-0.007 0.0655,0.008 0.1001,0.0825 0.205,0.165 0.3106,0.2436 0.0362,0.027 0.0339,0.0833 -0.0055,0.1064 -0.4983,0.2912 -1.0162,0.5372 -1.5609,0.7428 -0.0355,0.0135 -0.0513,0.0547 -0.0339,0.0889 0.3003,0.5817 0.6432,1.1356 1.0208,1.661 0.0158,0.0222 0.0442,0.0317 0.0702,0.0238 1.6342,-0.5055 3.2913,-1.2682 5.002,-2.5245 0.0149,-0.0111 0.0244,-0.0278 0.026,-0.046 0.417,-4.3141 -0.6985,-8.0616 -2.9571,-11.3836 -0.0055,-0.0111 -0.0149,-0.0191 -0.026,-0.0238 z m -10.2474,9.1345 c -0.9855,0 -1.7975,-0.9047 -1.7975,-2.0158 0,-1.1111 0.7963,-2.0158 1.7975,-2.0158 1.009,0 1.8131,0.9127 1.7973,2.0158 0,1.1111 -0.7962,2.0158 -1.7973,2.0158 z m 6.6456,0 c -0.9855,0 -1.7974,-0.9047 -1.7974,-2.0158 0,-1.1111 0.7962,-2.0158 1.7974,-2.0158 1.009,0 1.8131,0.9127 1.7974,2.0158 0,1.1111 -0.7884,2.0158 -1.7974,2.0158 z"
       fill="#000000"
       id="path7487"
       transform="translate(1.8275,-0.66998)" />
  </g>
</svg>
