<?xml version="1.0" encoding="UTF-8" standalone="no"?>
<svg
   width="20"
   height="20"
   viewBox="0 0 20 20"
   fill="none"
   version="1.1"
   id="svg620"
   xmlns="http://www.w3.org/2000/svg"
   xmlns:svg="http://www.w3.org/2000/svg">
  <defs
     id="defs624" />
  <g
     id="New_Layer_1653473784.8683872"
     style="display:inline"
     transform="translate(-22.000001,-176)">
    <path
       fill-rule="evenodd"
       clip-rule="evenodd"
       d="m 30.172501,176.66998 c -5.5206,0 -10,4.4794 -10,10 0,5.5206 4.4794,10 10,10 5.5098,0 10,-4.4794 10,-10 0,-5.5206 -4.4902,-10 -10,-10 z m 6.6052,4.6095 c 1.1931,1.4534 1.9089,3.3081 1.9306,5.3146 -0.282,-0.0543 -3.102,-0.6291 -5.9436,-0.2712 -0.0651,-0.141 -0.1193,-0.2928 -0.1844,-0.4447 -0.1735,-0.4121 -0.3688,-0.8351 -0.564,-1.2364 3.1454,-1.2798 4.577,-3.1236 4.7614,-3.3623 z m -6.6052,-3.1344 c 2.1692,0 4.154,0.8134 5.6616,2.1475 -0.1518,0.2169 -1.4425,1.9414 -4.4794,3.0802 -1.3991,-2.5705 -2.9501,-4.6746 -3.1887,-5 0.6399,-0.1518 1.3124,-0.2277 2.0065,-0.2277 z m -3.6334,0.8026 c 0.2278,0.3036 1.7462,2.4186 3.167,4.9349 -3.9913,1.0629 -7.5162,1.0412 -7.8959,1.0412 0.5532,-2.6464 2.3428,-4.8482 4.7289,-5.9761 z m -4.9132,7.7331 c 0,-0.0867 0,-0.1735 0,-0.2603 0.3687,0.0109 4.5119,0.0651 8.7744,-1.2147 0.2494,0.4772 0.4772,0.9653 0.6941,1.4534 -0.1085,0.0325 -0.2278,0.065 -0.3362,0.0976 -4.4035,1.4208 -6.7462,5.3037 -6.9414,5.629 -1.3558,-1.5076 -2.1909,-3.5141 -2.1909,-5.705 z m 8.5466,8.5358 c -1.974,0 -3.7961,-0.6724 -5.2386,-1.8004 0.1518,-0.3145 1.8872,-3.6551 6.7028,-5.3362 0.0217,-0.0109 0.0325,-0.0109 0.0542,-0.0217 1.2039,3.1128 1.692,5.7267 1.8222,6.475 -1.0304,0.4447 -2.1584,0.6833 -3.3406,0.6833 z m 4.7614,-1.4642 c -0.0868,-0.5206 -0.5423,-3.0152 -1.6594,-6.0846 2.6789,-0.423 5.0216,0.2712 5.3145,0.3688 -0.3688,2.3753 -1.7354,4.4252 -3.6551,5.7158 z"
       fill="#000000"
       id="path4902"
       transform="translate(1.8275,-0.66998)" />
  </g>
</svg>
