<?xml version="1.0" encoding="UTF-8" standalone="no"?>
<svg
   width="20"
   height="20"
   viewBox="0 0 20 20"
   fill="none"
   version="1.1"
   id="svg620"
   xmlns="http://www.w3.org/2000/svg"
   xmlns:svg="http://www.w3.org/2000/svg">
  <defs
     id="defs624" />
  <g
     id="New_Layer_1653473784.8689163"
     style="display:inline"
     transform="translate(-22.000001,-212)">
    <path
       d="m 40.172501,222.73098 c 0,-5.557 -4.4767,-10.061 -10,-10.061 -5.5233,0 -10,4.504 -10,10.061 0,5.022 3.656,9.184 8.4373,9.939 v -7.031 h -2.5386 v -2.909 h 2.5386 v -2.216 c 0,-2.5213 1.4927,-3.9147 3.7774,-3.9147 1.0933,0 2.2386,0.1967 2.2386,0.1967 v 2.476 h -1.262 c -1.242,0 -1.6286,0.776 -1.6286,1.572 v 1.887 h 2.7733 l -0.4433,2.908 h -2.33 v 7.031 c 4.7813,-0.755 8.4373,-4.917 8.4373,-9.939 z"
       fill="#000000"
       id="path8748"
       transform="translate(1.8275,-0.66998)" />
  </g>
</svg>
