<?xml version="1.0" encoding="UTF-8" standalone="no"?>
<svg
   width="20"
   height="19.506124"
   viewBox="0 0 20 19.506124"
   fill="none"
   version="1.1"
   id="svg620"
   xmlns="http://www.w3.org/2000/svg"
   xmlns:svg="http://www.w3.org/2000/svg">
  <defs
     id="defs624" />
  <g
     id="New_Layer_1653473784.8694184"
     style="display:inline"
     transform="translate(-22.000001,-248.247)">
    <path
       fill-rule="evenodd"
       clip-rule="evenodd"
       d="m 30.172501,248.91698 c -5.525,0 -10,4.475 -10,10 0,4.425 2.8625,8.162 6.8375,9.487 0.5,0.088 0.6875,-0.212 0.6875,-0.475 0,-0.237 -0.0125,-1.025 -0.0125,-1.862 -2.5125,0.462 -3.1625,-0.613 -3.3625,-1.175 -0.1125,-0.288 -0.6,-1.175 -1.025,-1.413 -0.35,-0.187 -0.85,-0.65 -0.0125,-0.662 0.7875,-0.013 1.35,0.725 1.5375,1.025 0.9,1.512 2.3375,1.087 2.9125,0.825 0.0875,-0.65 0.35,-1.088 0.6375,-1.338 -2.225,-0.25 -4.55,-1.112 -4.55,-4.937 0,-1.088 0.3875,-1.988 1.025,-2.688 -0.1,-0.25 -0.45,-1.275 0.1,-2.65 0,0 0.8375,-0.262 2.75,1.025 0.8,-0.225 1.65,-0.337 2.5,-0.337 0.85,0 1.7,0.112 2.5,0.337 1.9125,-1.3 2.75,-1.025 2.75,-1.025 0.55,1.375 0.2,2.4 0.1,2.65 0.6375,0.7 1.025,1.588 1.025,2.688 0,3.837 -2.3375,4.687 -4.5625,4.937 0.3625,0.313 0.675,0.913 0.675,1.85 0,1.338 -0.0125,2.413 -0.0125,2.75 0,0.263 0.1875,0.575 0.6875,0.475 1.9852,-0.67 3.7102,-1.946 4.9323,-3.648 1.2221,-1.702 1.8797,-3.744 1.8802,-5.839 0,-5.525 -4.475,-10 -10,-10 z"
       fill="#000000"
       id="path6601"
       transform="translate(1.8275,-0.66998)" />
  </g>
</svg>
