<?xml version="1.0" encoding="UTF-8" standalone="no"?>
<svg
   width="20.000061"
   height="18.494028"
   viewBox="0 0 20.000061 18.494028"
   fill="none"
   version="1.1"
   id="svg620"
   xmlns="http://www.w3.org/2000/svg"
   xmlns:svg="http://www.w3.org/2000/svg">
  <defs
     id="defs624" />
  <g
     id="New_Layer_1653473784.8699615"
     style="display:inline"
     transform="translate(-21.999972,-284.75297)">
    <path
       d="m 40.113401,295.78298 -1.065,-3.28 c 5e-4,0.001 7e-4,0.003 0.0012,0.004 -6e-4,-10e-4 -9e-4,-0.003 -0.0013,-0.005 -1e-4,0 -1e-4,0 -1e-4,0 0,0 0,0 0,0 l -2.1141,-6.509 c -0.1156,-0.343 -0.4338,-0.573 -0.7986,-0.57 -0.3659,0.002 -0.6754,0.228 -0.7886,0.575 l -2.0066,6.178 h -6.3318 l -2.0105,-6.178 c -0.113,-0.348 -0.4226,-0.573 -0.7884,-0.575 -0.0015,0 -0.0029,0 -0.0044,0 -0.3602,0 -0.6791,0.229 -0.796,0.575 l -2.1083,6.503 -3e-4,10e-4 c 0,0 0,0 0,0 -5e-4,0.002 -7e-4,0.003 -0.0013,0.005 5e-4,-10e-4 7e-4,-0.003 0.0012,-0.004 l -1.0689,3.28 c -0.1608,0.495 0.0137,1.033 0.4343,1.339 l 9.229,6.705 c 0.0013,0.001 0.0029,0.002 0.0042,0.003 0.004,0.003 0.0078,0.006 0.0118,0.008 -0.0037,-0.002 -0.0073,-0.005 -0.011,-0.008 0,0 0,0 -10e-5,0 6e-4,0.001 0.0013,0.001 0.002,0.002 5e-4,0 0.0011,0 0.0016,0 0,0.001 10e-5,0.001 2e-4,0.001 0.0143,0.01 0.0291,0.019 0.0445,0.027 0.0021,10e-4 0.004,0.003 0.0061,0.004 10e-5,0 0,0 10e-5,0 0.0013,0 0.0025,10e-4 0.0038,0.002 0.001,0 0.0021,0.001 0.003,0.001 7e-4,0 0.0015,10e-4 0.0022,10e-4 0.0017,0.001 0.0036,0.001 0.0053,0.002 0.008,0.004 0.0164,0.007 0.0247,0.011 0.0077,0.003 0.0152,0.006 0.0231,0.009 4e-4,0 7e-4,0.001 0.001,0.001 0.0013,0 0.0025,10e-4 0.0039,10e-4 0.0016,0.001 0.0032,0.002 0.0049,0.002 6e-4,0 0.0013,0 0.0019,10e-4 0.0021,0 0.0043,0 0.0064,0.001 8e-4,0 0.0016,0 0.0025,10e-4 0.0111,0.003 0.0226,0.005 0.034,0.008 0.0045,10e-4 0.0088,0.002 0.0134,0.003 6e-4,0 0.0012,10e-4 0.0019,10e-4 0.0015,0 0.0028,0.001 0.0044,0.001 0.0024,0 0.0047,10e-4 0.0072,10e-4 0.002,0.001 0.004,0 0.0059,0.001 4e-4,0 7e-4,0 10e-4,0 1e-4,0 2e-4,0 3e-4,0 0.0218,0.003 0.0439,0.005 0.0663,0.005 2e-4,0 3e-4,0 5e-4,0 0,0 1e-4,0 1e-4,0 v 0 c 10e-5,0 10e-5,0 2e-4,0 0.0225,0 0.0446,-0.002 0.0664,-0.005 10e-5,0 2e-4,0 3e-4,0 3e-4,0 7e-4,0 0.001,0 0.002,-0.001 0.0041,0 0.006,-0.001 0.0025,0 0.0048,-10e-4 0.0073,-10e-4 0.0015,0 0.0028,-0.001 0.0043,-0.001 7e-4,0 0.0013,-10e-4 0.0019,-10e-4 0.0046,-0.001 0.009,-0.002 0.0136,-0.003 0.0113,-0.003 0.0226,-0.005 0.0337,-0.008 7e-4,-10e-4 0.0015,-10e-4 0.0023,-10e-4 0.0022,0 0.0044,-0.001 0.0066,-0.001 6e-4,-10e-4 0.0013,-10e-4 0.002,-10e-4 0.0017,0 0.0034,-10e-4 0.005,-0.002 0.0013,0 0.0025,-10e-4 0.0038,-10e-4 3e-4,0 6e-4,-0.001 10e-4,-0.001 0.0084,-0.003 0.0163,-0.007 0.0245,-0.01 0.0076,-0.003 0.0154,-0.006 0.0228,-0.009 0.0018,-10e-4 0.0038,-0.002 0.0056,-0.003 7e-4,0 0.0015,0 0.0022,-10e-4 10e-4,0 0.0021,-0.001 0.0031,-0.001 0.0013,-10e-4 0.0026,-0.002 0.0039,-0.002 0,0 10e-5,0 10e-5,0 0.0022,-0.001 0.0041,-0.003 0.0063,-0.004 0.0152,-0.008 0.03,-0.017 0.0442,-0.027 0.0011,-0.001 0.0024,-0.002 0.0036,-0.002 3e-4,-0.001 6e-4,-0.001 9e-4,-0.001 0.0014,-10e-4 0.003,-0.002 0.0043,-0.003 l 9.2304,-6.705 c 0.4204,-0.306 0.5949,-0.844 0.4341,-1.339 z m -3.9721,-9.18 1.8102,5.573 h -3.6204 z m 1.4932,6.515 -0.7387,0.947 -5.4479,6.98 2.577,-7.927 z m -7.9107,10.474 c 5e-4,0.001 0.0012,0.002 0.0017,0.004 -5e-4,-0.002 -0.0012,-0.003 -0.0017,-0.004 z m -0.8265,-2.546 -6.1833,-7.928 h 3.6098 z m -4.6934,-14.443 1.8136,5.573 h -3.6205 z m -2.9839,9.756 c -0.0894,-0.065 -0.1265,-0.179 -0.0922,-0.285 l 0.7946,-2.438 5.8218,7.464 z m 8.6587,7.456 c -0.0019,-0.002 -0.0036,-0.003 -0.0054,-0.005 -4e-4,0 -7e-4,0 -0.0011,-10e-4 -0.0036,-0.003 -0.007,-0.006 -0.0105,-0.009 -0.0067,-0.006 -0.0133,-0.012 -0.0196,-0.018 5e-4,0.001 0.0011,0.001 0.0016,0.002 7e-4,0 0.0015,0.001 0.0022,0.001 0.0135,0.013 0.0278,0.025 0.0426,0.037 2e-4,0 3e-4,0 5e-4,0 7e-4,10e-4 0.0013,10e-4 0.002,0.002 -0.0041,-0.003 -0.0083,-0.006 -0.0123,-0.009 z m 0.2935,-1.894 -1.5143,-4.665 -1.3433,-4.138 h 5.7194 z m 0.3099,1.879 c -0.0035,0.003 -0.0069,0.006 -0.0105,0.009 -4e-4,10e-4 -8e-4,10e-4 -0.0013,10e-4 -0.0018,0.002 -0.0035,0.004 -0.0053,0.005 -0.0039,0.003 -0.0081,0.006 -0.0122,0.009 7e-4,-0.001 0.0013,-0.001 0.0021,-0.002 10e-5,0 2e-4,0 3e-4,0 0.0149,-0.011 0.0291,-0.023 0.0425,-0.036 5e-4,-10e-4 0.0011,-10e-4 0.0017,-0.002 7e-4,0 0.0015,-10e-4 0.0021,-0.002 -0.0063,0.007 -0.0128,0.012 -0.0194,0.018 z m 8.6431,-7.441 -6.5232,4.739 5.8238,-7.462 0.7913,2.438 c 0.0344,0.106 -0.0026,0.22 -0.0919,0.285 z"
       fill="#000000"
       id="path5961"
       transform="translate(1.8275,-0.66998)" />
  </g>
</svg>
