<?xml version="1.0" encoding="UTF-8" standalone="no"?>
<svg
   width="14.1874"
   height="20"
   viewBox="0 0 14.1874 20"
   fill="none"
   version="1.1"
   id="svg620"
   xmlns="http://www.w3.org/2000/svg"
   xmlns:svg="http://www.w3.org/2000/svg">
  <defs
     id="defs624" />
  <g
     id="New_Layer_1653473784.8704696"
     style="display:inline"
     transform="translate(-24.906301,-320)">
    <path
       d="m 34.430401,337.81398 h -11.3516 c 0,1.579 1.2685,2.856 2.8386,2.856 h 8.513 c 1.5673,0 2.8358,-1.28 2.8358,-2.856 v -11.732 c 0,-0.056 -0.0451,-0.107 -0.1015,-0.107 h -2.6328 c -0.0564,0 -0.1015,0.048 -0.1015,0.104 v 11.733 z m 0,-17.144 c 1.5673,0 2.8358,1.28 2.8358,2.858 h -11.3488 v 11.733 c 0,0.056 -0.0479,0.104 -0.1043,0.104 h -2.63 c -0.0564,0 -0.1043,-0.048 -0.1043,-0.104 v -11.733 c 0,-1.578 1.2685,-2.858 2.8386,-2.858 z"
       fill="#000000"
       id="path6958"
       transform="translate(1.8275,-0.66998)" />
  </g>
</svg>
