<?xml version="1.0" encoding="UTF-8" standalone="no"?>
<svg
   width="18"
   height="18"
   viewBox="0 0 18 18"
   fill="none"
   version="1.1"
   id="svg620"
   xmlns="http://www.w3.org/2000/svg"
   xmlns:svg="http://www.w3.org/2000/svg">
  <defs
     id="defs624" />
  <g
     id="New_Layer_1653473784.8709805"
     style="display:inline"
     transform="translate(-23.000001,-357)">
    <g
       id="g1912"
       transform="translate(1.8275,-0.66998)">
      <path
         fill-rule="evenodd"
         clip-rule="evenodd"
         d="m 30.172501,357.66998 c -2.4444,0 -2.7504,0.01 -3.7104,0.054 -0.9582,0.044 -1.6128,0.196 -2.1852,0.419 -0.6,0.225 -1.1442,0.579 -1.5942,1.038 -0.4577,0.449 -0.8119,0.993 -1.038,1.593 -0.2214,0.573 -0.3744,1.228 -0.4182,2.186 -0.0432,0.96 -0.054,1.265 -0.054,3.71 0,2.445 0.0102,2.75 0.054,3.71 0.0438,0.959 0.1962,1.613 0.4188,2.186 0.2256,0.6 0.5796,1.144 1.038,1.594 0.4495,0.457 0.9933,0.812 1.5936,1.038 0.5724,0.222 1.227,0.374 2.1852,0.418 0.96,0.044 1.266,0.054 3.7104,0.054 2.4444,0 2.7504,-0.01 3.7104,-0.054 0.9582,-0.044 1.6128,-0.196 2.1852,-0.419 0.6,-0.225 1.1442,-0.579 1.5942,-1.038 0.4577,-0.449 0.8119,-0.993 1.038,-1.593 0.222,-0.573 0.3744,-1.227 0.4182,-2.186 0.0438,-0.96 0.054,-1.266 0.054,-3.71 0,-2.444 -0.0102,-2.75 -0.054,-3.71 -0.0438,-0.959 -0.1962,-1.613 -0.4188,-2.186 -0.226,-0.6 -0.5802,-1.144 -1.038,-1.594 -0.4495,-0.457 -0.9933,-0.812 -1.5936,-1.038 -0.5724,-0.221 -1.2276,-0.374 -2.1858,-0.418 -0.9594,-0.043 -1.2648,-0.054 -3.7098,-0.054 z m 0,1.622 c 2.403,0 2.688,0.009 3.6372,0.052 0.8772,0.04 1.3536,0.186 1.671,0.31 0.42,0.163 0.72,0.358 1.035,0.673 0.315,0.315 0.51,0.615 0.6726,1.035 0.1236,0.317 0.27,0.794 0.3102,1.671 0.0432,0.949 0.0522,1.234 0.0522,3.637 0,2.403 -0.009,2.688 -0.0522,3.637 -0.0402,0.877 -0.186,1.354 -0.3102,1.671 -0.144,0.391 -0.3739,0.745 -0.6726,1.035 -0.2904,0.299 -0.644,0.529 -1.035,0.673 -0.3174,0.123 -0.7938,0.27 -1.671,0.31 -0.9492,0.043 -1.2336,0.052 -3.6372,0.052 -2.4036,0 -2.688,-0.009 -3.6372,-0.052 -0.8772,-0.04 -1.3536,-0.186 -1.671,-0.31 -0.3909,-0.144 -0.7446,-0.374 -1.035,-0.673 -0.2987,-0.29 -0.5285,-0.644 -0.6726,-1.035 -0.1236,-0.317 -0.27,-0.794 -0.3102,-1.671 -0.0432,-0.949 -0.0522,-1.234 -0.0522,-3.637 0,-2.403 0.009,-2.688 0.0522,-3.637 0.0402,-0.877 0.186,-1.354 0.3102,-1.671 0.1626,-0.42 0.3582,-0.72 0.6726,-1.035 0.2904,-0.299 0.644,-0.529 1.035,-0.673 0.3174,-0.123 0.7938,-0.27 1.671,-0.31 0.9492,-0.043 1.2342,-0.052 3.6372,-0.052 z"
         fill="#000000"
         id="path2527" />
      <path
         fill-rule="evenodd"
         clip-rule="evenodd"
         d="m 30.172501,369.67298 c -0.3944,0 -0.7849,-0.078 -1.1492,-0.229 -0.3643,-0.151 -0.6954,-0.372 -0.9742,-0.651 -0.2789,-0.278 -0.5001,-0.609 -0.651,-0.974 -0.1509,-0.364 -0.2286,-0.755 -0.2286,-1.149 0,-0.394 0.0777,-0.785 0.2286,-1.149 0.1509,-0.365 0.3721,-0.696 0.651,-0.974 0.2788,-0.279 0.6099,-0.5 0.9742,-0.651 0.3643,-0.151 0.7548,-0.229 1.1492,-0.229 0.7964,0 1.5603,0.316 2.1234,0.88 0.5632,0.563 0.8796,1.327 0.8796,2.123 0,0.796 -0.3164,1.56 -0.8796,2.123 -0.5631,0.564 -1.327,0.88 -2.1234,0.88 z m 0,-7.629 c -1.2269,0 -2.4035,0.487 -3.2711,1.355 -0.8675,0.867 -1.3549,2.044 -1.3549,3.271 0,1.227 0.4874,2.404 1.3549,3.271 0.8676,0.868 2.0442,1.355 3.2711,1.355 1.2269,0 2.4035,-0.487 3.2711,-1.355 0.8675,-0.867 1.3549,-2.044 1.3549,-3.271 0,-1.227 -0.4874,-2.404 -1.3549,-3.271 -0.8676,-0.868 -2.0442,-1.355 -3.2711,-1.355 z m 5.9718,-0.084 c 0,0.29 -0.1152,0.568 -0.3203,0.773 -0.2051,0.205 -0.4832,0.321 -0.7732,0.321 -0.29,0 -0.5682,-0.116 -0.7732,-0.321 -0.2051,-0.205 -0.3203,-0.483 -0.3203,-0.773 0,-0.29 0.1152,-0.568 0.3203,-0.773 0.205,-0.205 0.4832,-0.32 0.7732,-0.32 0.29,0 0.5681,0.115 0.7732,0.32 0.2051,0.205 0.3203,0.483 0.3203,0.773"
         fill="#000000"
         id="path2529" />
    </g>
  </g>
</svg>
