<?xml version="1.0" encoding="UTF-8" standalone="no"?>
<svg
   width="18.277069"
   height="19.999649"
   viewBox="0 0 18.277069 19.999649"
   fill="none"
   version="1.1"
   id="svg620"
   xmlns="http://www.w3.org/2000/svg"
   xmlns:svg="http://www.w3.org/2000/svg">
  <defs
     id="defs624" />
  <g
     id="New_Layer_1653473784.8715072"
     style="display:inline"
     transform="translate(-172.54955,-139.64608)">
    <path
       d="m 188.99647,154.54471 -1.1953,-10.201 c -0.0117,-0.117 -0.0937,-0.217 -0.1992,-0.258 l -9.8316,-3.749 c -0.123,-0.047 -0.2636,-0.012 -0.3515,0.087 l -6.6208,7.647 c -0.0878,0.099 -0.0996,0.246 -0.0351,0.363 l 6.609,11.724 c 0.0586,0.099 0.1641,0.158 0.2754,0.158 0.0469,0 0.0938,-0.012 0.1406,-0.035 l 11.0327,-5.426 c 0.123,-0.047 0.1933,-0.175 0.1758,-0.31 z m -0.8555,-0.727 c 0.006,0.03 -0.006,0.059 -0.0293,0.076 -0.0234,0.018 -0.0527,0.024 -0.082,0.012 l -9.3159,-3.55 c -0.0293,-0.012 -0.0528,-0.041 -0.0528,-0.071 0,-0.029 0.0117,-0.064 0.041,-0.082 l 8.3082,-5.068 c 0.0235,-0.017 0.0528,-0.017 0.0821,-0.006 0.0292,0.012 0.041,0.035 0.0468,0.065 z m -1.7284,-9.216 -8.2203,5.015 c -0.0293,0.018 -0.0586,0.018 -0.0879,0 -0.0293,-0.017 -0.041,-0.041 -0.041,-0.076 v -8.15 c 0,-0.029 0.0117,-0.053 0.0352,-0.07 0.0117,-0.012 0.0293,-0.018 0.0468,-0.018 0.0117,0 0.0235,0 0.0293,0.006 l 8.2203,3.141 c 0.0293,0.011 0.0528,0.041 0.0528,0.07 0.006,0.029 -0.006,0.064 -0.0352,0.082 z m -8.3492,6.457 c 0,-0.03 0.0117,-0.053 0.0352,-0.071 0.0117,-0.011 0.0293,-0.017 0.0468,-0.017 0.0117,0 0.0235,0 0.0293,0.006 l 9.2925,3.539 c 0.0352,0.011 0.0528,0.041 0.0528,0.076 0,0.035 -0.0176,0.064 -0.0469,0.082 l -9.2925,4.57 c -0.0293,0.012 -0.0586,0.012 -0.082,-0.006 -0.0235,-0.018 -0.0411,-0.041 -0.0411,-0.07 v -8.109 z m -0.7675,-9.094 v 16.166 c 0,0.046 -0.0352,0.076 -0.0645,0.082 -0.0293,0.005 -0.0703,0 -0.0937,-0.041 l -5.5193,-9.791 c -0.0176,-0.029 -0.0117,-0.07 0.0117,-0.1 l 5.5193,-6.374 c 0.0176,-0.024 0.041,-0.03 0.0644,-0.03 0.0118,0 0.0235,0 0.0293,0.006 0.0235,0.012 0.0528,0.041 0.0528,0.082 z"
       fill="#000000"
       id="path5894"
       transform="translate(1.8275,-0.66998)" />
  </g>
</svg>
